<?xml version="1.0" encoding="UTF-8"?>
<svg version="1.1" xmlns="http://www.w3.org/2000/svg" width="512" height="512">
<path d="M0 0 C0.85067793 -0.00367669 1.70135585 -0.00735338 2.5778119 -0.01114148 C5.42160634 -0.02213342 8.26536418 -0.02601458 11.10917664 -0.02983093 C13.15141922 -0.0360992 15.19366067 -0.04274632 17.23590088 -0.04974365 C23.93933829 -0.07075125 30.64277583 -0.08114611 37.34623718 -0.09111023 C39.65948689 -0.09515966 41.97273648 -0.09927664 44.28598595 -0.10346031 C55.16067227 -0.12250834 66.03535185 -0.13673762 76.91005164 -0.14507228 C89.43234365 -0.15482974 101.9544582 -0.181112 114.47668773 -0.22157317 C124.17381092 -0.25182221 133.87088352 -0.26654965 143.56805295 -0.26985329 C149.35054641 -0.27219462 155.13285021 -0.28103454 160.91529274 -0.30631447 C166.36464762 -0.32975293 171.8136901 -0.3337655 177.2630825 -0.32355309 C179.25069092 -0.32306136 181.23831554 -0.32927313 183.22587585 -0.34310913 C197.52591575 -0.43699281 211.56381991 0.20400231 224.42045593 7.14717102 C223.76045593 9.12717102 223.10045593 11.10717102 222.42045593 13.14717102 C221.59803406 13.1239679 220.77561218 13.10076477 219.92826843 13.07685852 C204.10822508 12.82110724 190.37763689 16.28776314 178.42045593 27.14717102 C171.93344247 33.60669713 167.37413627 40.75288674 162.92045593 48.70967102 C162.27117126 49.85411682 161.6218866 50.99856262 160.95292664 52.1776886 C145.68383496 79.00319048 145.68383496 79.00319048 146.42045593 109.14717102 C148.31576771 114.63289736 150.34353289 119.92657132 153.85795593 124.58467102 C154.37358093 125.43029602 154.88920593 126.27592102 155.42045593 127.14717102 C154.22480631 130.98239687 152.26844102 134.46479972 150.42045593 138.02217102 C144.43147694 150.000129 142.95875327 162.12377507 146.42045593 175.14717102 C147.90682224 179.23713924 149.62621208 183.18488251 151.42045593 187.14717102 C152.09189968 188.81191891 152.7592758 190.4783202 153.42045593 192.14717102 C123.07542961 192.23841739 92.73041746 192.30920763 62.38528531 192.35143234 C58.8029331 192.35643518 55.22058117 192.36161247 51.63822937 192.36689758 C50.9250463 192.36794682 50.21186323 192.36899607 49.47706856 192.3700771 C37.92863015 192.38748331 26.38027137 192.41902217 14.8318802 192.4557822 C2.98254616 192.49318566 -8.86674616 192.5154056 -20.71613681 192.523525 C-27.37193835 192.52852143 -34.02759167 192.54103655 -40.68333817 192.57009125 C-46.94594383 192.59720866 -53.20829419 192.60562332 -59.47095299 192.59960175 C-61.77117868 192.60070361 -64.07141277 192.60867908 -66.37158775 192.62399292 C-69.50959108 192.64386275 -72.64662751 192.63912057 -75.78465271 192.62818909 C-76.6971123 192.63984045 -77.6095719 192.65149182 -78.54968178 192.66349626 C-84.06078202 192.61152157 -87.21319377 191.82977736 -91.57954407 188.14717102 C-95.89567633 183.21089415 -96.15741356 179.27020785 -96.09712219 173.01509094 C-96.10413147 172.11493256 -96.11114075 171.21477417 -96.11836243 170.28733826 C-96.13593402 167.31712261 -96.12431155 164.34786487 -96.11079407 161.37763977 C-96.1134918 159.29701557 -96.11737656 157.21639261 -96.12239075 155.13577271 C-96.12828687 150.77039105 -96.11972858 146.40533682 -96.10102844 142.03999329 C-96.07839504 136.49036457 -96.09126168 130.94151643 -96.1153183 125.39191723 C-96.12990705 121.08913507 -96.12510835 116.78653179 -96.11480713 112.48374367 C-96.11216761 110.4407625 -96.11531 108.39776426 -96.12472534 106.35480309 C-96.23563141 75.49062198 -86.55730762 49.57147019 -64.92329407 27.42842102 C-47.6051905 10.92528703 -24.1116045 -0.00564103 0 0 Z " fill="#FFFFFF" transform="translate(95.57954406738281,255.8528289794922)"/>
<path d="M0 0 C22.13332837 17.80041234 36.26538005 44.02441259 39.39453125 72.24609375 C41.50557515 101.9908486 34.29102745 129.96546763 15.01953125 153.05859375 C-4.35882196 175.38531403 -30.04511311 188.80781594 -59.60546875 191.24609375 C-91.48143347 193.09632795 -119.22833807 182.1124876 -142.93359375 161.19140625 C-163.18087054 141.98040741 -174.24365488 114.79245266 -175.00561523 87.18359375 C-175.32506346 59.38951018 -166.81429035 34.43386367 -148.60546875 13.24609375 C-148.08855469 12.58480469 -147.57164062 11.92351563 -147.0390625 11.2421875 C-111.48012711 -32.87228122 -42.32780822 -32.83521681 0 0 Z " fill="#FFFFFF" transform="translate(259.60546875,22.75390625)"/>
<path d="M0 0 C0.82458206 -0.00960754 1.64916412 -0.01921509 2.49873352 -0.02911377 C3.39142441 -0.03336365 4.2841153 -0.03761353 5.20385742 -0.04199219 C6.12140305 -0.04769226 7.03894867 -0.05339233 7.98429871 -0.05926514 C9.92864832 -0.06872152 11.87301401 -0.07525164 13.81738281 -0.07910156 C16.78698872 -0.08879428 19.7558988 -0.11980622 22.7253418 -0.15136719 C24.61400956 -0.15789852 26.50268228 -0.16314848 28.39135742 -0.16699219 C29.27797562 -0.17933899 30.16459381 -0.19168579 31.07807922 -0.20440674 C35.8647669 -0.18718293 39.1456031 -0.00975241 42.99682617 3.16113281 C44.98274865 6.14001653 45.37083288 7.41354031 45.84838867 10.83691406 C45.97729492 11.74763672 46.10620117 12.65835937 46.23901367 13.59667969 C46.3653418 14.54607422 46.49166992 15.49546875 46.62182617 16.47363281 C46.82291992 17.88032227 46.82291992 17.88032227 47.02807617 19.31542969 C47.67020036 23.96427774 48.17023492 28.45544991 47.99682617 33.16113281 C48.88370117 33.40476562 49.77057617 33.64839844 50.68432617 33.89941406 C53.99682617 35.16113281 53.99682617 35.16113281 56.43432617 37.20410156 C59.68923895 39.92810631 61.82136646 41.20626339 65.99682617 42.16113281 C72.00249545 40.86052758 77.43075084 38.05135921 82.92260742 35.37597656 C87.15036382 33.38493025 90.25881393 32.41364517 94.99682617 33.16113281 C99.41948197 35.04745286 101.22857883 37.57047216 103.62182617 41.66113281 C103.94739502 42.21575195 104.27296387 42.77037109 104.60839844 43.34179688 C105.3353312 44.58297536 106.05747856 45.82696496 106.77563477 47.07324219 C108.12442433 49.37928944 109.52128401 51.65227764 110.92260742 53.92675781 C111.92740518 55.58767714 112.9313165 57.24913307 113.93432617 58.91113281 C114.4191748 59.69037109 114.90402344 60.46960938 115.40356445 61.27246094 C118.45631565 66.41874474 120.40655335 71.07854655 119.99682617 77.16113281 C118.28334151 81.44785059 115.38524053 83.76917166 111.80932617 86.59863281 C110.90827148 87.31921875 110.0072168 88.03980469 109.07885742 88.78222656 C105.99682617 91.16113281 105.99682617 91.16113281 103.90698242 92.44873047 C100.89179591 94.39762013 98.53263356 95.93254155 97.06933594 99.2878418 C96.54684967 101.80274935 96.37890159 104.09275746 96.37182617 106.66113281 C96.36368896 107.53954834 96.35555176 108.41796387 96.34716797 109.32299805 C96.71926599 114.71473274 97.99054774 117.73708706 101.93041992 121.47753906 C105.74816959 124.59137888 109.78232008 127.31706778 114.00390625 129.8527832 C116.62968516 131.576604 118.60621919 133.07586683 119.68432617 136.07128906 C121.28346818 147.08537967 112.89045567 157.02558676 107.49682617 166.09863281 C106.52036133 167.78182617 106.52036133 167.78182617 105.52416992 169.49902344 C104.88608398 170.57216797 104.24799805 171.6453125 103.59057617 172.75097656 C103.02016602 173.71898193 102.44975586 174.6869873 101.86206055 175.68432617 C99.06578328 179.39744566 96.41023074 180.93694968 91.84448242 181.66113281 C87.38133326 181.08114998 84.26239116 179.54370753 80.26782227 177.55322266 C72.33900045 173.34769468 72.33900045 173.34769468 63.67602539 172.50390625 C59.17036375 174.24130791 55.71874698 177.15538336 51.99682617 180.16113281 C49.62963867 180.95019531 49.62963867 180.95019531 47.99682617 181.16113281 C47.92334961 182.45083984 47.92334961 182.45083984 47.84838867 183.76660156 C46.35004599 207.455916 46.35004599 207.455916 42.49682617 211.41113281 C39.35137854 213.61294616 37.76269435 214.28684735 33.99365234 214.32226562 C33.16907028 214.33187317 32.34448822 214.34148071 31.49491882 214.35137939 C30.60222794 214.35562927 29.70953705 214.35987915 28.78979492 214.36425781 C27.41347649 214.37280792 27.41347649 214.37280792 26.00935364 214.38153076 C24.06500402 214.39098714 22.12063833 214.39751727 20.17626953 214.40136719 C17.20666363 214.4110599 14.23775354 214.44207185 11.26831055 214.47363281 C9.37964278 214.48016415 7.49097007 214.48541411 5.60229492 214.48925781 C4.71567673 214.50160461 3.82905853 214.51395142 2.91557312 214.52667236 C-1.87111455 214.50944855 -5.15195075 214.33201804 -9.00317383 211.16113281 C-10.98909631 208.18224909 -11.37718053 206.90872531 -11.85473633 203.48535156 C-11.98364258 202.57462891 -12.11254883 201.66390625 -12.24536133 200.72558594 C-12.37168945 199.77619141 -12.49801758 198.82679688 -12.62817383 197.84863281 C-12.76223633 196.91083984 -12.89629883 195.97304688 -13.03442383 195.00683594 C-13.67654801 190.35798788 -14.17658258 185.86681571 -14.00317383 181.16113281 C-14.90165039 180.9175 -15.80012695 180.67386719 -16.72583008 180.42285156 C-20.23513795 179.07183077 -21.75295927 177.53092101 -24.44067383 174.97363281 C-27.24055363 172.8233782 -27.24055363 172.8233782 -31.00317383 172.16113281 C-37.22886958 173.48344525 -42.92612052 176.29260344 -48.67504883 178.94628906 C-52.98856341 180.87288156 -56.21548059 181.92499844 -61.00317383 181.16113281 C-65.42582962 179.27481276 -67.23492649 176.75179346 -69.62817383 172.66113281 C-69.95374268 172.10651367 -70.27931152 171.55189453 -70.61474609 170.98046875 C-71.34167886 169.73929027 -72.06382622 168.49530067 -72.78198242 167.24902344 C-74.13077199 164.94297618 -75.52763166 162.66998799 -76.92895508 160.39550781 C-77.93375284 158.73458848 -78.93766416 157.07313256 -79.94067383 155.41113281 C-80.42552246 154.63189453 -80.91037109 153.85265625 -81.40991211 153.04980469 C-84.4626633 147.90352088 -86.41290101 143.24371907 -86.00317383 137.16113281 C-84.28968916 132.87441503 -81.39158819 130.55309396 -77.81567383 127.72363281 C-76.91461914 127.00304687 -76.01356445 126.28246094 -75.08520508 125.54003906 C-72.00317383 123.16113281 -72.00317383 123.16113281 -69.91333008 121.87353516 C-66.89814356 119.92464549 -64.53898122 118.38972407 -63.07568359 115.03442383 C-62.55319733 112.51951628 -62.38524924 110.22950816 -62.37817383 107.66113281 C-62.36596802 106.34350952 -62.36596802 106.34350952 -62.35351562 104.99926758 C-62.72561364 99.60753289 -63.9968954 96.58517856 -67.93676758 92.84472656 C-71.75451725 89.73088675 -75.78866774 87.00519785 -80.01025391 84.46948242 C-82.63603281 82.74566163 -84.61256685 81.2463988 -85.69067383 78.25097656 C-87.28981584 67.23688596 -78.89680332 57.29667887 -73.50317383 48.22363281 C-72.85219727 47.10150391 -72.2012207 45.979375 -71.53051758 44.82324219 C-70.89243164 43.75009766 -70.2543457 42.67695313 -69.59692383 41.57128906 C-69.02651367 40.60328369 -68.45610352 39.63527832 -67.8684082 38.63793945 C-65.08746931 34.94518749 -62.43557399 33.38966902 -57.89379883 32.66503906 C-53.32943384 33.24704143 -49.91790803 34.80227701 -45.76660156 36.71850586 C-36.83099728 41.17409604 -36.83099728 41.17409604 -27.26489258 41.27050781 C-24.42447052 39.44937733 -24.42447052 39.44937733 -22.18676758 37.20410156 C-19.61634286 34.79921403 -17.36727505 34.07334964 -14.00317383 33.16113281 C-13.92969727 31.87142578 -13.92969727 31.87142578 -13.85473633 30.55566406 C-12.35639365 6.86634963 -12.35639365 6.86634963 -8.50317383 2.91113281 C-5.35772619 0.70931947 -3.76904201 0.03541827 0 0 Z M-16.31567383 79.47363281 C-24.47866041 89.76408331 -27.10236326 101.23522167 -26.00317383 114.16113281 C-23.73080061 125.38692866 -17.61063325 135.71123521 -8.00317383 142.16113281 C2.92747295 148.50055477 13.61830363 151.05957313 26.21948242 148.50878906 C37.22339081 145.20051725 46.59350175 138.75349443 52.39916992 128.74316406 C58.24575193 117.54145186 60.14111325 106.24057482 56.43432617 93.91113281 C51.84567561 81.79321759 44.009409 73.60711075 32.38745117 68.19628906 C15.1621519 60.73762189 -3.75131008 65.91818694 -16.31567383 79.47363281 Z " fill="#FFFFFF" transform="translate(367.003173828125,276.8388671875)"/>
</svg>
