<?xml version="1.0" encoding="UTF-8"?>
<svg version="1.1" xmlns="http://www.w3.org/2000/svg" width="512" height="512">
<path d="M0 0 C4.29017808 2.00172244 8.01783242 4.64562026 11.82666016 7.42480469 C14.27095832 9.19638543 16.74705146 10.91651009 19.23046875 12.6328125 C23.16181232 15.35047767 27.08425927 18.0802137 31 20.8203125 C36.63727596 24.75731329 42.31172903 28.63717668 48 32.5 C56.50693163 38.28039001 64.95972075 44.13451502 73.39453125 50.01953125 C79.90193488 54.55446071 86.43969523 59.04199604 93 63.5 C101.50673382 69.28068464 109.95971688 75.13451232 118.39453125 81.01953125 C124.90193488 85.55446071 131.43969523 90.04199604 138 94.5 C146.50673382 100.28068464 154.95971688 106.13451232 163.39453125 112.01953125 C169.90193488 116.55446071 176.43969523 121.04199604 183 125.5 C191.49580567 131.2732585 199.93899679 137.11806772 208.36157227 142.99755859 C216.08027468 148.37871729 223.84681511 153.68713488 231.64453125 158.953125 C234.10620423 160.62167538 236.55677197 162.30457408 239 164 C239.75812988 164.52303711 240.51625977 165.04607422 241.29736328 165.58496094 C242.00489746 166.0905957 242.71243164 166.59623047 243.44140625 167.1171875 C244.05830322 167.55401855 244.6752002 167.99084961 245.31079102 168.44091797 C248.18456009 171.09330839 249.82850268 173.78811929 250.3794995 177.68172193 C250.38161277 178.656142 250.38372604 179.63056208 250.38590336 180.63451004 C250.3955767 181.76405176 250.40525004 182.89359349 250.41521651 184.05736375 C250.4105707 185.29343676 250.40592489 186.52950978 250.40113831 187.80303955 C250.40793498 189.119949 250.41473164 190.43685844 250.42173427 191.79367423 C250.44008994 195.44776704 250.43968739 199.10165397 250.43615115 202.75578237 C250.43553915 206.69731273 250.45209521 210.63877693 250.46632385 214.58027649 C250.49124672 222.30231611 250.49948854 230.02428702 250.50116099 237.74636349 C250.50258645 244.02382818 250.50875058 250.3012702 250.51826286 256.57872772 C250.5446846 274.37762919 250.55852083 292.17647639 250.55627144 309.97539762 C250.55615157 310.93500566 250.5560317 311.89461371 250.5559082 312.88330078 C250.55578556 313.84408105 250.55566292 314.80486132 250.55553656 315.79475614 C250.5543174 331.36308073 250.58301974 346.93118756 250.6253233 362.49944916 C250.66842041 378.48595188 250.6891335 394.47234842 250.68654197 410.4589107 C250.68554619 419.43369156 250.69378136 428.40824419 250.72607613 437.38297272 C250.75339918 445.02504851 250.75991093 452.66679266 250.73954786 460.30889615 C250.72975524 464.20689099 250.72956845 468.10424967 250.7556076 472.00218391 C250.77922344 475.57416071 250.77489181 479.14499774 250.74875521 482.71694693 C250.74198274 484.61388628 250.76462298 486.51086114 250.78847414 488.40766263 C250.69486303 496.14259417 249.29135251 501.22106617 244 507 C239.76146213 510.66180831 235.72887013 512.12783771 230.16137695 512.11352539 C228.69019157 512.11341209 228.69019157 512.11341209 227.18928528 512.11329651 C226.13295395 512.10813522 225.07662262 512.10297394 223.98828125 512.09765625 C222.36323921 512.09553383 222.36323921 512.09553383 220.70536804 512.09336853 C217.24105075 512.08776559 213.7767978 512.07521258 210.3125 512.0625 C207.96549572 512.05748538 205.61849044 512.05292241 203.27148438 512.04882812 C197.51430092 512.03779521 191.75715506 512.0210542 186 512 C185.99503478 510.033411 185.99503478 510.033411 185.98996925 508.02709293 C185.91091856 476.89166628 185.82168612 445.75628711 185.71994839 414.62092677 C185.70742981 410.78707968 185.69499699 406.95323231 185.68261719 403.11938477 C185.68015119 402.35614818 185.6776852 401.59291159 185.67514448 400.80654662 C185.63544178 388.45510653 185.60268343 376.10365732 185.57250018 363.75219072 C185.54136486 351.07451076 185.50274657 338.39686946 185.45720994 325.71923298 C185.4293559 317.89909643 185.40730952 310.0789881 185.39273749 302.25881534 C185.3809299 296.25808061 185.35870141 290.25743019 185.33261681 284.25673866 C185.32355321 281.79815433 185.31785364 279.33955491 185.31578636 276.88095474 C185.3124553 273.5208773 185.29695452 270.16106407 185.2784729 266.80104065 C185.281375 265.34623986 185.281375 265.34623986 185.28433573 263.86204916 C185.22366065 256.46880274 185.08108919 248.36380529 179.875 242.625 C179.33617187 241.99851563 178.79734375 241.37203125 178.2421875 240.7265625 C170.91461684 235.08407778 162.70139135 235.57276045 153.88037109 235.61904907 C152.44373405 235.61558926 151.00709967 235.61082253 149.57047081 235.60486734 C145.63617009 235.592372 141.70208837 235.59852099 137.76778698 235.60782599 C133.51959454 235.61462217 129.27143939 235.60413244 125.02325439 235.59588623 C116.70637532 235.58255278 108.3895775 235.58542491 100.07269526 235.59412415 C93.31284068 235.60090181 86.55300886 235.60181706 79.79315186 235.5985527 C78.83071985 235.598093 77.86828784 235.59763331 76.87669122 235.59715968 C74.92147334 235.59620049 72.96625546 235.59522785 71.01103759 235.5942419 C52.68088287 235.58568914 34.35077317 235.59552036 16.02062583 235.611643 C0.29562905 235.62504608 -15.42930129 235.62271795 -31.15429688 235.60888672 C-49.41927115 235.5928289 -67.68420598 235.58651311 -85.94918633 235.59572351 C-87.89717483 235.59667915 -89.84516334 235.59762226 -91.79315186 235.5985527 C-92.75157663 235.59901553 -93.7100014 235.59947836 -94.69746935 235.59995521 C-101.44848937 235.60254449 -108.19948435 235.59817543 -114.95050049 235.59111404 C-123.17875952 235.58269661 -131.4069327 235.58498432 -139.6351819 235.60095628 C-143.83262894 235.6088357 -148.02993289 235.61193619 -152.22737885 235.60200882 C-156.07152356 235.59305461 -159.91539285 235.59800662 -163.75951266 235.61394148 C-165.14836758 235.61728621 -166.53724588 235.6156021 -167.92608571 235.60831411 C-179.80772141 235.53319779 -179.80772141 235.53319779 -190.2421875 240.7265625 C-190.78101563 241.35304687 -191.31984375 241.97953125 -191.875 242.625 C-192.42929688 243.23601562 -192.98359375 243.84703125 -193.5546875 244.4765625 C-197.42957605 251.24190845 -197.29361909 259.20837377 -197.2784729 266.80104065 C-197.2842653 267.85411988 -197.2900577 268.90719911 -197.29602563 269.99218982 C-197.31295868 273.50206757 -197.31589639 277.0118133 -197.31884766 280.52172852 C-197.32815044 283.0451947 -197.33831963 285.56865782 -197.34928894 288.09211731 C-197.37091999 293.51532157 -197.38655043 298.93848972 -197.39665604 304.36172676 C-197.41127727 312.20268427 -197.43682363 320.04357667 -197.46498732 327.88449585 C-197.5103929 340.60763164 -197.5470334 353.33077684 -197.578125 366.05395508 C-197.60833613 378.40911509 -197.64269813 390.76425214 -197.68261719 403.11938477 C-197.68507874 403.88169112 -197.68754028 404.64399748 -197.69007643 405.42940403 C-197.70245153 409.25389078 -197.71490796 413.07837726 -197.72740483 416.90286362 C-197.83087923 448.60187804 -197.91996655 480.30091747 -198 512 C-204.83173836 512.10179743 -211.66327959 512.17163191 -218.49560547 512.21972656 C-220.81761993 512.23978577 -223.13958423 512.26703991 -225.46142578 512.30175781 C-228.80774345 512.35052541 -232.15339059 512.37302643 -235.5 512.390625 C-236.5305249 512.41127014 -237.5610498 512.43191528 -238.62280273 512.45318604 C-245.97535218 512.4554518 -251.70724168 511.25526961 -257.05859375 505.96484375 C-257.51363281 505.29582031 -257.96867187 504.62679688 -258.4375 503.9375 C-258.91058594 503.26589844 -259.38367188 502.59429687 -259.87109375 501.90234375 C-261.93472884 498.4248687 -262.12754734 495.57484895 -262.13701439 491.62161636 C-262.14208893 490.49830673 -262.14716347 489.37499711 -262.15239179 488.21764779 C-262.15288955 486.9782758 -262.15338731 485.73890381 -262.15390015 484.4619751 C-262.1582824 483.14944692 -262.16266465 481.83691875 -262.1671797 480.48461699 C-262.17915025 476.83360344 -262.18479475 473.18260311 -262.18936086 469.53157377 C-262.19531504 465.59688671 -262.20692526 461.66221546 -262.21765137 457.72753906 C-262.24217825 448.22182118 -262.25680225 438.71609805 -262.26971143 429.21035826 C-262.27342294 426.52615711 -262.2773962 423.84195648 -262.2814641 421.15775585 C-262.30669845 404.49368619 -262.32875424 387.82961571 -262.34119225 371.16553116 C-262.344122 367.30534105 -262.34708365 363.44515098 -262.35009766 359.58496094 C-262.35084371 358.62551566 -262.35158976 357.66607038 -262.35235842 356.677551 C-262.36501572 341.13041866 -262.39824381 325.58340058 -262.43989949 310.03632167 C-262.48230362 294.07928701 -262.50588545 278.12231088 -262.51111281 262.16522002 C-262.51452848 253.20390259 -262.52630216 244.24276379 -262.55921555 235.28150177 C-262.58719624 227.65071097 -262.5982241 220.0201354 -262.58702008 212.38929728 C-262.58182845 208.49567486 -262.58475238 204.60250334 -262.60948563 200.70894623 C-262.63607716 196.4876367 -262.62393524 192.26732235 -262.60800171 188.04595947 C-262.6218838 186.81551037 -262.63576588 185.58506127 -262.65006864 184.31732583 C-262.58340601 177.16838997 -261.92872441 173.29288651 -257 168 C-254.40380859 165.86352539 -254.40380859 165.86352539 -251.6484375 164.09765625 C-250.63136719 163.43443359 -249.61429688 162.77121094 -248.56640625 162.08789062 C-247.51324219 161.41951172 -246.46007812 160.75113281 -245.375 160.0625 C-243.29794701 158.72242388 -241.22241802 157.37998261 -239.1484375 156.03515625 C-238.12306885 155.37104736 -237.0977002 154.70693848 -236.04125977 154.02270508 C-232.13614662 151.42546157 -228.36139803 148.67187608 -224.5859375 145.89086914 C-220.72250708 143.06588154 -216.77225078 140.37495827 -212.8125 137.6875 C-211.14704501 136.55221594 -209.48168176 135.4167973 -207.81640625 134.28125 C-207.00059082 133.72566406 -206.18477539 133.17007813 -205.34423828 132.59765625 C-201.97469977 130.30123259 -198.61081262 127.99667122 -195.25 125.6875 C-194.61570068 125.25171631 -193.98140137 124.81593262 -193.32788086 124.36694336 C-187.49361791 120.35182062 -181.68511076 116.29995482 -175.875 112.25 C-167.37685834 106.32720127 -158.83843118 100.46750074 -150.27099609 94.64550781 C-143.65009587 90.14032209 -137.06770474 85.58232571 -130.5 81 C-122.12746663 75.15843488 -113.71335033 69.38246267 -105.26953125 63.64453125 C-98.64913911 59.13964245 -92.06722337 54.58198985 -85.5 50 C-77.13263793 44.16204293 -68.72429411 38.38877277 -60.28491211 32.65551758 C-53.51064056 28.04692611 -46.78053978 23.37759811 -40.0625 18.6875 C-33.47398593 14.09033397 -26.87207872 9.51916107 -20.1875 5.0625 C-19.57720947 4.65539795 -18.96691895 4.2482959 -18.33813477 3.82885742 C-12.09703894 -0.30480801 -7.52077998 -1.24634946 0 0 Z " fill="#FFFFFF" transform="translate(262,0)"/>
<path d="M0 0 C1.26108078 0.0001133 1.26108078 0.0001133 2.54763794 0.00022888 C3.91020218 0.00797081 3.91020218 0.00797081 5.30029297 0.01586914 C6.22969696 0.01728409 7.15910095 0.01869904 8.1166687 0.02015686 C11.09197171 0.02576486 14.06720011 0.03831871 17.04248047 0.05102539 C19.0568023 0.05603936 21.07112531 0.06060245 23.08544922 0.06469727 C28.02948849 0.07573689 32.97347182 0.0930069 37.91748047 0.11352539 C37.95621745 1.68237305 37.99495443 3.2512207 38.03369141 4.82006836 C38.05717651 5.74607849 38.08066162 6.67208862 38.1048584 7.62615967 C38.15095145 9.54899451 38.18617963 11.4720974 38.21533203 13.39526367 C38.45344769 19.91086013 39.5836944 24.00685857 44.52294922 28.60961914 C48.73051642 31.11338135 51.9413541 31.55464956 56.77294922 30.71508789 C60.15899362 29.76526851 62.31145932 28.47135405 64.91748047 26.11352539 C67.94597953 20.45789461 68.43596064 15.52634191 68.60498047 9.17602539 C68.63914062 8.30139648 68.67330078 7.42676758 68.70849609 6.52563477 C68.79023704 4.38869285 68.85555177 2.25113321 68.91748047 0.11352539 C74.78898475 -0.01037014 80.65972289 -0.10095385 86.53222656 -0.16113281 C88.5284552 -0.18622733 90.5245924 -0.22031087 92.52050781 -0.26367188 C95.39524935 -0.32454707 98.26877294 -0.35273485 101.14404297 -0.37475586 C102.03177399 -0.40056229 102.919505 -0.42636871 103.83413696 -0.45295715 C108.12937932 -0.45488729 111.02753645 -0.26690517 114.46582031 2.45654297 C118.52769161 6.85858891 118.07097916 11.04445956 118.07861328 16.72827148 C118.08357819 17.60825302 118.08854309 18.48823456 118.09365845 19.3948822 C118.10827563 22.30891702 118.11508106 25.22289742 118.12060547 28.13696289 C118.12635694 30.16093955 118.13211467 32.1849162 118.13787842 34.20889282 C118.1483869 38.45412449 118.15423069 42.69933723 118.15771484 46.94458008 C118.16320165 52.38433789 118.18723437 57.82384566 118.2156868 63.26352501 C118.23430914 67.44482149 118.23951855 71.62605767 118.24105072 75.80739212 C118.24407829 77.81285597 118.25211031 79.81831873 118.2652359 81.82374191 C118.2822891 84.62935175 118.28041799 87.43434961 118.27392578 90.23999023 C118.28314056 91.06821793 118.29235535 91.89644562 118.30184937 92.74977112 C118.26156322 98.30696466 117.15943898 101.35205327 113.61145973 105.72218132 C111.36518249 107.56715345 110.03514096 107.49532457 107.14859009 107.50793457 C106.16723587 107.51928436 105.18588165 107.53063416 104.17478943 107.54232788 C103.09939407 107.53939728 102.02399872 107.53646667 100.91601562 107.53344727 C99.78244125 107.54191681 98.64886688 107.55038635 97.48094177 107.55911255 C93.72269562 107.58256777 89.96485687 107.58350258 86.20654297 107.58227539 C83.59963821 107.58937225 80.99273502 107.59707054 78.38583374 107.60534668 C72.91653113 107.61995956 67.44734252 107.62053204 61.97802734 107.61450195 C55.65955189 107.60786365 49.3416606 107.63071443 43.02330363 107.66781569 C36.94225602 107.70222578 30.86148412 107.70884838 24.78034592 107.70472717 C22.19433223 107.7064228 19.60831117 107.71610757 17.02235794 107.73387146 C13.40701057 107.75597083 9.79307633 107.74640284 6.17773438 107.72875977 C4.57071404 107.74865463 4.57071404 107.74865463 2.93122864 107.76895142 C-4.33687117 107.6864112 -4.33687117 107.6864112 -8.2237854 104.70007324 C-11.41618716 100.25764128 -11.24878991 96.77104306 -11.27539062 91.44458008 C-11.28356812 90.54684372 -11.29174561 89.64910736 -11.3001709 88.72416687 C-11.32504217 85.74458487 -11.34154594 82.7650506 -11.35595703 79.78540039 C-11.36128071 78.76869514 -11.36660439 77.7519899 -11.37208939 76.7044754 C-11.39882933 71.32244113 -11.41820097 65.94043013 -11.43261719 60.55834961 C-11.44926116 54.99855132 -11.49403471 49.43934624 -11.54498863 43.87977219 C-11.57864388 39.60578734 -11.5901928 35.33194352 -11.59584427 31.05783844 C-11.60256219 29.00851156 -11.61779822 26.95919413 -11.64173508 24.90999603 C-11.67335029 22.03952215 -11.6734287 19.17065107 -11.66601562 16.30004883 C-11.68242096 15.45514389 -11.69882629 14.61023895 -11.71572876 13.73973083 C-11.6715437 9.55480129 -11.34780659 6.91667453 -8.67105103 3.60186768 C-5.50764956 0.56090578 -4.22689359 -0.01265537 0 0 Z " fill="#FFFFFF" transform="translate(128.08251953125,404.886474609375)"/>
<path d="M0 0 C1.26096748 0.00022659 1.26096748 0.00022659 2.54740906 0.00045776 C3.90223137 0.01594162 3.90223137 0.01594162 5.28442383 0.03173828 C6.67640739 0.03598312 6.67640739 0.03598312 8.09651184 0.04031372 C11.06162386 0.05151242 14.02643429 0.07661644 16.99145508 0.10205078 C19.00121634 0.11208098 21.01098234 0.12120676 23.02075195 0.12939453 C27.94860261 0.15145074 32.8762277 0.18597849 37.80395508 0.22705078 C37.82973633 1.50580078 37.85551758 2.78455078 37.88208008 4.10205078 C37.93839982 5.81041643 37.99574626 7.51874845 38.05395508 9.22705078 C38.06813477 10.06623047 38.08231445 10.90541016 38.09692383 11.77001953 C38.35003198 18.30020988 39.66905775 24.32039009 44.62817383 28.91845703 C49.85201541 31.36063035 54.22883059 32.00985399 59.80395508 30.22705078 C64.08573221 27.84422811 66.42143942 24.90302596 67.80395508 20.22705078 C68.17903384 16.79428872 68.31192162 13.36459953 68.42895508 9.91455078 C68.46762695 8.98320312 68.50629883 8.05185547 68.54614258 7.09228516 C68.64001821 4.80406671 68.72570017 2.51584783 68.80395508 0.22705078 C74.67545936 0.10315526 80.5461975 0.01257154 86.41870117 -0.04760742 C88.41492981 -0.07270194 90.41106701 -0.10678548 92.40698242 -0.15014648 C95.28172396 -0.21102168 98.15524755 -0.23920946 101.03051758 -0.26123047 C101.9182486 -0.2870369 102.80597961 -0.31284332 103.72061157 -0.33943176 C108.0558659 -0.34137988 110.90925183 -0.15192067 114.35229492 2.63256836 C118.37826291 6.89307043 117.96325831 10.2814245 117.98095703 15.89599609 C117.98752823 16.79373245 117.99409943 17.69146881 118.00086975 18.6164093 C118.02062706 21.59599892 118.03227125 24.57553807 118.04223633 27.55517578 C118.04631186 28.57188103 118.05038738 29.58858627 118.05458641 30.63610077 C118.07545832 36.01814065 118.08975474 41.40015494 118.09912109 46.78222656 C118.11018307 52.34193306 118.1445775 57.90123904 118.18429279 63.46080399 C118.21043884 67.73478947 118.21881119 72.0086793 118.22240257 76.28273773 C118.22727435 78.33204602 118.2389051 80.38134988 118.25744057 82.43058014 C118.28178714 85.30088504 118.28087499 88.1701508 118.27392578 91.04052734 C118.29314087 92.30788475 118.29314087 92.30788475 118.31274414 93.60084534 C118.26571389 98.93709014 117.36465873 101.99907978 113.80395508 106.22705078 C111.3897028 107.43417692 109.85307335 107.36335773 107.15531921 107.38095093 C106.17533966 107.38955139 105.19536011 107.39815186 104.1856842 107.40701294 C103.10669357 107.41127289 102.02770294 107.41553284 100.91601562 107.41992188 C99.21587311 107.43218811 99.21587311 107.43218811 97.48138428 107.44470215 C93.71781957 107.46958443 89.95429261 107.48607848 86.19067383 107.50048828 C84.26657149 107.5084738 84.26657149 107.5084738 82.3035984 107.51662064 C76.91375043 107.53785522 71.5239148 107.55698535 66.13403606 107.56824303 C58.41016874 107.58448186 50.6868045 107.61765774 42.96312684 107.67464387 C36.87732015 107.71801436 30.79171083 107.73398811 24.70575905 107.74037552 C22.11693552 107.74710549 19.52811982 107.76237241 16.93939781 107.78626633 C13.31923273 107.81777681 9.70034353 107.81797516 6.08007812 107.81054688 C5.00716019 107.82695221 3.93424225 107.84335754 2.82881165 107.86026001 C-4.43071678 107.79916544 -4.43071678 107.79916544 -8.33830261 104.87808228 C-11.57233195 100.26306458 -11.35547042 96.05821226 -11.37304688 90.62817383 C-11.37961807 89.74979858 -11.38618927 88.87142334 -11.39295959 87.96643066 C-11.41268367 85.05720942 -11.42435273 82.14803977 -11.43432617 79.23876953 C-11.4384017 78.24504648 -11.44247723 77.25132343 -11.44667625 76.22748756 C-11.46753239 70.9686364 -11.48183655 65.70981131 -11.49121094 60.45092773 C-11.50227921 55.02016132 -11.53668538 49.58980421 -11.57638264 44.15918255 C-11.60252871 39.98213439 -11.61090096 35.80518409 -11.61449242 31.62806129 C-11.61936293 29.62620082 -11.63099012 27.62434485 -11.64953041 25.62256432 C-11.67388072 22.81941653 -11.67296441 20.01733252 -11.66601562 17.21411133 C-11.67882568 16.38947891 -11.69163574 15.5648465 -11.70483398 14.71522522 C-11.65712931 9.42799794 -10.71810257 6.41036426 -7.19604492 2.22705078 C-4.10548537 0.16667775 -3.4867833 -0.02094164 0 0 Z " fill="#FFFFFF" transform="translate(277.196044921875,404.77294921875)"/>
<path d="M0 0 C0.90720795 0.00141495 1.81441589 0.0028299 2.74911499 0.00428772 C5.65308905 0.00989529 8.55698665 0.02244907 11.4609375 0.03515625 C13.42708222 0.04017027 15.39322815 0.04473335 17.359375 0.04882812 C22.1849254 0.05986719 27.01041847 0.0771369 31.8359375 0.09765625 C31.89434814 1.19247314 31.95275879 2.28729004 32.01293945 3.4152832 C32.09563429 4.8680145 32.17857364 6.3207319 32.26171875 7.7734375 C32.29946411 8.49309692 32.33720947 9.21275635 32.37609863 9.95422363 C32.79306863 17.0752575 33.65416283 22.60419948 38.4609375 28.09765625 C42.6447719 30.57696553 45.98903596 31.40221918 50.8359375 31.09765625 C55.02946393 29.59431659 58.13949267 27.66081548 60.8359375 24.09765625 C62.79227449 18.74347081 63.06684009 13.45963954 63.38671875 7.80078125 C63.43074829 7.05908691 63.47477783 6.31739258 63.5201416 5.55322266 C63.62775134 3.73483775 63.73216548 1.91626421 63.8359375 0.09765625 C69.56505322 -0.00147659 75.29366589 -0.07393715 81.0234375 -0.12207031 C82.97111716 -0.14214281 84.91873687 -0.16940707 86.86621094 -0.20410156 C89.67137471 -0.25281227 92.47573937 -0.27535616 95.28125 -0.29296875 C96.14710724 -0.31361389 97.01296448 -0.33425903 97.90505981 -0.35552979 C103.5142336 -0.35759545 106.53061206 0.42930409 110.8359375 4.09765625 C112.5176885 7.46115826 112.00154598 11.26581012 112.01293945 14.96606445 C112.01951065 15.88491425 112.02608185 16.80376404 112.03285217 17.75045776 C112.05260855 20.79978511 112.06425268 23.84906317 112.07421875 26.8984375 C112.07829428 27.93845602 112.0823698 28.97847454 112.08656883 30.05000877 C112.10743908 35.55408913 112.12173694 41.05814447 112.13110352 46.56225586 C112.14217284 52.25209281 112.17657625 57.9415392 112.21627522 63.63123798 C112.24239936 68.00211828 112.2507916 72.37290492 112.25438499 76.74385643 C112.25926144 78.84143907 112.27090539 80.93901725 112.28942299 83.03652382 C112.31372587 85.97168704 112.31286555 88.90583179 112.3059082 91.84106445 C112.32512329 93.14186699 112.32512329 93.14186699 112.34472656 94.46894836 C112.30947433 98.54726606 112.15918263 100.58571915 109.93156433 104.11369324 C106.90500353 106.97898614 105.28449129 107.2243488 101.2252655 107.24482727 C99.7679174 107.25556023 99.7679174 107.25556023 98.28112793 107.26651001 C97.21148804 107.26919891 96.14184814 107.27188782 95.03979492 107.2746582 C93.91612015 107.2812294 92.79244537 107.2878006 91.63471985 107.29457092 C87.9036147 107.3143366 84.17254984 107.32597323 80.44140625 107.3359375 C79.16970392 107.34001303 77.89800159 107.34408855 76.58776283 107.34828758 C70.55267995 107.36700727 64.5176216 107.3815705 58.48251742 107.38989955 C51.51685171 107.39967164 44.5515038 107.42598982 37.58595008 107.46640044 C31.55246905 107.50020193 25.5191423 107.51204476 19.48555946 107.51610374 C16.91907914 107.52098413 14.35260257 107.53263906 11.78618431 107.55114174 C8.19728474 107.57540953 4.60921964 107.57459039 1.02026367 107.56762695 C-0.04330353 107.58043701 -1.10687073 107.59324707 -2.20266724 107.60644531 C-9.41019133 107.5553775 -9.41019133 107.5553775 -13.30058289 105.19328308 C-16.86810277 101.18133129 -16.33190699 97.35961343 -16.35693359 92.22924805 C-16.36511108 91.31039825 -16.37328857 90.39154846 -16.38171387 89.44485474 C-16.40658398 86.39553484 -16.42308748 83.34626153 -16.4375 80.296875 C-16.44282368 79.25685648 -16.44814735 78.21683796 -16.45363235 77.14530373 C-16.48037017 71.64122886 -16.4997436 66.13717672 -16.51416016 60.63305664 C-16.53081518 54.94313018 -16.57559863 49.25378213 -16.6265316 43.56407452 C-16.66015866 39.19319479 -16.6717326 34.82245316 -16.67738724 30.45145607 C-16.6841116 28.35385527 -16.69936425 26.25626394 -16.72327805 24.15878868 C-16.75483646 21.22345975 -16.75498032 18.28970153 -16.74755859 15.35424805 C-16.76396393 14.48704636 -16.78036926 13.61984467 -16.79727173 12.72636414 C-16.75166821 8.32236697 -16.5962061 6.63814064 -13.75259399 3.08161926 C-9.21742953 -0.39432784 -5.53558127 -0.03222858 0 0 Z " fill="#FFFFFF" transform="translate(208.1640625,276.90234375)"/>
</svg>
