<?xml version="1.0" encoding="UTF-8"?>
<svg version="1.1" xmlns="http://www.w3.org/2000/svg" width="512" height="512">
<path d="M0 0 C19.91004172 17.44411912 28.81235361 39.10050106 30.70263672 65.13208008 C31.46792661 76.96912645 31.35021356 88.83782026 31.37891769 100.69423676 C31.38976541 105.05069305 31.41004564 109.40707626 31.43203735 113.76348877 C31.49342485 126.13835328 31.54799783 138.51320818 31.58105469 150.88818359 C31.59946704 157.75171714 31.62846782 164.61512249 31.6690594 171.47856164 C31.68998446 175.09490895 31.7055662 178.71109601 31.70786667 182.32750702 C31.71043546 186.3588165 31.73600218 190.38967965 31.76318359 194.42089844 C31.76017746 195.59626663 31.75717133 196.77163483 31.7540741 197.98262024 C31.93220884 215.8467935 38.80183153 229.136599 49.9453125 242.66796875 C54.04465825 248.30098582 56.25846072 253.74535944 55.1796875 260.73828125 C52.64801088 265.88406118 49.94967251 269.27115739 45.6171875 273.11328125 C45.0919751 273.58241943 44.5667627 274.05155762 44.02563477 274.53491211 C39.75188409 278.32133338 35.33168283 281.92183715 30.8828125 285.5 C28.12152925 287.7864383 25.49430528 290.17436343 22.8671875 292.61328125 C18.60661818 296.52956214 14.21745477 300.21441513 9.6796875 303.80078125 C9.07987061 304.27821777 8.48005371 304.7556543 7.86206055 305.24755859 C3.28046543 308.82588947 0.1913425 309.9118581 -5.5703125 310.05078125 C-6.57578125 310.08816406 -7.58125 310.12554687 -8.6171875 310.1640625 C-16.60250077 309.10260013 -21.78239566 303.286788 -27.1953125 297.80078125 C-27.939021 297.0538501 -28.68272949 296.30691895 -29.44897461 295.53735352 C-35.42061213 289.41435361 -40.3650897 283.03672315 -44.8203125 275.73828125 C-47.73731017 277.04308881 -49.61971197 278.37899791 -51.7578125 280.73828125 C-73.80217427 303.29857489 -103.60959242 312.52811613 -134.60742188 312.97973633 C-162.17892339 313.06657961 -186.5460719 306.18036153 -206.96484375 286.69140625 C-225.04160714 267.72328372 -231.37789332 241.18214576 -231.17407227 215.63891602 C-230.40721327 185.9661123 -219.68220059 159.17589356 -197.9765625 138.5546875 C-188.47311905 129.87750259 -177.42989687 124.04131793 -165.8203125 118.73828125 C-164.66273438 118.20332031 -163.50515625 117.66835937 -162.3125 117.1171875 C-132.10435352 104.10808639 -94.52386675 99.39458148 -61.8203125 99.73828125 C-61.90256963 95.82084233 -62.01527235 91.90480773 -62.1328125 87.98828125 C-62.15537109 86.89644531 -62.17792969 85.80460937 -62.20117188 84.6796875 C-62.51280253 75.10412741 -63.22915247 64.22013859 -69.8203125 56.73828125 C-78.42394697 48.97776463 -87.28109 46.52434433 -98.8203125 46.73828125 C-109.4049782 48.2072807 -120.89840138 52.51682187 -127.69921875 61.11328125 C-131.44104603 66.94740638 -133.90092329 72.45571672 -135.9375 79.0703125 C-137.79789605 84.69265985 -140.52671352 88.32824272 -145.86021423 91.06315613 C-152.56963128 93.37410966 -160.98566291 91.39123399 -167.84765625 90.53125 C-168.87661514 90.40518875 -169.90557404 90.2791275 -170.9657135 90.14924622 C-173.13008035 89.88218644 -175.29409495 89.61225771 -177.45776367 89.33959961 C-180.74343938 88.92758361 -184.03071176 88.53069897 -187.31835938 88.13476562 C-189.43240616 87.87201333 -191.54634253 87.60837073 -193.66015625 87.34375 C-195.11529884 87.17011177 -195.11529884 87.17011177 -196.59983826 86.9929657 C-214.42683612 84.69760561 -214.42683612 84.69760561 -219.8203125 77.73828125 C-224.68945003 63.13086866 -216.37748019 45.83371865 -209.92333984 32.83056641 C-196.00955776 6.43811124 -170.34255892 -10.78695306 -142.3828125 -19.44921875 C-96.67498933 -32.67916928 -38.54008761 -30.90680156 0 0 Z M-122.8203125 173.73828125 C-131.79765478 183.39174136 -135.21918651 194.63620277 -135.1328125 207.61328125 C-135.12717285 208.49733643 -135.1215332 209.3813916 -135.11572266 210.29223633 C-134.9251107 220.5163974 -132.74526943 228.91785575 -125.8203125 236.73828125 C-117.84766959 243.32678477 -111.0450212 244.60478199 -100.8203125 243.73828125 C-92.84354841 241.96329085 -86.79440748 238.21073467 -80.8203125 232.73828125 C-80.22734375 232.22265625 -79.634375 231.70703125 -79.0234375 231.17578125 C-65.14276595 217.42245531 -61.78728828 196.91954547 -61.6386261 178.35813904 C-61.60784323 171.15033862 -61.69170564 163.9448822 -61.8203125 156.73828125 C-83.79445972 156.41586373 -105.73866573 158.3937511 -122.8203125 173.73828125 Z " fill="#FFFFFF" transform="translate(335.8203125,51.26171875)"/>
<path d="M0 0 C1.49406127 0.80337234 2.98074012 1.62058016 4.4609375 2.44921875 C5.27578613 2.89144775 6.09063477 3.33367676 6.93017578 3.78930664 C9.57219798 5.22642859 12.20408703 6.68106618 14.8359375 8.13671875 C16.63213496 9.11972863 18.42901519 10.10149191 20.2265625 11.08203125 C21.12689209 11.5733252 22.02722168 12.06461914 22.95483398 12.57080078 C24.31910522 13.31499268 24.31910522 13.31499268 25.7109375 14.07421875 C26.63656494 14.57937012 27.56219238 15.08452148 28.51586914 15.60498047 C31.28835726 17.11715907 34.06207947 18.62705486 36.8359375 20.13671875 C37.67817871 20.59691406 38.52041992 21.05710937 39.38818359 21.53125 C62.63760484 34.18374821 86.7121437 44.79547997 111.8359375 53.13671875 C112.69413086 53.42627441 113.55232422 53.71583008 114.43652344 54.01416016 C187.61515481 78.44058348 269.24019622 64.18916699 339.30078125 35.765625 C340.32945312 35.34852768 340.32945312 35.34852768 341.37890625 34.92300415 C344.64660114 33.59104423 347.90240834 32.23664009 351.14501953 30.84472656 C363.80062273 25.54145973 363.80062273 25.54145973 371.04296875 27.8359375 C374.80826241 30.153746 377.26287236 31.97272278 378.8359375 36.13671875 C379.53041434 40.82443744 379.51075933 43.94375786 377.13671875 48.140625 C346.76579991 87.68985208 269.96476419 105.83716025 223.5859375 111.94921875 C146.46382126 121.38710189 78.93251845 94.50028202 18.71484375 47.43359375 C14.95793068 44.43621941 11.22531933 41.41193031 7.51953125 38.3515625 C5.70674358 36.85541896 3.88619193 35.3686404 2.05859375 33.890625 C-4.19429869 28.83043014 -10.27944571 23.62273405 -16.1640625 18.13671875 C-16.89882813 17.47027344 -17.63359375 16.80382812 -18.390625 16.1171875 C-21.04638006 13.15139936 -21.34170446 9.97822619 -21.1640625 6.13671875 C-19.90573175 2.21368759 -18.81663104 0.60717514 -15.4765625 -1.80078125 C-9.90419158 -3.58814551 -5.12439507 -2.53137096 0 0 Z " fill="#FFFFFF" transform="translate(51.1640625,367.86328125)"/>
<path d="M0 0 C6.27993706 9.1344539 4.34432772 20.88207739 2.47827148 31.19189453 C-1.59978553 51.78664419 -10.39536235 73.51235535 -27.25 86.97265625 C-30.59230327 88.93476732 -33.11104164 89.0617295 -37 89 C-40.2548109 87.85478876 -42.23766484 86.97024475 -44.375 84.25 C-46.00074606 78.39731419 -44.70855118 73.17542255 -42.69921875 67.625 C-42.46217728 66.93801025 -42.2251358 66.25102051 -41.98091125 65.54321289 C-41.22656938 63.35845503 -40.45874039 61.17884492 -39.6875 59 C-35.94004867 48.40044384 -32.88795849 38.10349906 -31 27 C-43.99724519 25.0848589 -56.22006189 26.19846558 -69.16748047 27.93261719 C-83.89615442 29.87978997 -83.89615442 29.87978997 -89.4375 27.5625 C-92.55346674 24.44653326 -93.05249097 22.55437076 -93.21484375 18.234375 C-92.76567271 13.56299614 -90.40450248 11.1823213 -86.92578125 8.25390625 C-66.79069477 -6.82309087 -21.91590945 -16.14856486 0 0 Z " fill="#FFFFFF" transform="translate(478,355)"/>
</svg>
