<?xml version="1.0" encoding="UTF-8"?>
<svg version="1.1" xmlns="http://www.w3.org/2000/svg" width="512" height="512">
<path d="M0 0 C0 108.9 0 217.8 0 330 C-10.11490962 331.12387885 -10.11490962 331.12387885 -13.56542969 331.23364258 C-14.34766907 331.26087402 -15.12990845 331.28810547 -15.93585205 331.31616211 C-16.75623962 331.34202393 -17.5766272 331.36788574 -18.421875 331.39453125 C-20.25198525 331.46045867 -22.08206237 331.52731058 -23.91210938 331.5949707 C-24.8636792 331.62982574 -25.81524902 331.66468079 -26.7956543 331.70059204 C-79.65409834 333.70282238 -133.728869 339.74102213 -182.20947266 362.27441406 C-184 363 -184 363 -186 363 C-186 252.12 -186 141.24 -186 27 C-122.85583294 10.38311393 -64.98028768 0 0 0 Z M-159 97 C-160.80276847 102.40830541 -160.27000945 108.21525849 -160.3125 113.875 C-160.34150391 115.15503906 -160.37050781 116.43507813 -160.40039062 117.75390625 C-160.40876953 118.98753906 -160.41714844 120.22117187 -160.42578125 121.4921875 C-160.44036377 122.61995605 -160.45494629 123.74772461 -160.4699707 124.90966797 C-159.89805429 128.6703526 -158.62603081 130.30216963 -156 133 C-151.71204672 135.14397664 -146.06467078 134.30912101 -141.30639648 134.35009766 C-139.89900148 134.36663807 -138.49168984 134.39390393 -137.0847168 134.43212891 C-135.04952705 134.48710174 -133.01630241 134.50879877 -130.98046875 134.5234375 C-129.76254639 134.54325684 -128.54462402 134.56307617 -127.28979492 134.58349609 C-122.97098355 133.81748799 -121.55228113 132.53509011 -119 129 C-118.25195694 125.59932353 -118.25195694 125.59932353 -118.37109375 121.87109375 C-118.36868179 121.19957779 -118.36626984 120.52806183 -118.36378479 119.8361969 C-118.36476009 118.42337103 -118.37807859 117.01050544 -118.40307617 115.59790039 C-118.43746661 113.43959566 -118.42370668 111.28537257 -118.40429688 109.12695312 C-118.41119419 107.74998264 -118.42086557 106.37302268 -118.43359375 104.99609375 C-118.44447021 103.75013428 -118.45534668 102.5041748 -118.46655273 101.22045898 C-119.08976329 97.45809263 -120.03307381 96.30760926 -123 94 C-127.20180722 91.89909639 -132.6441181 92.73212519 -137.26635742 92.70483398 C-139.29480029 92.68764994 -141.32159994 92.64376625 -143.34960938 92.59960938 C-145.27450195 92.58704102 -145.27450195 92.58704102 -147.23828125 92.57421875 C-148.41430908 92.55963623 -149.59033691 92.54505371 -150.80200195 92.5300293 C-154.6562161 93.09643606 -156.28209155 94.25542411 -159 97 Z M-97 97 C-97.75 100.5 -97.75 100.5 -97 104 C-94.82033146 106.9302742 -93.63770416 107.8919458 -90.00231934 108.50793457 C-88.8330188 108.51111694 -87.66371826 108.51429932 -86.45898438 108.51757812 C-85.48751213 108.52809204 -85.48751213 108.52809204 -84.49641418 108.53881836 C-82.36175288 108.55638226 -80.22842409 108.5447832 -78.09375 108.53125 C-76.60689032 108.53394542 -75.12003236 108.53782827 -73.63317871 108.54284668 C-70.51944164 108.54873948 -67.40616406 108.54018647 -64.29248047 108.52148438 C-60.30408912 108.49869415 -56.31677441 108.51181851 -52.32842255 108.53577423 C-49.25884917 108.55023858 -46.18953045 108.54562348 -43.11994934 108.53526306 C-41.64956026 108.5325975 -40.17914796 108.53585961 -38.70878601 108.54518127 C-36.65224099 108.55535835 -34.59743157 108.53983402 -32.54101562 108.51757812 C-30.78706482 108.51280457 -30.78706482 108.51280457 -28.99768066 108.50793457 C-25.37320963 107.89379506 -24.19313383 106.90096806 -22 104 C-21.24984805 101.04308291 -21.24984805 101.04308291 -22 98 C-24.52589902 94.85765101 -26.03493617 93.19973212 -30.03527832 92.37181091 C-31.16381226 92.37084915 -32.29234619 92.36988739 -33.45507812 92.36889648 C-34.73991089 92.35636337 -36.02474365 92.34383026 -37.34851074 92.33091736 C-38.7427675 92.34318607 -40.13701453 92.35660615 -41.53125 92.37109375 C-42.96944356 92.37026451 -44.40763701 92.36780303 -45.8458252 92.36378479 C-48.85535315 92.3609307 -51.86413527 92.37558817 -54.87353516 92.40307617 C-58.72396688 92.43715979 -62.57306554 92.4311379 -66.4235611 92.4124136 C-69.39197833 92.40182597 -72.36008735 92.41079711 -75.32847595 92.42579842 C-76.74778833 92.43096785 -78.16713306 92.43051346 -79.58644104 92.42425346 C-81.57264383 92.41878108 -83.55886241 92.44207336 -85.54492188 92.46655273 C-86.67345581 92.47275131 -87.80198975 92.47894989 -88.96472168 92.4853363 C-92.69330125 93.11755659 -94.37655091 94.31046893 -97 97 Z M-97 123 C-97.83333333 126.5 -97.83333333 126.5 -97 130 C-94.37326611 132.68919296 -92.69726277 133.8833175 -88.96472168 134.50793457 C-87.83618774 134.51111694 -86.70765381 134.51429932 -85.54492188 134.51757812 C-83.61767273 134.53649109 -83.61767273 134.53649109 -81.65148926 134.55578613 C-80.25723724 134.54862608 -78.86299024 134.54042204 -77.46875 134.53125 C-76.0305556 134.53394665 -74.59236298 134.53783051 -73.1541748 134.54284668 C-70.14476101 134.54873375 -67.13582317 134.5402051 -64.12646484 134.52148438 C-60.2760708 134.49869436 -56.42679206 134.51182182 -52.5764389 134.53577423 C-49.60804904 134.55025418 -46.63992199 134.54561636 -43.67152405 134.53526306 C-42.252201 134.5326018 -40.8328538 134.53584441 -39.41355896 134.54518127 C-37.42740356 134.55538099 -35.44116408 134.53706848 -33.45507812 134.51757812 C-31.76227722 134.51280457 -31.76227722 134.51280457 -30.03527832 134.50793457 C-26.31591806 133.88552323 -24.63646102 132.65575036 -22 130 C-21.16650049 127.04340127 -21.16650049 127.04340127 -22 124 C-24.52851497 120.86015024 -26.03508793 119.19970071 -30.03527832 118.37181091 C-31.16381226 118.37084915 -32.29234619 118.36988739 -33.45507812 118.36889648 C-34.73991089 118.35636337 -36.02474365 118.34383026 -37.34851074 118.33091736 C-38.7427675 118.34318607 -40.13701453 118.35660615 -41.53125 118.37109375 C-42.96944356 118.37026451 -44.40763701 118.36780303 -45.8458252 118.36378479 C-48.85535315 118.3609307 -51.86413527 118.37558817 -54.87353516 118.40307617 C-58.72396688 118.43715979 -62.57306554 118.4311379 -66.4235611 118.4124136 C-69.39197833 118.40182597 -72.36008735 118.41079711 -75.32847595 118.42579842 C-76.74778833 118.43096785 -78.16713306 118.43051346 -79.58644104 118.42425346 C-81.57264383 118.41878108 -83.55886241 118.44207336 -85.54492188 118.46655273 C-86.67345581 118.47275131 -87.80198975 118.47894989 -88.96472168 118.4853363 C-92.69346827 119.11758492 -94.37416017 120.31294186 -97 123 Z M-158 167 C-160.38046298 170.28636637 -160.25766732 173.40070605 -160.265625 177.375 C-160.26820313 178.60734375 -160.27078125 179.8396875 -160.2734375 181.109375 C-160.26570313 182.39328125 -160.25796875 183.6771875 -160.25 185 C-160.25773437 186.28390625 -160.26546875 187.5678125 -160.2734375 188.890625 C-160.27085937 190.12296875 -160.26828125 191.3553125 -160.265625 192.625 C-160.26336914 193.75164062 -160.26111328 194.87828125 -160.25878906 196.0390625 C-160.00290516 198.96676054 -159.63638278 200.58705191 -158 203 C-153.14604401 206.23597066 -147.48512272 205.41074846 -141.80371094 205.42553711 C-139.6388192 205.43742412 -137.47678929 205.48659944 -135.3125 205.53710938 C-133.92970136 205.54657566 -132.54688527 205.55380972 -131.1640625 205.55859375 C-129.91061035 205.57204834 -128.6571582 205.58550293 -127.36572266 205.59936523 C-123.00258068 204.82238035 -121.57633159 203.57505396 -119 200 C-118.22044303 196.61790109 -118.22044303 196.61790109 -118.30078125 192.90625 C-118.29362595 192.23710571 -118.28647064 191.56796143 -118.27909851 190.87854004 C-118.27134689 189.46998418 -118.27628022 188.06130745 -118.29321289 186.65283203 C-118.3124595 184.50452033 -118.27302636 182.36267093 -118.22851562 180.21484375 C-117.88888157 172.33807815 -117.88888157 172.33807815 -121.1640625 165.5625 C-126.38574394 162.51800472 -133.24956843 163.36943901 -139.0625 163.5 C-140.32900391 163.49742187 -141.59550781 163.49484375 -142.90039062 163.4921875 C-150.98158434 163.4146251 -150.98158434 163.4146251 -158 167 Z M-97 168 C-97.50973613 172.92028692 -97.50973613 172.92028692 -95.38928223 177.19812012 C-92.25347265 179.56299444 -90.36576559 179.50694541 -86.45898438 179.51757812 C-85.48751213 179.52809204 -85.48751213 179.52809204 -84.49641418 179.53881836 C-82.36175288 179.55638226 -80.22842409 179.5447832 -78.09375 179.53125 C-76.60689032 179.53394542 -75.12003236 179.53782827 -73.63317871 179.54284668 C-70.51944164 179.54873948 -67.40616406 179.54018647 -64.29248047 179.52148438 C-60.30408912 179.49869415 -56.31677441 179.51181851 -52.32842255 179.53577423 C-49.25884917 179.55023858 -46.18953045 179.54562348 -43.11994934 179.53526306 C-41.64956026 179.5325975 -40.17914796 179.53585961 -38.70878601 179.54518127 C-36.65224099 179.55535835 -34.59743157 179.53983402 -32.54101562 179.51757812 C-30.78706482 179.51280457 -30.78706482 179.51280457 -28.99768066 179.50793457 C-25.37271109 178.89371059 -24.18817606 177.90664723 -22 175 C-21.33333333 172 -21.33333333 172 -22 169 C-23.8670991 166.69724444 -25.35647741 165.32176129 -28 164 C-29.97481685 163.89327007 -31.95324744 163.8511468 -33.9309082 163.83886719 C-35.17592606 163.82925964 -36.42094391 163.8196521 -37.70368958 163.80975342 C-39.06938494 163.8049051 -40.43508243 163.80062636 -41.80078125 163.796875 C-43.19842023 163.79112276 -44.59605919 163.78536504 -45.99369812 163.77960205 C-48.92671069 163.76909099 -51.85969585 163.76324932 -54.79272461 163.75976562 C-58.54545153 163.7542869 -62.29781451 163.73027307 -66.05042744 163.70179367 C-68.9389704 163.68313876 -71.82742629 163.67796014 -74.7160244 163.67642975 C-76.09908216 163.67340806 -77.48213857 163.66539582 -78.8651371 163.65224457 C-80.80365408 163.63512982 -82.74232122 163.63891698 -84.6809082 163.64355469 C-85.78296097 163.63990906 -86.88501373 163.63626343 -88.02046204 163.63250732 C-91.68741237 164.08478463 -94.36887833 165.36887833 -97 168 Z M-97 194 C-97.75 197.5 -97.75 197.5 -97 201 C-94.82033146 203.9302742 -93.63770416 204.8919458 -90.00231934 205.50793457 C-88.8330188 205.51111694 -87.66371826 205.51429932 -86.45898438 205.51757812 C-85.48751213 205.52809204 -85.48751213 205.52809204 -84.49641418 205.53881836 C-82.36175288 205.55638226 -80.22842409 205.5447832 -78.09375 205.53125 C-76.60689032 205.53394542 -75.12003236 205.53782827 -73.63317871 205.54284668 C-70.51944164 205.54873948 -67.40616406 205.54018647 -64.29248047 205.52148438 C-60.30408912 205.49869415 -56.31677441 205.51181851 -52.32842255 205.53577423 C-49.25884917 205.55023858 -46.18953045 205.54562348 -43.11994934 205.53526306 C-41.64956026 205.5325975 -40.17914796 205.53585961 -38.70878601 205.54518127 C-36.65224099 205.55535835 -34.59743157 205.53983402 -32.54101562 205.51757812 C-30.78706482 205.51280457 -30.78706482 205.51280457 -28.99768066 205.50793457 C-25.37337818 204.89382362 -24.18474401 203.90909235 -22 201 C-21.49652678 197.54761218 -21.58443846 195.73217986 -23.3125 192.6875 C-26.47647791 189.52352209 -29.89681236 189.86042033 -34.13623047 189.82299805 C-35.40119354 189.81016281 -36.66615662 189.79732758 -37.9694519 189.78410339 C-39.35202645 189.77593639 -40.73460543 189.76849258 -42.1171875 189.76171875 C-43.16282553 189.75560546 -43.16282553 189.75560546 -44.22958755 189.74936867 C-47.91819205 189.72852971 -51.60675957 189.71421776 -55.29541016 189.70483398 C-59.10089963 189.69376443 -62.90580521 189.65935297 -66.71108818 189.61966228 C-69.64166335 189.59349664 -72.57209921 189.58514234 -75.50278091 189.58155251 C-76.90539628 189.57668758 -78.30800546 189.56507605 -79.71050644 189.54651451 C-81.67518743 189.5221256 -83.64015331 189.52550764 -85.60498047 189.5300293 C-86.72178192 189.52416306 -87.83858337 189.51829681 -88.98922729 189.51225281 C-92.71648133 190.11607045 -94.38174653 191.31564943 -97 194 Z M-158 238 C-161.48810983 243.14775132 -160.32747862 249.99098866 -160.3125 255.9375 C-160.32861328 257.21302734 -160.34472656 258.48855469 -160.36132812 259.80273438 C-160.36197266 261.03185547 -160.36261719 262.26097656 -160.36328125 263.52734375 C-160.36626221 264.64874756 -160.36924316 265.77015137 -160.37231445 266.92553711 C-159.95645956 270.35954407 -159.04968689 272.23949681 -157 275 C-152.49913788 277.25043106 -146.40110694 276.30987324 -141.39697266 276.35009766 C-139.88574834 276.36666169 -138.37460252 276.39395843 -136.86376953 276.43212891 C-134.68220507 276.48694208 -132.50247305 276.50877358 -130.3203125 276.5234375 C-129.01336426 276.54325684 -127.70641602 276.56307617 -126.35986328 276.58349609 C-122.90232524 276.28090975 -122.90232524 276.28090975 -120.57568359 273.89697266 C-118.67098528 270.39509007 -118.48371508 268.10143567 -118.46875 264.125 C-118.46359375 262.81015625 -118.4584375 261.4953125 -118.453125 260.140625 C-118.46150391 259.46064453 -118.46988281 258.78066406 -118.47851562 258.08007812 C-118.49994504 256.00532106 -118.47868941 253.93402539 -118.453125 251.859375 C-118.46085937 249.88710938 -118.46085937 249.88710938 -118.46875 247.875 C-118.47326172 246.67617188 -118.47777344 245.47734375 -118.48242188 244.2421875 C-119.10179191 240.36236014 -120.18617068 238.70722609 -123 236 C-127.76940456 234.00579842 -133.72858083 234.77428141 -138.8125 234.75 C-139.88048828 234.729375 -140.94847656 234.70875 -142.04882812 234.6875 C-148.10782952 234.65752349 -152.75355736 234.82207295 -158 238 Z M-96 238 C-97.42041821 240.84083641 -97.31452272 242.85477278 -97 246 C-94.76793569 248.84780619 -93.45007001 249.84997666 -90 251 C-88.05369626 251.10368871 -86.10405255 251.14856511 -84.1550293 251.16113281 C-82.95335617 251.17074036 -81.75168304 251.1803479 -80.51359558 251.19024658 C-79.21360123 251.19449646 -77.91360687 251.19874634 -76.57421875 251.203125 C-75.22524515 251.20887993 -73.87627155 251.21463762 -72.52729797 251.22039795 C-69.69861471 251.23089881 -66.86995978 251.23674722 -64.04125977 251.24023438 C-60.42653739 251.24571246 -56.81219296 251.26972915 -53.19758892 251.29820633 C-50.4102318 251.31688379 -47.62296471 251.32204104 -44.83555031 251.32357025 C-42.85807046 251.32804834 -40.88063891 251.34667094 -38.90324402 251.36553955 C-37.08654961 251.3610379 -37.08654961 251.3610379 -35.2331543 251.35644531 C-33.64122505 251.36191376 -33.64122505 251.36191376 -32.01713562 251.36749268 C-28.46561774 250.93491126 -26.05642342 249.83267108 -23 248 C-21.57958179 245.15916359 -21.68547728 243.14522722 -22 240 C-24.38425127 236.84938225 -26.18337577 235.69370336 -30 235 C-31.95369843 234.89906802 -33.9104376 234.85172423 -35.86669922 234.83886719 C-37.63906448 234.82445587 -37.63906448 234.82445587 -39.44723511 234.80975342 C-40.7201944 234.80550354 -41.99315369 234.80125366 -43.3046875 234.796875 C-45.2724968 234.78832489 -45.2724968 234.78832489 -47.28005981 234.77960205 C-50.05568833 234.76911272 -52.83128806 234.76325643 -55.60693359 234.75976562 C-59.15324885 234.75428257 -62.69917985 234.73025037 -66.24537468 234.70179367 C-69.64013801 234.67862616 -73.03484923 234.67671529 -76.4296875 234.671875 C-77.69859833 234.6595282 -78.96750916 234.6471814 -80.27487183 234.63446045 C-82.05669357 234.6389621 -82.05669357 234.6389621 -83.87451172 234.64355469 C-84.91501678 234.63990906 -85.95552185 234.63626343 -87.02755737 234.63250732 C-90.55430522 235.06853054 -92.96229906 236.18312916 -96 238 Z M-96 264 C-97.42041821 266.84083641 -97.31452272 268.85477278 -97 272 C-94.82517958 274.92047314 -93.62767744 275.89364475 -90.00231934 276.50793457 C-88.8330188 276.51111694 -87.66371826 276.51429932 -86.45898438 276.51757812 C-85.48751213 276.52809204 -85.48751213 276.52809204 -84.49641418 276.53881836 C-82.36175288 276.55638226 -80.22842409 276.5447832 -78.09375 276.53125 C-76.60689032 276.53394542 -75.12003236 276.53782827 -73.63317871 276.54284668 C-70.51944164 276.54873948 -67.40616406 276.54018647 -64.29248047 276.52148438 C-60.30408912 276.49869415 -56.31677441 276.51181851 -52.32842255 276.53577423 C-49.25884917 276.55023858 -46.18953045 276.54562348 -43.11994934 276.53526306 C-41.64956026 276.5325975 -40.17914796 276.53585961 -38.70878601 276.54518127 C-36.65224099 276.55535835 -34.59743157 276.53983402 -32.54101562 276.51757812 C-30.78706482 276.51280457 -30.78706482 276.51280457 -28.99768066 276.50793457 C-25.37271109 275.89371059 -24.18817606 274.90664723 -22 272 C-21.33333333 269 -21.33333333 269 -22 266 C-23.8670991 263.69724444 -25.35647741 262.32176129 -28 261 C-29.97481685 260.89327007 -31.95324744 260.8511468 -33.9309082 260.83886719 C-35.17592606 260.82925964 -36.42094391 260.8196521 -37.70368958 260.80975342 C-39.06938494 260.8049051 -40.43508243 260.80062636 -41.80078125 260.796875 C-43.19842023 260.79112276 -44.59605919 260.78536504 -45.99369812 260.77960205 C-48.92671069 260.76909099 -51.85969585 260.76324932 -54.79272461 260.75976562 C-58.54545153 260.7542869 -62.29781451 260.73027307 -66.05042744 260.70179367 C-68.9389704 260.68313876 -71.82742629 260.67796014 -74.7160244 260.67642975 C-76.09908216 260.67340806 -77.48213857 260.66539582 -78.8651371 260.65224457 C-80.80365408 260.63512982 -82.74232122 260.63891698 -84.6809082 260.64355469 C-85.78296097 260.63990906 -86.88501373 260.63626343 -88.02046204 260.63250732 C-91.3991362 261.04922898 -93.27843517 261.98763642 -96 264 Z " fill="#FFFFFF" transform="translate(450,57)"/>
<path d="M0 0 C12.74229146 0 25.3569645 0.06483027 38.0625 0.75 C39.26649445 0.81385391 39.26649445 0.81385391 40.49481201 0.8789978 C89.30030988 3.53195145 139.52854294 11.50951431 186 27 C186 137.88 186 248.76 186 363 C182.11286739 361.70428913 178.38688167 360.39449077 174.60546875 358.86328125 C124.84353358 338.99764358 71.97586489 332.74890172 18.72753906 331.34106445 C17.58768555 331.30972412 16.44783203 331.27838379 15.2734375 331.24609375 C14.27747559 331.22216553 13.28151367 331.1982373 12.25537109 331.17358398 C8.1573813 330.9550696 4.07871151 330.45319017 0 330 C0 221.1 0 112.2 0 0 Z M78.125 111.375 C77.01020264 112.01622803 75.89540527 112.65745605 74.74682617 113.31811523 C71.48888418 115.19709138 68.24315851 117.09565056 65 119 C63.45214177 119.90028801 61.90400709 120.80010106 60.35546875 121.69921875 C57.6803285 123.25824088 55.01484551 124.83222112 52.35546875 126.41796875 C48.97915357 128.42967988 45.58076567 130.40049861 42.17578125 132.36328125 C41.17313232 132.9452124 40.1704834 133.52714355 39.13745117 134.12670898 C37.16864443 135.26931577 35.1962799 136.40581985 33.2199707 137.53540039 C32.3249585 138.05739014 31.42994629 138.57937988 30.5078125 139.1171875 C29.71004395 139.57722168 28.91227539 140.03725586 28.09033203 140.51123047 C25.68979825 142.22093089 24.49823035 143.44724887 23 146 C22.70011222 148.59168334 22.56933979 150.94387464 22.58007812 153.53491211 C22.57160858 154.28824326 22.56313904 155.0415744 22.55441284 155.81773376 C22.53104104 158.30444283 22.53002067 160.79053323 22.53125 163.27734375 C22.52414858 165.00843045 22.51644961 166.7395148 22.50817871 168.47059631 C22.49473357 172.09789575 22.49316528 175.72497754 22.49902344 179.35229492 C22.50492009 183.9975391 22.47433029 188.64173831 22.43390656 193.28678036 C22.40803995 196.86163445 22.40515116 200.43623657 22.40879822 204.01117134 C22.40710603 205.72358388 22.39745392 207.43600793 22.37965393 209.14832878 C22.35748289 211.54482565 22.36715412 213.9392029 22.38476562 216.33569336 C22.37150238 217.04079041 22.35823914 217.74588745 22.34457397 218.47235107 C22.40993679 222.30588319 22.89438255 223.87214938 25.36811829 226.86662292 C28.04996223 229.04049888 30.68658104 230.77666997 33.69921875 232.4609375 C35.3711731 233.4048938 35.3711731 233.4048938 37.0769043 234.36791992 C38.2803991 235.03701335 39.4839319 235.70603842 40.6875 236.375 C41.93256661 237.07500526 43.17710685 237.7759475 44.42114258 238.4777832 C46.34443055 239.56264021 48.26805129 240.64685549 50.19340515 241.7280426 C56.89152789 245.490314 63.54044865 249.33593754 70.1875 253.1875 C73.22038093 254.94407347 76.25353598 256.69922618 79.29833984 258.43505859 C81.0466824 259.4477891 82.77797615 260.49079862 84.48681641 261.56884766 C87.92922332 263.68049081 90.25246887 264.94905193 94.32421875 265.2265625 C99.93079208 263.35571869 104.75993471 260.40917858 109.8125 257.375 C111.53865853 256.3579401 113.26482858 255.34089916 114.9916687 254.32499695 C116.78760611 253.26669265 118.580655 252.20361043 120.37353516 251.14013672 C123.9458432 249.02603133 127.53763126 246.94702353 131.13671875 244.87890625 C131.71557327 244.54624756 132.2944278 244.21358887 132.89082336 243.87084961 C134.59370688 242.89276103 136.29685112 241.91512642 138 240.9375 C141.06096257 239.17788514 144.11999894 237.41546769 147.171875 235.64013672 C149.04998839 234.55094769 150.93543514 233.47430225 152.828125 232.41064453 C153.70984375 231.9051709 154.5915625 231.39969727 155.5 230.87890625 C156.2734375 230.44263916 157.046875 230.00637207 157.84375 229.55688477 C160.55321752 227.60055841 162.14881314 225.80055776 164 223 C164.38205758 220.367947 164.53875849 218.15953477 164.50170898 215.53515625 C164.50711197 214.80118622 164.51251495 214.06721619 164.51808167 213.31100464 C164.53054853 210.89442119 164.51409276 208.47903396 164.49609375 206.0625 C164.49624879 204.37768491 164.49773854 202.69286947 164.50050354 201.00805664 C164.50188661 197.48079621 164.48934515 193.95394286 164.46655273 190.42675781 C164.43816819 185.9106647 164.44090656 181.39524776 164.45364285 176.87910461 C164.46060545 173.40118661 164.45280413 169.92342425 164.44038582 166.44552612 C164.43587696 164.78059486 164.43552957 163.11564686 164.43945122 161.45071411 C164.44236921 159.12174358 164.42582952 156.79369733 164.40405273 154.46484375 C164.40855438 153.78001923 164.41305603 153.0951947 164.41769409 152.38961792 C164.35118117 148.09769154 163.58524904 145.43258115 161 142 C157.76718248 139.48795007 154.18534542 137.57601967 150.625 135.5625 C149.67882812 134.99595703 148.73265625 134.42941406 147.7578125 133.84570312 C146.84 133.32041016 145.9221875 132.79511719 144.9765625 132.25390625 C144.14205566 131.77252197 143.30754883 131.2911377 142.44775391 130.79516602 C140.00682243 129.75460673 140.00682243 129.75460673 137.52392578 130.67749023 C136.69103027 131.11391846 135.85813477 131.55034668 135 132 C134.14438477 132.44666016 133.28876953 132.89332031 132.40722656 133.35351562 C131.49424805 133.86591797 130.58126953 134.37832031 129.640625 134.90625 C128.61638428 135.47988281 127.59214355 136.05351562 126.53686523 136.64453125 C125.45219971 137.25683594 124.36753418 137.86914062 123.25 138.5 C122.124729 139.13292969 120.99945801 139.76585937 119.84008789 140.41796875 C109.57861367 146.16081226 109.57861367 146.16081226 99.49902344 152.21386719 C95.33934558 154.78755378 91.18352263 156.7981094 86.66015625 158.671875 C76.84929037 162.946515 76.84929037 162.946515 69 170 C65.86760409 179.62130696 66.86845716 190.08944322 68 200 C67.01 200.33 66.02 200.66 65 201 C62.36913454 199.64790527 59.93217405 198.25699692 57.4375 196.6875 C56.75236328 196.27048828 56.06722656 195.85347656 55.36132812 195.42382812 C52.63950113 193.74906313 50.26909512 192.26909512 48 190 C45.89112485 179.79270548 45.12682008 168.09470482 48 158 C52.92949452 151.3122696 61.03034783 148.5662888 68.49658203 145.52050781 C74.39331356 142.96128524 79.80339553 139.60600417 85.3125 136.3125 C87.47039259 135.0637883 89.63051692 133.8189245 91.79296875 132.578125 C100.20301633 127.73205563 108.60195013 122.86682167 117 118 C113.56025286 114.12472932 109.64175127 111.77530958 105.1875 109.25 C104.50107422 108.83878906 103.81464844 108.42757812 103.10742188 108.00390625 C93.26816384 102.40009042 87.25836896 105.99476824 78.125 111.375 Z " fill="#FFFFFF" transform="translate(62,57)"/>
<path d="M0 0 C10.23 0 20.46 0 31 0 C31.00586624 3.88734924 31.01173248 7.77469849 31.01777649 11.77984619 C31.07291977 47.40474395 31.1428568 83.02958797 31.22898628 118.65442474 C31.24025482 123.32088576 31.25139321 127.98734707 31.26245117 132.65380859 C31.26465486 133.58284055 31.26685854 134.5118725 31.269129 135.46905693 C31.30452825 150.5236528 31.32937753 165.57824861 31.35034702 180.6328707 C31.37208817 196.07341285 31.40512248 211.51390085 31.44870156 226.95439696 C31.47524739 236.48661417 31.49292115 246.01876388 31.49934604 255.55101624 C31.50459098 262.08232086 31.52077772 268.61354046 31.54566566 275.14479956 C31.55971146 278.91638287 31.56884005 282.68781386 31.56500816 286.45942497 C31.56098416 290.54385253 31.57995322 294.62784553 31.60127258 298.71221924 C31.59642501 299.91065279 31.59157743 301.10908635 31.58658296 302.34383607 C31.5960395 303.43513629 31.60549604 304.52643651 31.61523914 305.65080643 C31.61713775 306.59403173 31.61903635 307.53725703 31.62099248 308.50906491 C32.07333832 311.48199832 32.91202492 312.85789918 35 315 C38.05211802 315.68262586 38.05211802 315.68262586 41.75 315.6875 C42.47533936 315.71529541 43.20067871 315.74309082 43.94799805 315.77172852 C46.63170324 315.86880158 49.31533793 315.93457435 52 316 C56.93768801 316.13967194 61.87512887 316.28706138 66.8125 316.4375 C67.47931793 316.45778259 68.14613586 316.47806519 68.8331604 316.4989624 C123.00791379 318.17561644 179.74058535 324.08500175 228.60107422 349.08837891 C229.6067041 349.5941748 230.61233398 350.0999707 231.6484375 350.62109375 C232.53708496 351.0792749 233.42573242 351.53745605 234.34130859 352.00952148 C238.38043086 353.51427071 241.50742871 353.56169885 245.54760742 352.04125977 C246.39170166 351.59580811 247.2357959 351.15035645 248.10546875 350.69140625 C249.07444092 350.19600342 250.04341309 349.70060059 251.04174805 349.19018555 C252.07984619 348.65304932 253.11794434 348.11591309 254.1875 347.5625 C292.9327597 328.33610547 337.14654789 321.11644035 380 318 C381.30582031 317.90074219 382.61164063 317.80148437 383.95703125 317.69921875 C392.77617658 317.11010336 401.6029942 316.83754136 410.43670654 316.56433105 C415.10445766 316.41879608 419.77193754 316.26468521 424.43945312 316.11181641 C426.6306795 316.04300252 428.82207417 315.97908852 431.01367188 315.92333984 C433.42675616 315.86172729 435.83788249 315.7785233 438.25 315.6875 C439.51328125 315.65011719 440.7765625 315.61273438 442.078125 315.57421875 C445.04218076 315.27902589 445.04218076 315.27902589 446.65856963 313.29843593 C448.27702585 310.52533789 448.37832202 308.84961852 448.38476086 305.65080643 C448.3942174 304.55950621 448.40367394 303.46820599 448.41341704 302.34383607 C448.40614568 300.54618574 448.40614568 300.54618574 448.39872742 298.71221924 C448.40537424 297.43881675 448.41202107 296.16541427 448.41886932 294.85342383 C448.43692969 291.31651369 448.43633333 287.77981313 448.43273985 284.24286771 C448.43211704 280.42964344 448.44872633 276.61649013 448.46325684 272.80329895 C448.48606977 266.19590992 448.49793258 259.58857369 448.50238609 252.98114777 C448.50884092 243.42790013 448.53176652 233.87474807 448.55872939 224.3215389 C448.60202531 208.82260837 448.63197603 193.32368187 448.65356445 177.82470703 C448.67456574 162.76772079 448.7018334 147.71076744 448.73754883 132.65380859 C448.73974765 131.72590386 448.74194648 130.79799913 448.74421193 129.84197608 C448.75528137 125.1870122 448.76647422 120.53204864 448.77772844 115.87708521 C448.87095326 77.2514172 448.94171147 38.62573537 449 0 C459.23 0 469.46 0 480 0 C480 112.86 480 225.72 480 342 C377.25 342.25 377.25 342.25 344.77050781 342.29785156 C335.18782538 342.33105911 335.18782538 342.33105911 325.60516357 342.36956787 C321.32697016 342.3866176 317.04891754 342.39242959 312.77069092 342.39154053 C307.31909145 342.3907717 301.86786951 342.4089644 296.41636801 342.44108915 C294.41220247 342.44963374 292.40799453 342.45142784 290.40381861 342.44582415 C287.70261684 342.4392261 285.00265181 342.45698288 282.30157471 342.48101807 C281.11708803 342.46937685 281.11708803 342.46937685 279.90867233 342.45750046 C276.40122617 342.51282541 274.37598759 342.72374027 271.51264572 344.82760239 C269.3883549 347.87841875 269.49648442 350.25294 269.4375 353.9375 C269.34754175 358.88520355 269.13059946 362.06106194 266 366 C261.45837496 369.60767502 257.2989802 369.43795132 251.75390625 369.3984375 C250.86517319 369.40130768 249.97644012 369.40417786 249.06077576 369.40713501 C247.18561158 369.40917181 245.31042598 369.40366883 243.43530273 369.39111328 C240.57552197 369.37507304 237.7171585 369.39096504 234.85742188 369.41015625 C233.0312469 369.40817338 231.2050728 369.40432879 229.37890625 369.3984375 C228.52873428 369.40451019 227.67856232 369.41058289 226.80262756 369.4168396 C221.81260055 369.35816685 218.29844793 368.8146923 214 366 C210.56714539 360.55478235 210.61452489 355.23276026 210.50390625 348.890625 C210.26565611 345.9928249 210.26565611 345.9928249 208.48735428 344.3442564 C204.95623952 342.43591401 201.61324779 342.57723732 197.69842529 342.60127258 C196.8558316 342.59463089 196.01323792 342.5879892 195.14511108 342.58114624 C192.30853355 342.56243704 189.47237477 342.56514749 186.63574219 342.56762695 C184.57271355 342.55852513 182.50969034 342.54811305 180.44667435 342.53649426 C174.91500639 342.50896777 169.38344283 342.49940789 163.85171509 342.49352264 C158.66361959 342.48529445 153.47564937 342.460926 148.28759766 342.43786621 C133.10845186 342.3798298 117.9292158 342.34775645 102.75 342.3125 C68.8425 342.209375 34.935 342.10625 0 342 C0 229.14 0 116.28 0 0 Z " fill="#FFFFFF" transform="translate(16,86)"/>
</svg>
