<?xml version="1.0" encoding="UTF-8"?>
<svg version="1.1" xmlns="http://www.w3.org/2000/svg" width="512" height="512">
<path d="M0 0 C15.18 0 30.36 0 46 0 C46 28.71 46 57.42 46 87 C60.52 87 75.04 87 90 87 C90 106.8 90 126.6 90 147 C104.52 147 119.04 147 134 147 C134 119.94 134 92.88 134 65 C149.18 65 164.36 65 180 65 C180 114.17 180 163.34 180 214 C76.38 214 -27.24 214 -134 214 C-134 191.89 -134 169.78 -134 147 C-119.48 147 -104.96 147 -90 147 C-90 132.15 -90 117.3 -90 102 C-75.15 102 -60.3 102 -45 102 C-45 87.81 -45 73.62 -45 59 C-30.15 59 -15.3 59 0 59 C0 39.53 0 20.06 0 0 Z " fill="#FDFDFD" transform="translate(261,176)"/>
<path d="M0 0 C4.28531401 1.5621731 7.20621063 5.19386921 10.30706787 8.4135437 C11.07165314 9.18424698 11.8362384 9.95495026 12.62399292 10.74900818 C15.05618889 13.20809514 17.46645502 15.68752425 19.87738037 18.16744995 C21.52188201 19.83347903 23.16770153 21.49820836 24.81488037 23.16159058 C27.81334256 26.20216956 30.81009166 29.24422703 33.78704834 32.30587769 C34.38548553 32.9201915 34.98392273 33.53450531 35.60049438 34.16743469 C37.62065477 36.41906675 37.98979826 37.61167813 38.31488037 40.66744995 C38.00238037 43.72994995 38.00238037 43.72994995 36.37738037 45.60494995 C33.26548792 47.07900427 31.42970266 47.14170936 28.00238037 46.72994995 C25.8520959 45.10417096 24.20375376 43.63707265 22.38519287 41.69869995 C21.46625244 40.76477417 20.54731201 39.83084839 19.6005249 38.86862183 C18.45438721 37.66786011 17.30824951 36.46709839 16.12738037 35.22994995 C12.45613037 31.43494995 8.78488037 27.63994995 5.00238037 23.72994995 C4.67238037 43.52994995 4.34238037 63.32994995 4.00238037 83.72994995 C9.61238037 83.72994995 15.22238037 83.72994995 21.00238037 83.72994995 C25.00238037 88.72994995 25.00238037 88.72994995 24.87738037 91.91744995 C24.00238037 94.72994995 24.00238037 94.72994995 22.00238037 96.72994995 C16.06238037 96.72994995 10.12238037 96.72994995 4.00238037 96.72994995 C4.00238037 111.24994995 4.00238037 125.76994995 4.00238037 140.72994995 C9.94238037 140.72994995 15.88238037 140.72994995 22.00238037 140.72994995 C25.00238037 144.72994995 25.00238037 144.72994995 24.87738037 148.35494995 C24.00238037 151.72994995 24.00238037 151.72994995 21.00238037 153.72994995 C15.39238037 153.72994995 9.78238037 153.72994995 4.00238037 153.72994995 C4.00238037 167.91994995 4.00238037 182.10994995 4.00238037 196.72994995 C9.94238037 196.72994995 15.88238037 196.72994995 22.00238037 196.72994995 C25.00238037 200.72994995 25.00238037 200.72994995 24.87738037 203.79244995 C24.00238037 206.72994995 24.00238037 206.72994995 21.00238037 209.72994995 C15.39238037 209.72994995 9.78238037 209.72994995 4.00238037 209.72994995 C4.00238037 223.91994995 4.00238037 238.10994995 4.00238037 252.72994995 C9.28238037 252.72994995 14.56238037 252.72994995 20.00238037 252.72994995 C25.00238037 257.72994995 25.00238037 257.72994995 25.12738037 260.85494995 C24.00238037 263.72994995 24.00238037 263.72994995 19.00238037 266.72994995 C14.05238037 266.72994995 9.10238037 266.72994995 4.00238037 266.72994995 C4.00238037 280.58994995 4.00238037 294.44994995 4.00238037 308.72994995 C9.61238037 308.72994995 15.22238037 308.72994995 21.00238037 308.72994995 C25.00238037 313.72994995 25.00238037 313.72994995 24.87738037 316.91744995 C24.00238037 319.72994995 24.00238037 319.72994995 22.00238037 321.72994995 C16.06238037 321.72994995 10.12238037 321.72994995 4.00238037 321.72994995 C4.00238037 336.24994995 4.00238037 350.76994995 4.00238037 365.72994995 C9.94238037 365.72994995 15.88238037 365.72994995 22.00238037 365.72994995 C25.00238037 369.72994995 25.00238037 369.72994995 24.87738037 373.35494995 C24.00238037 376.72994995 24.00238037 376.72994995 21.00238037 378.72994995 C15.39238037 378.72994995 9.78238037 378.72994995 4.00238037 378.72994995 C4.00238037 397.53994995 4.00238037 416.34994995 4.00238037 435.72994995 C22.81238037 435.72994995 41.62238037 435.72994995 61.00238037 435.72994995 C61.00238037 430.11994995 61.00238037 424.50994995 61.00238037 418.72994995 C63.00238037 415.72994995 63.00238037 415.72994995 66.37738037 414.85494995 C70.00238037 414.72994995 70.00238037 414.72994995 74.00238037 417.72994995 C74.00238037 423.66994995 74.00238037 429.60994995 74.00238037 435.72994995 C88.19238037 435.72994995 102.38238037 435.72994995 117.00238037 435.72994995 C117.00238037 430.11994995 117.00238037 424.50994995 117.00238037 418.72994995 C119.00238037 415.72994995 119.00238037 415.72994995 122.37738037 414.85494995 C126.00238037 414.72994995 126.00238037 414.72994995 130.00238037 417.72994995 C130.00238037 423.66994995 130.00238037 429.60994995 130.00238037 435.72994995 C144.19238037 435.72994995 158.38238037 435.72994995 173.00238037 435.72994995 C173.00238037 430.77994995 173.00238037 425.82994995 173.00238037 420.72994995 C176.00238037 415.72994995 176.00238037 415.72994995 178.87738037 414.60494995 C182.00238037 414.72994995 182.00238037 414.72994995 187.00238037 419.72994995 C187.00238037 425.00994995 187.00238037 430.28994995 187.00238037 435.72994995 C200.86238037 435.72994995 214.72238037 435.72994995 229.00238037 435.72994995 C229.00238037 430.44994995 229.00238037 425.16994995 229.00238037 419.72994995 C234.00238037 414.72994995 234.00238037 414.72994995 237.12738037 414.66744995 C240.00238037 415.72994995 240.00238037 415.72994995 243.00238037 419.72994995 C243.00238037 425.00994995 243.00238037 430.28994995 243.00238037 435.72994995 C257.19238037 435.72994995 271.38238037 435.72994995 286.00238037 435.72994995 C286.00238037 430.11994995 286.00238037 424.50994995 286.00238037 418.72994995 C288.00238037 415.72994995 288.00238037 415.72994995 291.37738037 414.85494995 C295.00238037 414.72994995 295.00238037 414.72994995 299.00238037 417.72994995 C299.00238037 423.66994995 299.00238037 429.60994995 299.00238037 435.72994995 C313.19238037 435.72994995 327.38238037 435.72994995 342.00238037 435.72994995 C342.00238037 430.11994995 342.00238037 424.50994995 342.00238037 418.72994995 C343.32238037 417.40994995 344.64238037 416.08994995 346.00238037 414.72994995 C349.62738037 414.79244995 349.62738037 414.79244995 353.00238037 415.72994995 C355.00238037 418.72994995 355.00238037 418.72994995 355.00238037 435.72994995 C375.13238037 435.39994995 395.26238037 435.06994995 416.00238037 434.72994995 C408.45202121 427.45603846 408.45202121 427.45603846 400.8637085 420.22189331 C399.92978271 419.30545044 398.99585693 418.38900757 398.03363037 417.4447937 C397.53701904 416.98399414 397.04040771 416.52319458 396.52874756 416.0484314 C393.78660991 413.31126139 393.02009909 411.90199916 392.61761475 407.99386597 C393.00238037 404.72994995 393.00238037 404.72994995 394.12738037 402.79244995 C397.11877329 401.0973273 398.58879936 401.08587806 402.00238037 401.72994995 C403.81892395 403.07243347 403.81892395 403.07243347 405.75262451 404.82492065 C406.45597931 405.46120392 407.15933411 406.09748718 407.88400269 406.75305176 C411.07614553 409.73200186 414.21288971 412.75885567 417.31097412 415.8354187 C417.96316422 416.48190872 418.61535431 417.12839874 419.28730774 417.79447937 C420.64902407 419.14683577 422.00935971 420.50058375 423.36834717 421.85568237 C425.45221384 423.92972528 427.54651029 425.99286723 429.64105225 428.05612183 C430.96918088 429.37772987 432.29667804 430.69997288 433.62347412 432.0229187 C434.24942978 432.63652756 434.87538544 433.25013641 435.52030945 433.88233948 C436.09503494 434.46006607 436.66976044 435.03779266 437.26190186 435.63302612 C437.76849838 436.13597702 438.27509491 436.63892792 438.79704285 437.15711975 C440.22801614 439.02437931 440.69925502 440.40366225 441.00238037 442.72994995 C439.21695592 446.56151565 436.87323382 448.95719085 433.67425537 451.65963745 C429.34989496 455.44541557 425.31450971 459.40910955 421.33050537 463.55026245 C420.16012426 464.7561778 418.98954944 465.96190518 417.81878662 467.16744995 C416.01733487 469.02484126 414.2221011 470.88687013 412.44134521 472.76412964 C410.69116596 474.60487628 408.91968042 476.4226259 407.14300537 478.23776245 C406.35062469 479.08904221 406.35062469 479.08904221 405.54223633 479.95751953 C404.00335693 481.50778198 404.00335693 481.50778198 401.00238037 483.72994995 C397.19681003 483.69288641 395.70188995 483.42945953 393.00238037 480.72994995 C393.00238037 478.41994995 393.00238037 476.10994995 393.00238037 473.72994995 C400.59238037 466.13994995 408.18238037 458.54994995 416.00238037 450.72994995 C212.06238037 450.23494995 212.06238037 450.23494995 4.00238037 449.72994995 C4.00238037 464.24994995 4.00238037 478.76994995 4.00238037 493.72994995 C-0.99761963 497.72994995 -0.99761963 497.72994995 -4.12261963 497.72994995 C-7.60651514 496.51816021 -8.29084861 495.98100167 -9.99761963 492.72994995 C-10.41269933 489.46196763 -10.34595536 486.22253984 -10.29058838 482.93307495 C-10.28634354 481.98430481 -10.28209869 481.03553467 -10.27772522 480.05801392 C-10.26095045 477.03170229 -10.22330019 474.00605985 -10.18511963 470.97994995 C-10.17007125 468.92657416 -10.15638311 466.87318792 -10.144104 464.8197937 C-10.1110508 459.78958847 -10.05927646 454.75988262 -9.99761963 449.72994995 C-11.2740332 449.75613403 -12.55044678 449.78231812 -13.86553955 449.80929565 C-18.60836203 449.89990411 -23.35110825 449.95723823 -28.09454346 450.00460815 C-30.14610669 450.02972801 -32.19758064 450.06383031 -34.24884033 450.10714722 C-37.20048054 450.16790997 -40.15093613 450.19618487 -43.10308838 450.2182312 C-44.01785446 450.24403763 -44.93262054 450.26984406 -45.87510681 450.2964325 C-50.41526728 450.29842504 -52.37643096 450.19570754 -56.11212158 447.39474487 C-57.99761963 444.72994995 -57.99761963 444.72994995 -58.06011963 441.60494995 C-56.99761963 438.72994995 -56.99761963 438.72994995 -52.99761963 435.72994995 C-38.80761963 435.72994995 -24.61761963 435.72994995 -9.99761963 435.72994995 C-10.32761963 299.76994995 -10.65761963 163.80994995 -10.99761963 23.72994995 C-18.58761963 31.31994995 -26.17761963 38.90994995 -33.99761963 46.72994995 C-39.99761963 46.72994995 -39.99761963 46.72994995 -41.87261963 45.60494995 C-43.65714212 42.6307458 -43.64607963 41.16678793 -42.99761963 37.72994995 C-37.63617624 29.98279252 -29.84520079 23.4258453 -23.18927002 16.79122925 C-21.16912906 14.77650224 -19.1544558 12.7564161 -17.14019775 10.73580933 C-15.85731562 9.45358705 -14.57412382 8.1716745 -13.29058838 6.8901062 C-12.68853073 6.28602432 -12.08647308 5.68194244 -11.46617126 5.05955505 C-5.46853792 -0.90418877 -5.46853792 -0.90418877 0 0 Z " fill="#FFFFFF" transform="translate(64.99761962890625,7.270050048828125)"/>
<path d="M0 0 C3.93792318 2.56821077 6.74612583 5.61725165 8.875 9.875 C8.73975991 11.58420457 8.59208446 13.2924363 8.4375 15 C8.40184183 18.41872713 8.45062628 20.25900855 10.40625 23.09765625 C12.4930304 25.11621498 14.66939523 26.98781 16.875 28.875 C18.08807822 30.20630194 19.27670404 31.56037388 20.4375 32.9375 C23.196214 36.14661628 26.10326386 39.12602424 29.12109375 42.08984375 C30.97510111 43.97688465 32.70883991 45.9352937 34.4375 47.9375 C35.02015625 48.60007813 35.6028125 49.26265625 36.203125 49.9453125 C37.26161379 51.16702619 38.29648516 52.40996193 39.296875 53.6796875 C41.46067151 56.22032497 42.87788826 57.68452184 46.2265625 58.32421875 C47.95334858 58.44159847 49.68138566 58.54181104 51.41015625 58.625 C55.50163319 59.0399834 57.58916748 60.37776729 60.875 62.875 C65.1713257 68.38310988 65.5472497 73.02025717 64.875 79.875 C64.64756104 80.62869873 64.42012207 81.38239746 64.18579102 82.15893555 C63.76539561 85.83285459 64.88023544 87.54903339 66.6640625 90.76171875 C67.27636719 91.86451172 67.88867188 92.96730469 68.51953125 94.10351562 C69.17308594 95.24498047 69.82664062 96.38644531 70.5 97.5625 C71.13035156 98.71556641 71.76070312 99.86863281 72.41015625 101.05664062 C73.03019531 102.15556641 73.65023437 103.25449219 74.2890625 104.38671875 C75.13911865 105.89431763 75.13911865 105.89431763 76.00634766 107.43237305 C78.10636399 110.17742967 79.59733762 110.92883078 82.875 111.875 C83.21120361 111.38322266 83.54740723 110.89144531 83.89379883 110.38476562 C85.49148836 108.04803282 87.08945033 105.71148653 88.6875 103.375 C89.274104 102.51729004 89.86070801 101.65958008 90.46508789 100.77587891 C93.77631791 95.93621694 97.09150535 91.09938978 100.42163086 86.27270508 C101.34361935 84.93188102 102.261162 83.58798824 103.17407227 82.2409668 C105.01789239 79.52468311 106.85931504 76.89438959 108.92578125 74.33984375 C112.55533268 69.74241194 113.1398039 67.07998119 112.5625 61.1875 C112.42070312 60.08019531 112.27890625 58.97289062 112.1328125 57.83203125 C111.79228167 53.92624586 112.47964795 51.96577684 114.875 48.875 C120.21771343 43.68858936 123.78344518 42.51142288 131.11328125 42.59765625 C136.31164786 43.11969872 138.83305668 45.750798 142.25 49.4375 C144.55081945 54.30461808 144.65613802 58.58062006 143.875 63.875 C141.71959619 68.26563739 139.07663397 71.35401962 134.875 73.875 C127.25961538 75.56730769 127.25961538 75.56730769 123.875 73.875 C123.63136719 74.57753906 123.38773437 75.28007812 123.13671875 76.00390625 C121.68033327 79.31797229 119.83828199 81.89795624 117.6875 84.8125 C112.95012201 91.30656553 108.39405645 97.91491426 103.875 104.5625 C103.21604736 105.5311499 102.55709473 106.4997998 101.87817383 107.49780273 C96.16210144 115.00021687 96.16210144 115.00021687 95.875 123.875 C96.34917321 129.62692725 96.20706725 133.93434856 92.875 138.875 C87.46858488 143.75395999 84.01649159 144.23870384 76.859375 144.14453125 C72.75781348 143.77410226 70.787631 142.787631 67.875 139.875 C64.52837995 135.02345332 63.20047677 130.83328857 63.875 124.875 C64.225625 124.029375 64.57625 123.18375 64.9375 122.3125 C66.46180166 118.34931569 65.36801828 115.02100806 63.72680664 111.20605469 C62.16477961 108.32483565 60.56535191 105.46957398 58.9375 102.625 C58.40576172 101.61953125 57.87402344 100.6140625 57.32617188 99.578125 C54.34558905 94.14931521 54.34558905 94.14931521 49.34326172 90.85864258 C46.72545624 90.33616177 46.72545624 90.33616177 44.20483398 90.20922852 C40.17947061 89.63176624 37.35068051 86.99070018 34.875 83.875 C32.74677855 79.85502615 32.95879488 77.30586324 33.5625 72.875 C33.66456373 68.36888631 33.15037938 65.78516829 30.234375 62.41796875 C27.4332483 59.54883542 24.4489036 56.89027912 21.42529297 54.25878906 C19.57628574 52.60836812 17.96402788 50.83786413 16.375 48.9375 C15.59189453 48.04224609 15.59189453 48.04224609 14.79296875 47.12890625 C13.68459531 45.82639816 12.58660345 44.51458215 11.51806641 43.17919922 C5.32008265 34.84254627 5.32008265 34.84254627 -3.421875 30.08203125 C-6.52135994 30.11373988 -6.52135994 30.11373988 -9.37109375 30.67578125 C-12.125 30.875 -12.125 30.875 -14.87060547 29.20727539 C-18.09434605 27.48931432 -18.09434605 27.48931432 -21.4206543 28.86376953 C-22.60992042 29.47012299 -23.78579685 30.10323789 -24.94921875 30.7578125 C-25.57729935 31.087883 -26.20537994 31.41795349 -26.85249329 31.75802612 C-28.8518455 32.8166741 -30.83114951 33.90810281 -32.8125 35 C-34.15579991 35.71301588 -35.50019248 36.42397727 -36.84570312 37.1328125 C-38.13118514 37.81848435 -39.41572469 38.50592662 -40.69921875 39.1953125 C-41.29925217 39.5173465 -41.89928558 39.83938049 -42.51750183 40.1711731 C-45.42712353 41.77775498 -48.01560916 43.27296433 -50.125 45.875 C-50.76559467 47.97507073 -50.76559467 47.97507073 -51.0625 50.25 C-51.8946315 54.41742278 -52.95972523 56.88557383 -56.125 59.875 C-59.70038735 62.1502465 -61.58594923 62.89640431 -65.86328125 62.7265625 C-68.98718056 63.09315348 -69.92932879 63.65154738 -72.03369141 66.0546875 C-74.01634809 69.14010806 -75.80885131 72.27886191 -77.5625 75.5 C-78.86130575 77.79204839 -80.16078315 80.08371633 -81.4609375 82.375 C-82.08323242 83.49132812 -82.70552734 84.60765625 -83.34667969 85.7578125 C-84.87795496 88.44195894 -86.47144811 91.0409953 -88.1640625 93.625 C-88.5979126 94.29450684 -89.0317627 94.96401367 -89.47875977 95.65380859 C-90.60329357 97.37138577 -91.74059684 99.08058384 -92.87890625 100.7890625 C-94.52412869 104.86343782 -93.57137276 106.81673081 -92.125 110.875 C-91.84214319 116.76785027 -93.10408012 121.44167808 -97.125 125.875 C-101.41699889 129.05682828 -104.65474733 130.06368954 -109.9375 129.375 C-113.62403282 129.23472097 -114.81712912 129.62192364 -117.71484375 132.00390625 C-120.08868709 134.62175699 -122.3217007 137.29920209 -124.54345703 140.04394531 C-126.24049304 142.00871377 -128.04638696 143.7724563 -129.93359375 145.5546875 C-137.07497764 151.98224425 -137.07497764 151.98224425 -140.8359375 160.47265625 C-140.73140024 163.84458101 -140.73140024 163.84458101 -140.30859375 167.0546875 C-140.1030689 170.21189905 -140.48598263 171.42140581 -142.25 174 C-145.4676386 177.612001 -148.64754116 179.55167748 -153.51953125 180.1875 C-159.24643923 180.46225421 -162.68619562 179.78537529 -167.125 175.875 C-171.13231785 172.19259981 -171.96333795 168.70823751 -172.28515625 163.44140625 C-172.0244908 159.26440135 -170.6799553 156.16754657 -168.125 152.875 C-165.11490547 150.47921048 -162.75863762 149.08621254 -159.125 147.875 C-157.7698339 148.05513455 -156.41574749 148.24347722 -155.0625 148.4375 C-151.62176427 148.48785223 -150.34471568 148.04120806 -147.55859375 145.93359375 C-144.96018206 143.33518206 -142.52183764 140.65997329 -140.125 137.875 C-139.50753906 137.1840625 -138.89007813 136.493125 -138.25390625 135.78125 C-137.12702655 134.51123316 -136.01869328 133.22451349 -134.9296875 131.921875 C-133.125 129.875 -133.125 129.875 -130.6953125 127.578125 C-125.80330794 122.95405769 -125.80330794 122.95405769 -123.6953125 116.78125 C-123.77215685 114.71157551 -123.88930361 112.642921 -124.05078125 110.578125 C-124.125 107.875 -124.125 107.875 -122.5 104.375 C-116.5867249 98.1504999 -116.5867249 98.1504999 -111.9609375 97.6328125 C-110.01396277 97.62593273 -108.06737316 97.74104323 -106.125 97.875 C-105.71314453 96.777323 -105.71314453 96.777323 -105.29296875 95.6574707 C-104.19025871 93.03046688 -102.94654176 90.7665764 -101.4375 88.35546875 C-100.90785645 87.5051709 -100.37821289 86.65487305 -99.83251953 85.77880859 C-99.26903809 84.88242676 -98.70555664 83.98604492 -98.125 83.0625 C-97.54991699 82.13775879 -96.97483398 81.21301758 -96.38232422 80.26025391 C-93.62473191 75.83208701 -90.84208824 71.42246454 -88.0078125 67.04296875 C-87.30591797 65.94915894 -87.30591797 65.94915894 -86.58984375 64.83325195 C-85.71339521 63.47050862 -84.82828743 62.11328598 -83.93359375 60.76245117 C-82.91899696 59.18093579 -82.01076928 57.53210903 -81.125 55.875 C-81.455 54.885 -81.785 53.895 -82.125 52.875 C-82.61056326 47.35868293 -82.84321919 42.48381099 -80.5625 37.375 C-76.24354102 32.94529848 -72.66329719 30.66408112 -66.5 30.5 C-63.78839588 30.54894592 -62.30993421 30.77434475 -59.90283203 32.08447266 C-55.86527095 33.23349909 -54.10743125 31.82872254 -50.46875 29.859375 C-49.8439978 29.52834778 -49.21924561 29.19732056 -48.57556152 28.85626221 C-46.58253843 27.79589326 -44.60390636 26.71144895 -42.625 25.625 C-40.64351624 24.55834382 -38.65939875 23.49675484 -36.67443848 22.43658447 C-34.87028642 21.46959666 -33.07265316 20.49047555 -31.27539062 19.51074219 C-28.59300817 18.11799866 -25.95305238 16.93121263 -23.125 15.875 C-23.0425 14.84375 -22.96 13.8125 -22.875 12.75 C-21.92771217 7.85567953 -20.50979878 4.54954349 -16.328125 1.61328125 C-10.75751142 -1.46351113 -6.12514349 -2.20505166 0 0 Z " fill="#FDFDFD" transform="translate(293.125,74.125)"/>
</svg>
