<?xml version="1.0" encoding="UTF-8"?>
<svg version="1.1" xmlns="http://www.w3.org/2000/svg" width="512" height="512">
<path d="M0 0 C1.61611318 -0.01842163 1.61611318 -0.01842163 3.26487511 -0.03721541 C5.04703643 -0.02690062 5.04703643 -0.02690062 6.865201 -0.01637745 C8.12393742 -0.02473411 9.38267385 -0.03309077 10.67955381 -0.04170066 C14.1805319 -0.06428596 17.6811155 -0.06175443 21.18214381 -0.05513132 C24.95533835 -0.05226383 28.72842105 -0.07229231 32.50156879 -0.08928394 C39.89737067 -0.11868563 47.2930362 -0.12593218 54.68889048 -0.12470844 C60.70087763 -0.12387687 66.71282157 -0.12972672 72.72479916 -0.14033413 C91.62395124 -0.17303354 110.52297041 -0.18198921 129.42214666 -0.17324439 C144.33173174 -0.16726552 159.2409877 -0.19763788 174.15049072 -0.24486711 C189.45553934 -0.29297132 204.76042952 -0.31504191 220.06555539 -0.30955631 C228.65974737 -0.3069794 237.25362434 -0.31497379 245.84775066 -0.35062695 C253.16679476 -0.38075048 260.48536004 -0.38650816 267.80442955 -0.36081793 C271.53833257 -0.34839565 275.27133573 -0.34719028 279.00516415 -0.37652683 C283.05572162 -0.40800664 287.10417029 -0.38510775 291.15475178 -0.35695362 C292.92018268 -0.38344574 292.92018268 -0.38344574 294.72127885 -0.41047305 C301.57501542 -0.30736894 305.31577967 0.69061695 310.15902698 5.65950286 C310.70960179 6.2707426 311.2601766 6.88198234 311.82743549 7.5117445 C313.06390794 8.71756484 314.305471 9.91820747 315.5541048 11.11143017 C316.84556429 12.3970516 318.13439544 13.6853173 319.42094135 14.97585583 C320.13251392 15.68567608 320.84408649 16.39549633 321.57722187 17.12682629 C323.90140973 19.44665354 326.22196908 21.77007049 328.54227924 24.09377575 C330.16498172 25.71580397 331.78783257 27.33768378 333.41082478 28.95942211 C336.79717155 32.34430016 340.18171663 35.73096665 343.56498432 39.11892223 C347.90845306 43.46811521 352.25643263 47.81276665 356.60574722 52.15611267 C359.95058291 55.49734376 363.29304431 58.84094179 366.63477993 62.18527317 C368.23808103 63.78924241 369.84212821 65.39246624 371.44692516 66.99493885 C373.68027033 69.22575624 375.91040504 71.45973338 378.13969135 73.69460583 C378.80613163 74.35902187 379.47257191 75.02343792 380.15920734 75.70798779 C380.76325397 76.31485424 381.36730061 76.9217207 381.98965168 77.54697704 C382.51666644 78.07436883 383.0436812 78.60176062 383.58666611 79.14513397 C386.39740416 82.24094232 385.95579827 85.06858049 385.96165657 89.11855412 C385.9640088 89.80851988 385.96636103 90.49848565 385.96878454 91.20935947 C385.97549439 93.54445344 385.97501572 95.87949202 385.97460651 98.21459484 C385.97790389 99.8963896 385.98162919 101.57818356 385.98574799 103.25997651 C385.99579022 107.89957866 385.99948834 112.53916788 386.0021373 117.17877936 C386.00603371 122.17546469 386.0156124 127.17213971 386.02435017 132.16881847 C386.04413203 144.24374534 386.05418237 156.31867306 386.06307796 168.39361209 C386.06745751 174.07440985 386.07282513 179.75520667 386.07806683 185.43600368 C386.09507983 204.31018092 386.10957565 223.18435757 386.11681557 242.0585413 C386.11872558 246.95879524 386.1206459 251.85904917 386.12260151 256.75930309 C386.12308525 257.97729368 386.12356899 259.19528426 386.12406739 260.45018364 C386.13237386 280.19615499 386.15772086 299.94206587 386.19018219 319.6880108 C386.22320911 339.94243692 386.24126031 360.19683227 386.24445981 380.45128548 C386.24662882 391.8309012 386.2554346 403.21042872 386.28092098 414.59001827 C386.3025683 424.27805497 386.31070789 433.96598206 386.3009542 443.6540402 C386.29639229 448.60033618 386.29840495 453.54640572 386.31771564 458.49267101 C386.33522562 463.01659776 386.33444952 467.54013084 386.31881835 472.06406106 C386.31642366 473.70471236 386.32086121 475.34539005 386.332647 476.98600076 C386.34763266 479.20890341 386.33818828 481.43038692 386.32242012 483.6532526 C386.32339693 484.89005673 386.32437374 486.12686086 386.32538015 487.40114391 C385.82743549 490.5117445 385.82743549 490.5117445 384.20333165 492.90893996 C381.07364557 495.02025911 379.08401702 495.01301681 375.31811237 495.01510906 C374.66298314 495.02092283 374.00785391 495.02673659 373.33287227 495.03272653 C371.12797124 495.04737563 368.92417492 495.03341976 366.7192812 495.01967907 C365.126501 495.02428608 363.53372504 495.03063765 361.94095802 495.03858805 C357.55659525 495.05533211 353.17257941 495.04701209 348.78821516 495.03464317 C344.06285083 495.02561569 339.33754736 495.03955094 334.61219501 495.05056286 C325.35227184 495.06837733 316.09247812 495.06449508 306.83254981 495.05291229 C299.30883103 495.04388975 291.78514861 495.04264886 284.26142597 495.04700756 C283.19183338 495.04762049 282.1222408 495.04823343 281.02023631 495.04886493 C278.84758336 495.05014379 276.67493042 495.05144065 274.50227749 495.0527553 C254.11493481 495.06416967 233.727664 495.05103394 213.3403331 495.02955383 C195.83567238 495.01168208 178.33111774 495.01478595 160.82645893 495.03322887 C140.51356445 495.05462045 120.200733 495.06307096 99.88782883 495.05077982 C97.72303423 495.04950558 95.55823963 495.0482481 93.39344501 495.04700756 C91.79563937 495.04608191 91.79563937 495.04608191 90.16555482 495.04513755 C82.64826149 495.04167951 75.13100805 495.04752277 67.61372089 495.05692577 C58.4563792 495.06812812 49.29917471 495.06514295 40.1418488 495.0438028 C35.46693349 495.03326856 30.79224718 495.0292108 26.11733341 495.04239941 C21.84141234 495.05428022 17.56593347 495.04783252 13.29005277 495.0264892 C11.73964482 495.02200475 10.18919985 495.0243305 8.63881552 495.03399235 C6.5375923 495.04608693 4.43790069 495.03375507 2.33675861 495.01510906 C0.5834248 495.01413495 0.5834248 495.01413495 -1.2053299 495.01314116 C-4.17256451 494.5117445 -4.17256451 494.5117445 -6.5481115 492.98472548 C-8.8113636 489.53927069 -8.72323696 486.4281151 -8.67313576 482.44068432 C-8.67864992 481.61671772 -8.68416409 480.79275111 -8.68984535 479.94381583 C-8.7035118 477.16464532 -8.68850516 474.38635821 -8.67376995 471.60720348 C-8.67766026 469.60194504 -8.68329852 467.59668934 -8.69054085 465.5914402 C-8.70535232 460.06693776 -8.6950805 454.54271869 -8.68080413 449.01822519 C-8.6697305 443.06586527 -8.68162495 437.11354628 -8.69064617 431.16118908 C-8.7037978 420.16978485 -8.6987791 409.17846748 -8.68457089 398.18706873 C-8.67153041 388.03388238 -8.66632095 377.88072879 -8.66888905 367.72753429 C-8.66904946 367.05462522 -8.66920988 366.38171614 -8.66937515 365.68841588 C-8.67003872 362.95700969 -8.67074112 360.22560352 -8.67150049 357.49419736 C-8.67852804 331.8599841 -8.66302152 306.22582854 -8.63687703 280.59162997 C-8.61376116 257.80619429 -8.60837342 235.02082207 -8.61860943 212.23537731 C-8.62121134 206.40112339 -8.62379632 200.56686947 -8.62620735 194.73261547 C-8.6265048 194.01439944 -8.62680225 193.29618342 -8.62710871 192.55620327 C-8.63471982 173.52927745 -8.62831482 154.50235685 -8.61751133 135.47543335 C-8.6163635 133.42864661 -8.61522032 131.38185987 -8.61408451 129.33507312 C-8.61332926 127.97723017 -8.61256361 126.61938722 -8.6117875 125.26154428 C-8.60612376 115.11356479 -8.60746277 104.96560173 -8.61201572 94.81762218 C-8.61711786 83.28144911 -8.61099575 71.74533692 -8.59112143 60.20917869 C-8.58122541 54.31914872 -8.57616916 48.42921899 -8.58401394 42.53918362 C-8.59104095 37.15309313 -8.58433626 31.76720542 -8.56641031 26.38114178 C-8.56234639 24.4269674 -8.56339796 22.47277471 -8.56992918 20.51860702 C-8.57801794 17.87309341 -8.56784261 15.22827333 -8.55288124 12.58280468 C-8.55961889 11.81474424 -8.56635654 11.0466838 -8.57329836 10.2553488 C-8.53930205 7.17119143 -8.32814626 4.83217283 -6.97207999 2.03928727 C-4.55817861 -0.00978518 -3.14969913 0.00768066 0 0 Z M6.82743549 14.5117445 C6.82743549 168.2917445 6.82743549 322.0717445 6.82743549 480.5117445 C126.94743549 480.5117445 247.06743549 480.5117445 370.82743549 480.5117445 C370.82743549 352.8017445 370.82743549 225.0917445 370.82743549 93.5117445 C347.39743549 93.1817445 323.96743549 92.8517445 299.82743549 92.5117445 C294.82743549 90.5117445 294.82743549 90.5117445 293.82743549 88.5117445 C293.33243549 51.8817445 293.33243549 51.8817445 292.82743549 14.5117445 C198.44743549 14.5117445 104.06743549 14.5117445 6.82743549 14.5117445 Z M307.82743549 26.5117445 C307.82743549 43.6717445 307.82743549 60.8317445 307.82743549 78.5117445 C324.98743549 78.5117445 342.14743549 78.5117445 359.82743549 78.5117445 C356.26015767 74.34992037 352.87150455 70.4303206 349.03129292 66.58620739 C348.13403996 65.68580227 347.23678699 64.78539715 346.31234455 63.85770702 C345.35265903 62.89981009 344.3928426 61.94204431 343.43290424 60.98440075 C342.43481831 59.98564005 341.43688076 58.98673104 340.43908405 57.98768139 C338.36222653 55.90935913 336.28359477 53.83283278 334.2036562 51.75759411 C331.53246546 49.09214478 328.86584956 46.42217043 326.20050812 43.75087357 C324.14778249 41.69454711 322.09269703 39.64059246 320.03687191 37.58736515 C319.05169734 36.60285888 318.06726841 35.61760588 317.08359051 34.63160419 C315.71700741 33.26249769 314.34689865 31.89691304 312.97660542 30.53151989 C312.19750309 29.75321316 311.41840076 28.97490643 310.61568928 28.17301464 C309.11213439 26.39830853 309.11213439 26.39830853 307.82743549 26.5117445 Z " fill="#FFFFFF" transform="translate(67.17256450653076,8.488255500793457)"/>
<path d="M0 0 C8.86511532 2.59612689 14.48024432 8.46443978 18.875 16.375 C19.84122613 19.48839531 20.28109599 22.01362995 20.5703125 25.2265625 C20.65297363 26.12197754 20.73563477 27.01739258 20.82080078 27.93994141 C20.87993652 28.61976074 20.93907227 29.29958008 21 30 C21.68414758 29.99631283 22.36829515 29.99262566 23.07317448 29.98882675 C39.73261654 29.90042619 56.39198416 29.83426639 73.05160618 29.79275131 C81.10813898 29.77214045 89.16451506 29.74404823 97.22094727 29.69824219 C104.24428744 29.65832904 111.2675141 29.63255645 118.29096454 29.62364602 C122.00866466 29.61843879 125.72604006 29.60623117 129.44363594 29.57707977 C133.59741648 29.54477331 137.7506352 29.54404345 141.90454102 29.54589844 C143.13237305 29.53151733 144.36020508 29.51713623 145.62524414 29.50231934 C152.31694343 29.53467774 156.59505241 29.92853413 162 34 C166.48971012 38.84416092 167.28735325 42.58772754 167.2142334 48.98455811 C166.79232164 54.92317639 165.38824229 60.68211957 164.078125 66.4765625 C163.77320772 67.8554445 163.46891862 69.23446554 163.16522217 70.61361694 C162.5297696 73.48780596 161.88678762 76.36017442 161.23828125 79.23144531 C160.41244665 82.89067667 159.60573777 86.55381354 158.80464554 90.21853065 C158.18089344 93.06174159 157.54697136 95.90261229 156.91005707 98.74290085 C156.60877455 100.09205707 156.31057095 101.44190505 156.01566315 102.79246902 C151.77196176 122.15202549 151.77196176 122.15202549 143 128 C137.16286713 130.13882038 131.83441023 130.2739294 125.65844727 130.22705078 C124.13535698 130.22748886 124.13535698 130.22748886 122.58149719 130.22793579 C119.24304501 130.22654837 115.90481919 130.21101472 112.56640625 130.1953125 C110.24470644 130.19158029 107.92300505 130.1887343 105.6013031 130.18673706 C99.50379046 130.17911705 93.40637377 130.15948251 87.30889893 130.1373291 C81.08159686 130.11683554 74.85427923 130.10772784 68.62695312 130.09765625 C56.4179267 130.07623513 44.20897134 130.04211884 32 130 C32.42683632 131.27445454 32.86697202 132.54445882 33.3125 133.8125 C33.55613281 134.52019531 33.79976562 135.22789062 34.05078125 135.95703125 C35.43052914 138.92661209 37.08630961 140.5431548 40 142 C41.61048557 142.09816496 43.22498728 142.13340402 44.8384552 142.13803101 C45.86050552 142.14348434 46.88255585 142.14893768 47.93557739 142.15455627 C49.06132172 142.1555986 50.18706604 142.15664093 51.34692383 142.15771484 C52.52912003 142.16279556 53.71131622 142.16787628 54.92933655 142.17311096 C58.17738333 142.18663901 61.42541664 142.19601316 64.67347932 142.20452833 C68.071791 142.21523883 71.47005528 142.23382214 74.86833191 142.25234985 C86.44839664 142.31428892 98.02845686 142.36827438 109.60864258 142.40136719 C116.0021347 142.41971825 122.39548777 142.44866082 128.78887767 142.4893719 C132.17214639 142.5104353 135.55523991 142.52589817 138.93857765 142.52817917 C142.71422397 142.53307457 146.48935128 142.5561987 150.26489258 142.58349609 C151.38456421 142.58048996 152.50423584 142.57748383 153.65783691 142.5743866 C155.20360161 142.59102608 155.20360161 142.59102608 156.78059387 142.60800171 C158.1192889 142.61296693 158.1192889 142.61296693 159.48502827 142.61803246 C162.57310792 143.08704218 164.47386265 144.19205545 167 146 C168.57898053 149.15796107 168.81928171 152.60670636 168 156 C165.9562287 158.90056705 164.35472658 160.69722314 160.80761719 161.48999023 C158.25761848 161.71569203 155.74724281 161.79532052 153.1875 161.8125 C152.30384766 161.83763672 151.42019531 161.86277344 150.50976562 161.88867188 C148.34031866 161.94730558 146.17011273 161.97657386 144 162 C144.48082031 162.78632813 144.96164062 163.57265625 145.45703125 164.3828125 C148.12393075 168.90641418 148.4375417 172.74949958 148 178 C146.04502817 184.08867732 142.39651935 188.57983752 137 192 C131.69022106 193.72803457 126.65489853 193.48505647 121.375 191.9375 C116.2762193 189.01042219 113.22550094 185.39771923 110.5625 180.1875 C109.31655093 173.12712191 110.31755103 168.13741496 114 162 C99.48 162 84.96 162 70 162 C71.32 164.31 72.64 166.62 74 169 C75.18272885 174.76580314 74.2328818 180.14493353 71.34375 185.2421875 C68.36837266 189.13439622 64.59779672 191.46740109 60 193 C53.49604148 193.78252755 48.37126805 192.82658965 43 189 C39.40920617 185.58740934 37.21101764 182.36616503 36.76171875 177.328125 C36.59905624 170.58191127 37.00109176 166.49849883 41 161 C40.02160156 160.85304687 40.02160156 160.85304687 39.0234375 160.703125 C30.29630054 159.20998652 25.52453796 155.85903464 19.61328125 149.390625 C14.98979497 142.5393572 14.24873975 134.97484047 13.38671875 126.95703125 C13.25181534 125.7790094 13.11691193 124.60098755 12.97792053 123.38726807 C12.68886833 120.85018271 12.40459402 118.3125493 12.12463379 115.77444458 C11.68355872 111.7767784 11.22970392 107.78075003 10.77246094 103.78491211 C9.38233811 91.59774035 8.03857594 79.4057064 6.72517395 67.21003723 C6.19753129 62.32022823 5.66219107 57.4312737 5.12661743 52.54232788 C4.75517535 49.11031859 4.39810044 45.6770123 4.04174805 42.2434082 C3.8149029 40.15309099 3.58747845 38.06283653 3.359375 35.97265625 C3.26584244 35.02956604 3.17230988 34.08647583 3.07594299 33.11480713 C2.55099496 28.43809101 2.0731572 24.76447848 -1 21 C-4.53828497 19.16281357 -7.90038474 18.02656407 -11.75 17 C-14.98317993 16.00517541 -16.00179763 15.5876426 -18 13 C-18.43359375 10.87890625 -18.43359375 10.87890625 -18.4375 8.5625 C-18.45683594 7.80066406 -18.47617188 7.03882813 -18.49609375 6.25390625 C-16.55805111 -2.55121659 -6.95937365 -0.85017213 0 0 Z M23 45 C23.33 49.29 23.66 53.58 24 58 C32.25 58 40.5 58 49 58 C48.505 51.565 48.505 51.565 48 45 C39.75 45 31.5 45 23 45 Z M63 45 C63.33 49.29 63.66 53.58 64 58 C80.5 58 97 58 114 58 C115.26148818 52.54239568 115.26148818 52.54239568 115 45 C97.84 45 80.68 45 63 45 Z M130 46 C129.76572222 48.01594582 129.58663876 50.038474 129.4375 52.0625 C129.293125 54.021875 129.14875 55.98125 129 58 C135.93 58 142.86 58 150 58 C152.08328351 51.06704723 152.08328351 51.06704723 151 45 C147.68751813 44.97111854 144.37506833 44.95324201 141.0625 44.9375 C139.64420898 44.92493164 139.64420898 44.92493164 138.19726562 44.91210938 C137.29814453 44.90888672 136.39902344 44.90566406 135.47265625 44.90234375 C134.64000244 44.89710693 133.80734863 44.89187012 132.94946289 44.88647461 C130.99483202 44.78356708 130.99483202 44.78356708 130 46 Z M26 73 C26.33 77.29 26.66 81.58 27 86 C35.25 86 43.5 86 52 86 C51.505 79.565 51.505 79.565 51 73 C42.75 73 34.5 73 26 73 Z M66 73 C66.33 77.29 66.66 81.58 67 86 C81.52 86 96.04 86 111 86 C111.495 79.565 111.495 79.565 112 73 C96.82 73 81.64 73 66 73 Z M127 73 C126.67 77.29 126.34 81.58 126 86 C131.94 86 137.88 86 144 86 C144.33 84.5975 144.66 83.195 145 81.75 C145.185625 80.96109375 145.37125 80.1721875 145.5625 79.359375 C146.12154828 76.74443998 146.12154828 76.74443998 146 73 C139.73 73 133.46 73 127 73 Z M29 101 C29.144375 103.124375 29.28875 105.24875 29.4375 107.4375 C29.51871094 108.63246094 29.59992188 109.82742187 29.68359375 111.05859375 C29.67656114 113.88570244 29.67656114 113.88570244 31 115 C32.78071246 115.08726223 34.5648314 115.10699041 36.34765625 115.09765625 C37.42724609 115.09443359 38.50683594 115.09121094 39.61914062 115.08789062 C40.75544922 115.07951172 41.89175781 115.07113281 43.0625 115.0625 C44.20267578 115.05798828 45.34285156 115.05347656 46.51757812 115.04882812 C49.34510351 115.03699747 52.1725264 115.0205141 55 115 C55.020625 113.80375 55.04125 112.6075 55.0625 111.375 C55.07410156 110.70210937 55.08570313 110.02921875 55.09765625 109.3359375 C54.98059163 106.53575167 54.46074982 103.76449894 54 101 C45.75 101 37.5 101 29 101 Z M69 101 C68.51410871 108.68341329 68.51410871 108.68341329 71 115 C73.73894085 115.08858646 76.4525327 115.11523479 79.19140625 115.09765625 C80.01124496 115.0962413 80.83108368 115.09482635 81.67576599 115.09336853 C84.30471382 115.08775289 86.93357773 115.07519779 89.5625 115.0625 C91.34049357 115.05748701 93.11848846 115.05292376 94.89648438 115.04882812 C99.26435545 115.03777839 103.63216348 115.02050331 108 115 C108.33 110.38 108.66 105.76 109 101 C95.8 101 82.6 101 69 101 Z M124 101 C123.67 105.62 123.34 110.24 123 115 C124.918125 115.061875 126.83625 115.12375 128.8125 115.1875 C129.89144531 115.22230469 130.97039062 115.25710937 132.08203125 115.29296875 C134.97209007 115.24731032 134.97209007 115.24731032 136.8125 113.703125 C139.50059824 109.84782621 140 105.59017254 140 101 C134.72 101 129.44 101 124 101 Z M53 171 C52.32041397 173.39719432 52.32041397 173.39719432 52 176 C52.66 176.66 53.32 177.32 54 178 C56.10820797 177.6814823 56.10820797 177.6814823 58 177 C59.01111093 173.95086772 59.01111093 173.95086772 58 171 C56.35 171 54.7 171 53 171 Z M127 171 C126.34 172.32 125.68 173.64 125 175 C126.22809091 176.64555699 126.22809091 176.64555699 128 178 C130.16299211 177.77242269 130.16299211 177.77242269 132 177 C132.6814823 175.10820797 132.6814823 175.10820797 133 173 C132.34 172.34 131.68 171.68 131 171 C129.68 171 128.36 171 127 171 Z " fill="#FFFFFF" transform="translate(181,51)"/>
<path d="M0 0 C0.95614669 -0.00694553 1.91229338 -0.01389106 2.89741421 -0.02104706 C6.1096607 -0.03938152 9.32117403 -0.02903465 12.53344727 -0.01878357 C14.83294225 -0.02583872 17.13243259 -0.03458202 19.43191528 -0.04489136 C25.68388949 -0.06743909 31.93561119 -0.06443314 38.18761063 -0.05556989 C43.40167056 -0.05046899 48.61568266 -0.05774518 53.82973766 -0.06504196 C66.83005868 -0.08303129 79.83023845 -0.07661276 92.83055437 -0.05887216 C104.1247196 -0.04417273 115.41861886 -0.0588061 126.71274984 -0.08764232 C138.30685572 -0.11702425 149.90082792 -0.12750377 161.49496937 -0.11846012 C168.00533992 -0.11352151 174.51550364 -0.11579729 181.02584839 -0.13624763 C187.14579272 -0.15455057 193.26524115 -0.14871165 199.38515854 -0.12404823 C201.63460922 -0.1190235 203.88409735 -0.12257286 206.13351822 -0.13519669 C209.19782463 -0.15103674 212.26047987 -0.13626125 215.32470703 -0.11352539 C216.22080909 -0.12536112 217.11691114 -0.13719685 218.04016781 -0.14939123 C224.02166421 -0.05884616 224.02166421 -0.05884616 227.24595642 2.82736301 C229.19108749 6.51781964 228.83336221 8.56250936 227.66235352 12.5146637 C225.88850423 14.53022406 224.44719863 15.40106772 221.77647603 15.78761959 C219.31527856 15.9099855 216.87161246 15.92386419 214.40736389 15.90907288 C212.98645286 15.91820953 212.98645286 15.91820953 211.53683656 15.92753077 C208.35467761 15.94421332 205.17291649 15.93937741 201.99072266 15.93458557 C199.71255577 15.94192281 197.43439261 15.95050803 195.15623474 15.96025085 C188.96208577 15.98251114 182.76806964 15.98539529 176.57388616 15.98350334 C171.40714723 15.98338386 166.24043667 15.99193899 161.07370561 16.00028086 C148.18993881 16.02063234 135.30626983 16.02165903 122.42249631 16.01447374 C111.23247701 16.00889752 100.04268661 16.02972661 88.8527208 16.0628342 C77.3637058 16.09656287 65.87482851 16.11126585 54.38576025 16.10711718 C47.93514942 16.10504609 41.48476655 16.11058458 35.03419685 16.13500977 C28.9692571 16.15721526 22.9047949 16.15545037 16.83985329 16.13508224 C14.6117796 16.1316613 12.38367415 16.13680761 10.15564346 16.15106583 C7.11797569 16.16916652 4.08194386 16.15657696 1.04432678 16.13612366 C0.15891946 16.14864151 -0.72648785 16.16115935 -1.6387257 16.17405653 C-6.02773159 16.11053103 -7.80193215 15.9268122 -11.38886356 13.1672287 C-13.33764648 10.5146637 -13.33764648 10.5146637 -13.90014648 7.4521637 C-12.40027411 -0.38050314 -6.6633185 -0.06127746 0 0 Z " fill="#FFFFFF" transform="translate(180.337646484375,351.48533630371094)"/>
<path d="M0 0 C1.19771729 -0.00576172 1.19771729 -0.00576172 2.41963089 -0.01163983 C3.29102301 -0.01077335 4.16241514 -0.00990687 5.06021309 -0.00901413 C5.99044733 -0.01198525 6.92068157 -0.01495637 7.87910473 -0.01801753 C11.00353964 -0.02670557 14.12793624 -0.02821286 17.25238228 -0.02970505 C19.48951487 -0.03433308 21.72664667 -0.03935772 23.96377754 -0.04475021 C30.04639388 -0.05787611 36.12899919 -0.06431934 42.21162748 -0.06876087 C46.01014766 -0.0716908 49.8086648 -0.07579541 53.60718346 -0.08026505 C64.12611608 -0.09237267 74.64504692 -0.10275557 85.16398621 -0.10614014 C85.83695172 -0.1063597 86.50991722 -0.10657927 87.20327563 -0.10680549 C88.21512011 -0.10713291 88.21512011 -0.10713291 89.24740589 -0.10746694 C90.61429906 -0.1079104 91.98119223 -0.10835696 93.3480854 -0.10880661 C94.0261097 -0.10902804 94.704134 -0.10924947 95.40270449 -0.10947761 C106.3915224 -0.11342647 117.38027404 -0.13088432 128.36906634 -0.15416613 C139.65352687 -0.17788129 150.93795528 -0.19008405 162.22244465 -0.19150805 C168.55734144 -0.19255732 174.89214469 -0.19849123 181.22701836 -0.21632767 C187.1843309 -0.2327749 193.14147926 -0.23498009 199.09880638 -0.22618866 C201.28614681 -0.22541654 203.47349595 -0.22978395 205.66081429 -0.23964691 C208.64521822 -0.25231573 211.6290362 -0.24651703 214.61343575 -0.23606491 C215.48036643 -0.24412132 216.34729711 -0.25217772 217.24049842 -0.26047826 C222.21238621 -0.21971153 225.66307575 0.3511103 229.96380806 3.13142776 C231.38422627 5.97226418 231.27833078 7.98620054 230.96380806 11.13142776 C229.52787971 13.29499435 229.52787971 13.29499435 226.96380806 15.13142776 C223.85476811 15.72971057 220.78405866 15.67080692 217.62616158 15.63936234 C216.19194154 15.64872228 216.19194154 15.64872228 214.72874737 15.65827131 C211.51648744 15.67425938 208.30498022 15.66157407 205.09271431 15.64900589 C202.79322045 15.65442441 200.49373007 15.66154554 198.19424629 15.67024612 C191.94226162 15.68851438 185.69054035 15.68139735 179.43855095 15.66872978 C172.90342422 15.65862031 166.36832042 15.66798974 159.83319283 15.67427444 C148.15395419 15.68282405 136.47482661 15.66957348 124.79560721 15.6492371 C114.20415372 15.6313658 103.61287558 15.63446983 93.02142525 15.65291214 C80.72464899 15.67431379 68.42798456 15.68228866 56.13119221 15.67046309 C49.62085636 15.66421889 43.11064133 15.66341803 36.60031319 15.67660904 C30.48042049 15.68814224 24.36085977 15.68018779 18.24100304 15.65703201 C15.99155542 15.65173142 13.74208 15.65328162 11.49264336 15.66208267 C8.42853332 15.67296816 5.36549573 15.65935875 2.30145454 15.63936234 C0.95730146 15.65274667 0.95730146 15.65274667 -0.41400623 15.66640139 C-6.40014753 15.59031015 -6.40014753 15.59031015 -9.5924511 13.28718185 C-11.55769255 10.35273741 -11.54160569 8.59712205 -11.03619194 5.13142776 C-9.68598643 2.63354758 -8.90961347 1.41232341 -6.17907894 0.53417325 C-4.06358995 0.13657709 -2.15032712 0.00389681 0 0 Z " fill="#FFFFFF" transform="translate(178.03619194030762,433.8685722351074)"/>
<path d="M0 0 C1.42219266 -0.01169993 1.42219266 -0.01169993 2.87311649 -0.02363622 C6.05244278 -0.04359144 9.23057679 -0.02777736 12.40991211 -0.01205444 C14.68822937 -0.01882896 16.96654115 -0.02773116 19.24484253 -0.03860474 C25.43490363 -0.06142398 31.62454866 -0.05255057 37.81461716 -0.03670931 C44.28788131 -0.02406408 50.76110947 -0.0357866 57.234375 -0.04364014 C68.80244508 -0.05332386 80.37030214 -0.03777052 91.93833888 -0.01234345 C102.4260275 0.00999531 112.91343941 0.00611514 123.40112305 -0.01693726 C135.58148262 -0.04369771 147.761625 -0.05365352 159.94201946 -0.03887594 C166.38923984 -0.03107451 172.8362696 -0.03005906 179.28347778 -0.04655838 C185.34436167 -0.06098516 191.40472221 -0.05101343 197.46554947 -0.0220871 C199.69199885 -0.01546681 201.91849216 -0.01738994 204.14492416 -0.02840042 C207.18038444 -0.0420296 210.21415935 -0.02497089 213.24951172 0 C214.13423692 -0.01115361 215.01896212 -0.02230722 215.93049717 -0.03379881 C220.30143198 0.03612769 222.10753878 0.24723078 225.71070862 2.9480381 C227.62475586 5.63491821 227.62475586 5.63491821 227.62475586 9.25991821 C226.64032149 12.58238419 226.25515183 13.58947875 223.62475586 15.63491821 C221.75634819 16.01211637 221.75634819 16.01211637 219.6123209 16.01523495 C218.38438953 16.02789486 218.38438953 16.02789486 217.13165146 16.04081053 C216.23263656 16.03480048 215.33362167 16.02879043 214.40736389 16.02259827 C213.45207163 16.0279838 212.49677936 16.03336934 211.51253885 16.03891808 C208.29729238 16.05327631 205.08245305 16.04607453 201.8671875 16.03897095 C199.56784228 16.0446704 197.26849988 16.051633 194.96916199 16.05976868 C188.71303167 16.07776214 182.45704114 16.07652008 176.20089269 16.07082629 C170.98440484 16.06774337 165.76794419 16.07381688 160.55146021 16.07986504 C147.54437406 16.09473387 134.53736671 16.09107964 121.53028082 16.07900173 C110.22962257 16.06906886 98.92912804 16.08200913 87.62849505 16.10593592 C76.02991412 16.13030887 64.43141632 16.13953915 52.83281034 16.1332832 C46.31909761 16.1299054 39.80552016 16.13238326 33.29182625 16.14953423 C27.16785685 16.16495419 21.04420101 16.16110275 14.92024422 16.14222908 C12.66917991 16.13852947 10.41809262 16.14169129 8.16704941 16.15211487 C5.10071064 16.16523252 2.03542409 16.15385898 -1.03086853 16.13612366 C-1.92765271 16.14572866 -2.82443688 16.15533367 -3.74839634 16.16522974 C-9.74251825 16.09359554 -9.74251825 16.09359554 -12.92411137 13.78718662 C-14.94346642 10.79215118 -15.02588365 9.17728889 -14.37524414 5.63491821 C-10.19771212 -0.04825515 -6.54765697 -0.08254541 0 0 Z " fill="#FFFFFF" transform="translate(181.375244140625,271.3650817871094)"/>
<path d="M0 0 C0.97988892 -0.00241196 1.95977783 -0.00482391 2.96936035 -0.00730896 C5.03706924 -0.0063313 7.10480457 0.007043 9.17236328 0.03198242 C12.33326333 0.06629242 15.49136709 0.05263637 18.65234375 0.03320312 C20.66407437 0.0401018 22.6757978 0.04977438 24.6875 0.0625 C25.63032837 0.05754013 26.57315674 0.05258026 27.54455566 0.04747009 C31.47700938 0.11788439 34.31450405 0.39631834 37.94140625 1.99023438 C40.97617781 6.1996557 40.51884707 10.35378017 40.4375 15.4140625 C40.43754028 16.46669785 40.43758057 17.51933319 40.43762207 18.60386658 C40.43226427 20.82719906 40.41467063 23.0505309 40.38574219 25.27368164 C40.34386078 28.68238982 40.34467529 32.08912465 40.3515625 35.49804688 C40.34107119 37.65756585 40.3281334 39.81707462 40.3125 41.9765625 C40.31229858 42.99847183 40.31209717 44.02038116 40.31188965 45.07325745 C40.29597778 46.02111618 40.28006592 46.96897491 40.26367188 47.94555664 C40.25525269 48.77954483 40.2468335 49.61353302 40.23815918 50.47279358 C39.74591156 53.16375869 39.03134295 54.01743289 36.84375 55.62890625 C34.12288162 56.58400906 31.59030395 56.76210801 28.72119141 56.79003906 C27.92000885 56.79964661 27.11882629 56.80925415 26.29336548 56.81915283 C25.436008 56.82340271 24.57865051 56.82765259 23.6953125 56.83203125 C22.80516449 56.83773132 21.91501648 56.8434314 20.99789429 56.8493042 C19.11677229 56.85873834 17.23563388 56.86528187 15.35449219 56.86914062 C12.48603335 56.87884776 9.61829086 56.90988657 6.75 56.94140625 C4.91927507 56.94793676 3.08854504 56.95318704 1.2578125 56.95703125 C-0.02215103 56.97555145 -0.02215103 56.97555145 -1.32797241 56.9944458 C-6.34252864 56.97580875 -9.82101508 56.4403493 -14.15625 53.62890625 C-15.32384898 51.29370829 -15.30715433 49.8615193 -15.34912109 47.25854492 C-15.36518402 46.35387985 -15.38124695 45.44921478 -15.39779663 44.51713562 C-15.44223861 40.37788625 -15.48331103 36.23879738 -15.50634766 32.09936523 C-15.5229093 29.91598859 -15.55020188 27.73266621 -15.58837891 25.54956055 C-15.64313444 22.40254575 -15.66501989 19.25680195 -15.6796875 16.109375 C-15.70235687 15.13526169 -15.72502625 14.16114838 -15.74838257 13.15751648 C-15.73478776 8.79711237 -15.56093122 6.29324143 -13.25830078 2.51318359 C-8.81998675 -0.18277955 -5.10460283 -0.07178177 0 0 Z M-0.15625 15.62890625 C-0.15625 24.20890625 -0.15625 32.78890625 -0.15625 41.62890625 C8.09375 41.62890625 16.34375 41.62890625 24.84375 41.62890625 C24.84375 33.04890625 24.84375 24.46890625 24.84375 15.62890625 C16.59375 15.62890625 8.34375 15.62890625 -0.15625 15.62890625 Z " fill="#FFFFFF" transform="translate(118.15625,410.37109375)"/>
<path d="M0 0 C1.05263535 -0.00145523 2.10527069 -0.00291046 3.18980408 -0.00440979 C5.41310395 -0.00275096 7.63641532 0.00880847 9.85961914 0.02954102 C13.26823507 0.05851632 16.67529809 0.05014497 20.08398438 0.03710938 C22.24349716 0.04334608 24.40300503 0.05173649 26.5625 0.0625 C28.095364 0.05809654 28.095364 0.05809654 29.65919495 0.05360413 C30.60705368 0.0662883 31.55491241 0.07897247 32.53149414 0.09204102 C33.36548233 0.097444 34.19947052 0.10284698 35.05873108 0.1084137 C37.76969475 0.59585879 38.64619295 1.24358887 40.21484375 3.49609375 C40.59579468 5.65893555 40.59579468 5.65893555 40.60302734 8.1953125 C40.61248383 9.14639893 40.62194031 10.09748535 40.63168335 11.07739258 C40.62561066 12.10243896 40.61953796 13.12748535 40.61328125 14.18359375 C40.61615143 15.23764404 40.61902161 16.29169434 40.62197876 17.37768555 C40.62402088 19.60693906 40.61848073 21.83621042 40.60595703 24.06542969 C40.58990606 27.48282843 40.60580134 30.8990444 40.625 34.31640625 C40.6230176 36.48047137 40.61917398 38.64453575 40.61328125 40.80859375 C40.62239029 42.34616333 40.62239029 42.34616333 40.63168335 43.91479492 C40.62222687 44.86588135 40.61277039 45.81696777 40.60302734 46.796875 C40.60064056 47.63387939 40.59825378 48.47088379 40.59579468 49.33325195 C40.12759711 51.99143491 39.30295701 52.84098543 37.21484375 54.49609375 C34.90222672 55.65240227 33.51172273 55.64649613 30.9362793 55.68896484 C30.05163498 55.70502777 29.16699066 55.7210907 28.25553894 55.73764038 C24.20788323 55.7820909 20.16039153 55.82315516 16.11254883 55.84619141 C13.97767232 55.86275216 11.84285129 55.89004363 9.70825195 55.92822266 C6.63072945 55.98298708 3.55450664 56.00486488 0.4765625 56.01953125 C-0.47567703 56.04220062 -1.42791656 56.06487 -2.40901184 56.08822632 C-6.70892845 56.0745199 -9.15468295 55.87861529 -12.88720703 53.61401367 C-15.63068257 49.10707695 -15.48509968 45.27159776 -15.4140625 40.0859375 C-15.41647446 39.08148087 -15.41888641 38.07702423 -15.42137146 37.04212952 C-15.42039377 34.92314701 -15.40701892 32.80413871 -15.38208008 30.68530273 C-15.3477348 27.44101344 -15.36143499 24.19944276 -15.38085938 20.95507812 C-15.37396185 18.89451965 -15.36429031 16.83396821 -15.3515625 14.7734375 C-15.3590023 13.31864235 -15.3590023 13.31864235 -15.36659241 11.8344574 C-15.3001443 8.03918222 -15.19238653 5.2772514 -13.42382812 1.88476562 C-9.10784974 -0.38663381 -4.80081786 -0.05288074 0 0 Z M0.21484375 15.49609375 C0.21484375 23.74609375 0.21484375 31.99609375 0.21484375 40.49609375 C8.46484375 40.49609375 16.71484375 40.49609375 25.21484375 40.49609375 C25.21484375 32.24609375 25.21484375 23.99609375 25.21484375 15.49609375 C16.96484375 15.49609375 8.71484375 15.49609375 0.21484375 15.49609375 Z " fill="#FFFFFF" transform="translate(117.78515625,331.50390625)"/>
<path d="M0 0 C1.00445663 -0.00241196 2.00891327 -0.00482391 3.04380798 -0.00730896 C5.16279049 -0.00633127 7.28179879 0.00704358 9.40063477 0.03198242 C12.64492406 0.0663277 15.88649474 0.05262751 19.13085938 0.03320312 C21.19141785 0.04010065 23.25196929 0.04977219 25.3125 0.0625 C26.28236343 0.05754013 27.25222687 0.05258026 28.2514801 0.04747009 C32.05546036 0.11407061 34.80690055 0.21563942 38.19897461 2.00610352 C40.44786213 6.24689668 40.15956328 10.43338004 40.12109375 15.16015625 C40.12492065 16.18822388 40.12874756 17.2162915 40.13269043 18.2755127 C40.13541049 20.44751973 40.12804281 22.61955948 40.11132812 24.79150391 C40.0899207 28.11695354 40.11112753 31.4402426 40.13671875 34.765625 C40.13407549 36.87630685 40.12895056 38.98698736 40.12109375 41.09765625 C40.12919067 42.09253052 40.1372876 43.08740479 40.14562988 44.11242676 C40.09314304 47.97448557 40.02288754 50.8028783 38.21484375 54.25170898 C33.97053984 56.4784685 29.78084724 56.21885493 25.05859375 56.1953125 C23.51649231 56.20461037 23.51649231 56.20461037 21.9432373 56.21409607 C19.77124987 56.22119494 17.59920802 56.2180191 15.42724609 56.20532227 C12.10152247 56.19145495 8.77861101 56.22552992 5.453125 56.26367188 C3.34244723 56.26462305 1.23176593 56.26276436 -0.87890625 56.2578125 C-2.37121765 56.27769981 -2.37121765 56.27769981 -3.89367676 56.29798889 C-10.61375956 56.20720752 -10.61375956 56.20720752 -14.03295898 53.72436523 C-16.01209108 49.27596674 -16.00192898 45.29460453 -15.9765625 40.47265625 C-15.98276108 39.49276733 -15.98895966 38.51287842 -15.99534607 37.5032959 C-16.00243653 35.43563834 -15.99928377 33.36792361 -15.98657227 31.30029297 C-15.97270155 28.13923026 -16.00679534 24.98112556 -16.04492188 21.8203125 C-16.04587307 19.80859303 -16.04401425 17.79686985 -16.0390625 15.78515625 C-16.05232071 14.84232788 -16.06557892 13.89949951 -16.07923889 12.92810059 C-16.01880575 8.66354552 -15.77646029 6.22926418 -13.52148438 2.53344727 C-9.0200762 -0.22200512 -5.18622768 -0.07104495 0 0 Z M-0.41015625 15.62890625 C-0.41015625 23.87890625 -0.41015625 32.12890625 -0.41015625 40.62890625 C7.83984375 40.62890625 16.08984375 40.62890625 24.58984375 40.62890625 C24.58984375 32.37890625 24.58984375 24.12890625 24.58984375 15.62890625 C16.33984375 15.62890625 8.08984375 15.62890625 -0.41015625 15.62890625 Z " fill="#FFFFFF" transform="translate(118.41015625,251.37109375)"/>
</svg>
