<?xml version="1.0" encoding="UTF-8"?>
<svg version="1.1" xmlns="http://www.w3.org/2000/svg" width="512" height="512">
<path d="M0 0 C16.54446692 14.24506644 27.80424432 34.90871878 29.52783203 56.82128906 C30.19652764 69.76337902 29.52486106 81.68479021 25.3046875 93.984375 C24.9540625 95.02335937 24.6034375 96.06234375 24.2421875 97.1328125 C13.45026544 125.68643962 -10.03194294 139.72946153 -35.31561279 153.94512939 C-41.18691027 157.25040757 -47.00764539 160.63963374 -52.8203125 164.046875 C-54.76808467 165.18514313 -56.71600221 166.32316253 -58.6640625 167.4609375 C-59.63988281 168.03102539 -60.61570312 168.60111328 -61.62109375 169.18847656 C-63.14283203 170.07744629 -63.14283203 170.07744629 -64.6953125 170.984375 C-65.79746094 171.62858398 -66.89960938 172.27279297 -68.03515625 172.93652344 C-96.19803211 189.37552334 -123.22587428 204.47306503 -156.9453125 196.296875 C-176.33609179 191.17162948 -192.09700782 180.56648869 -204.6953125 164.984375 C-208.1120358 165.65680995 -210.75407677 166.98488703 -213.78125 168.6875 C-215.28582764 169.53115112 -215.28582764 169.53115112 -216.82080078 170.3918457 C-217.89313965 170.99988037 -218.96547852 171.60791504 -220.0703125 172.234375 C-221.17487793 172.85465576 -222.27944336 173.47493652 -223.41748047 174.11401367 C-228.98913359 177.25796677 -234.51911326 180.45674423 -239.9921875 183.76953125 C-241.46679443 184.65946777 -241.46679443 184.65946777 -242.97119141 185.56738281 C-244.82907937 186.69517016 -246.68068841 187.83338672 -248.52490234 188.98339844 C-253.32740102 191.90218612 -257.02156587 193.85377725 -262.6953125 193.984375 C-266.39852713 192.38525959 -268.60991201 190.42528581 -270.6953125 186.984375 C-272.12226622 182.51122929 -272.06294785 177.82970884 -272.31640625 173.17578125 C-272.93447067 167.85819085 -272.93447067 167.85819085 -276.12231445 163.72436523 C-277.92314265 162.3934291 -279.75895885 161.14774286 -281.6328125 159.921875 C-291.13120907 153.61215683 -291.13120907 153.61215683 -292.1640625 148.80078125 C-292.174375 148.05699219 -292.1846875 147.31320313 -292.1953125 146.546875 C-292.22625 145.80566406 -292.2571875 145.06445312 -292.2890625 144.30078125 C-291.18889401 140.00867657 -287.54888658 137.54761308 -283.9699707 135.18603516 C-282.98859131 134.63737793 -282.00721191 134.0887207 -280.99609375 133.5234375 C-279.88137695 132.8941333 -278.76666016 132.2648291 -277.61816406 131.61645508 C-276.41472656 130.94740496 -275.21127573 130.27837883 -274.0078125 129.609375 C-272.76346466 128.90939346 -271.51965698 128.20845089 -270.27636719 127.5065918 C-267.70552954 126.05574323 -265.13288595 124.60817672 -262.55908203 123.16259766 C-256.49597804 119.75118464 -250.4707892 116.27416504 -244.4453125 112.796875 C-243.38223877 112.18602051 -242.31916504 111.57516602 -241.22387695 110.94580078 C-236.79159156 108.39143373 -232.39432151 105.81762403 -228.0859375 103.05859375 C-224.6953125 100.984375 -224.6953125 100.984375 -222.6953125 100.984375 C-222.62054688 100.30375 -222.54578125 99.623125 -222.46875 98.921875 C-219.56669997 77.52636888 -208.50439838 57.62086299 -191.9453125 43.734375 C-185.53853279 38.92929022 -178.62261434 34.97526979 -171.6953125 30.984375 C-169.75122406 29.8582076 -167.80721964 28.73189514 -165.86328125 27.60546875 C-160.29560299 24.3842577 -154.72078116 21.17558198 -149.14453125 17.96923828 C-144.64833587 15.38188916 -140.15640461 12.78719396 -135.66479492 10.19189453 C-132.41227548 8.31388695 -129.15743873 6.43994532 -125.90234375 4.56640625 C-121.91073395 2.26771916 -117.92956595 -0.04742557 -113.95703125 -2.37890625 C-76.14524444 -24.47885348 -35.93268342 -29.77599311 0 0 Z M-104.6953125 15.984375 C-105.42975586 16.41024902 -106.16419922 16.83612305 -106.92089844 17.27490234 C-110.30901919 19.24363154 -113.68349371 21.23415837 -117.05078125 23.23828125 C-122.75468351 26.62524957 -128.50861671 29.92510031 -134.2578125 33.234375 C-136.48705201 34.52070711 -138.7162182 35.80716628 -140.9453125 37.09375 C-145.41960128 39.67526963 -149.89959795 42.24651897 -154.3828125 44.8125 C-156.50796912 46.03618637 -158.63297518 47.26013428 -160.7578125 48.484375 C-161.725979 49.03512695 -162.69414551 49.58587891 -163.69165039 50.15332031 C-176.92609593 57.80457465 -188.57440909 67.17601447 -195.6953125 80.984375 C-196.40481006 83.6899435 -196.40481006 83.6899435 -196.6953125 85.984375 C-191.82436176 85.02848905 -186.96541478 84.05745115 -182.1328125 82.921875 C-179.07171326 82.20383938 -176.20695306 81.88828799 -173.0703125 81.734375 C-168.80510692 81.29842589 -167.00428587 79.57797064 -163.83789062 76.72753906 C-159.53399733 73.2259668 -154.58306787 70.69268885 -149.7578125 67.984375 C-148.00932751 66.98973373 -146.26085076 65.99507737 -144.51303101 64.99926758 C-143.32185608 64.32107831 -142.13014139 63.64383622 -140.93789673 62.9675293 C-135.16076765 59.69001198 -129.42636129 56.34157692 -123.6953125 52.984375 C-120.73129165 51.25419163 -117.7665339 49.52527555 -114.80175781 47.79638672 C-112.64959178 46.54101292 -110.49793322 45.28476888 -108.34667969 44.02783203 C-65.47834014 19.00406244 -65.47834014 19.00406244 -47.28515625 22.671875 C-40.22555039 24.65351875 -34.39107859 27.36285949 -28.6953125 31.984375 C-28.07011719 32.48582031 -27.44492187 32.98726562 -26.80078125 33.50390625 C-19.04413998 40.44939549 -14.34302174 51.22108546 -13.359375 61.4921875 C-13.21734875 74.64381804 -15.71237191 85.9997396 -24.6953125 95.984375 C-30.61601713 101.93221807 -37.28227343 105.83966622 -44.6328125 109.796875 C-46.88357897 111.03245897 -49.13357854 112.26944097 -51.3828125 113.5078125 C-52.47078125 114.10432617 -53.55875 114.70083984 -54.6796875 115.31542969 C-58.53833907 117.45093342 -62.34374609 119.66581882 -66.1328125 121.921875 C-77.58900626 128.72068428 -89.14067374 135.35463345 -100.6953125 141.984375 C-101.98937012 142.7276001 -101.98937012 142.7276001 -103.30957031 143.48583984 C-105.49795766 144.74015942 -107.68943993 145.98879864 -109.8828125 147.234375 C-110.48681885 147.58056885 -111.0908252 147.9267627 -111.71313477 148.28344727 C-123.32424563 154.83631796 -135.88454222 157.40057492 -149.0078125 153.859375 C-155.27234204 151.66678966 -160.82420519 148.00790658 -166.22265625 144.203125 C-168.56964213 142.7381637 -168.56964213 142.7381637 -170.8359375 143.390625 C-171.53203125 143.7515625 -172.228125 144.1125 -172.9453125 144.484375 C-173.71230469 144.87109375 -174.47929687 145.2578125 -175.26953125 145.65625 C-176.07003906 146.09453125 -176.87054688 146.5328125 -177.6953125 146.984375 C-178.54738281 147.44328125 -179.39945313 147.9021875 -180.27734375 148.375 C-182.43082843 149.55517743 -184.56823291 150.7574071 -186.6953125 151.984375 C-185.85622018 158.09186666 -180.27219071 161.43365038 -175.6953125 164.984375 C-161.22937447 174.77167433 -145.76142542 179.07680959 -128.3203125 177.359375 C-127.33164185 177.27405518 -127.33164185 177.27405518 -126.32299805 177.18701172 C-114.93951812 175.82905954 -104.66526688 170.19264866 -94.8828125 164.546875 C-93.81023193 163.93706787 -92.73765137 163.32726074 -91.63256836 162.69897461 C-82.32737848 157.39291194 -73.07513337 151.99419329 -63.8359375 146.57421875 C-58.38048396 143.37713912 -52.90274587 140.21999122 -47.41967773 137.07055664 C-43.08543589 134.5791817 -38.75736199 132.07729029 -34.43212891 129.5703125 C-32.77430644 128.60963322 -31.11542574 127.65077268 -29.45458984 126.6953125 C-21.70682429 122.22221444 -15.03050329 117.31956579 -8.6953125 110.984375 C-7.83486328 110.12392578 -7.83486328 110.12392578 -6.95703125 109.24609375 C4.88673138 96.42300191 9.90454737 78.23332577 9.2421875 61.109375 C7.49922326 43.23898298 -0.3416828 26.39459061 -14.296875 14.828125 C-44.37323285 -7.87740712 -74.24279106 -1.77294516 -104.6953125 15.984375 Z M-84.6328125 53.296875 C-85.86110932 54.00420497 -87.08962895 54.71114815 -88.31835938 55.41772461 C-91.48617337 57.240709 -94.65097106 59.06886478 -97.81512451 60.89819336 C-100.83699667 62.64392415 -103.86196699 64.38426512 -106.88671875 66.125 C-117.17386353 72.04811373 -127.44626697 77.99554332 -137.6953125 83.984375 C-134.08274877 86.80361082 -130.25597978 88.71701261 -126.1328125 90.671875 C-114.01362709 96.58779727 -103.87546815 104.18656954 -95.6953125 114.984375 C-90.83289699 113.57487112 -86.73966557 111.41452539 -82.4453125 108.796875 C-80.95273596 107.90082111 -79.45917687 107.00640265 -77.96484375 106.11328125 C-77.13936035 105.61973145 -76.31387695 105.12618164 -75.46337891 104.61767578 C-72.3525495 102.7821273 -69.21996633 100.98802588 -66.08203125 99.19921875 C-64.92284919 98.53735766 -63.76366952 97.87549241 -62.60449219 97.21362305 C-60.3325443 95.91835712 -58.05853079 94.62670603 -55.78222656 93.33911133 C-41.5833283 85.5236895 -41.5833283 85.5236895 -33.6953125 71.984375 C-32.3527501 63.64288072 -33.85985692 56.9067114 -38.6953125 49.984375 C-42.77331685 45.3237986 -48.11693916 42.42963542 -54.26953125 41.6640625 C-65.89328467 41.17771298 -74.85568141 47.63256793 -84.6328125 53.296875 Z M-208.8203125 115.859375 C-210.51715083 116.85149593 -212.21399655 117.84360446 -213.91125488 118.83500671 C-215.66447748 119.86028013 -217.41584334 120.88866989 -219.16699219 121.91748047 C-224.90717576 125.2855446 -230.67811159 128.60036027 -236.4453125 131.921875 C-238.59375612 133.16144773 -240.74219385 134.40103065 -242.890625 135.640625 C-249.48185173 139.44004684 -256.08317204 143.22146598 -262.6953125 146.984375 C-259.21795224 150.76472123 -259.21795224 150.76472123 -254.6953125 152.984375 C-253.74609375 155.92578125 -253.74609375 155.92578125 -253.0078125 159.546875 C-252.75644531 160.74441406 -252.50507813 161.94195312 -252.24609375 163.17578125 C-252.06433594 164.10261719 -251.88257813 165.02945313 -251.6953125 165.984375 C-243.95930352 161.78346458 -236.2526615 157.53261125 -228.5703125 153.234375 C-226.92953735 152.31640137 -226.92953735 152.31640137 -225.25561523 151.37988281 C-219.04939555 147.89706562 -212.87816694 144.36579019 -206.7578125 140.734375 C-204.75957741 139.55513247 -202.76053077 138.37728969 -200.76074219 137.20068359 C-199.31472514 136.34914022 -197.8701841 135.49508771 -196.42675781 134.63916016 C-173.86449171 121.33164479 -173.86449171 121.33164479 -161.2109375 123.06640625 C-156.82056379 124.66848361 -153.63964332 127.72541178 -150.23828125 130.85546875 C-145.0189355 135.22496711 -139.96526676 135.58348977 -133.3359375 135.5078125 C-126.79729876 134.56770779 -121.20846552 131.5752292 -115.6953125 127.984375 C-114.7053125 126.499375 -114.7053125 126.499375 -113.6953125 124.984375 C-115.33798483 123.28871324 -117.00637292 121.6334811 -118.6953125 119.984375 C-119.30375 119.36820313 -119.9121875 118.75203125 -120.5390625 118.1171875 C-133.04502749 106.12452704 -149.49042821 100.97790851 -166.59716797 100.9140625 C-182.23275597 101.43803845 -195.59047994 108.02148988 -208.8203125 115.859375 Z " fill="#F5F5F5" transform="translate(482.6953125,26.015625)"/>
<path d="M0 0 C5.68114716 3.71936464 7.263978 7.15884322 8.875 13.625 C9.08640625 14.388125 9.2978125 15.15125 9.515625 15.9375 C10.35012216 19.02622324 11 21.78877706 11 25 C11.85335938 25.26167969 12.70671875 25.52335937 13.5859375 25.79296875 C17.12492481 27.04416678 20.30689173 28.56019692 23.625 30.3125 C24.73101562 30.88613281 25.83703125 31.45976562 26.9765625 32.05078125 C30.12230923 34.07885311 31.93806569 35.89485426 34 39 C34.7278336 42.50683461 34.77780754 44.71906521 32.8828125 47.83984375 C27.48929906 54.4006101 20.55681295 59.64878823 14 65 C13.07832031 65.7528125 12.15664063 66.505625 11.20703125 67.28125 C9.43172503 68.72876704 7.6556728 70.17536958 5.87890625 71.62109375 C2.5491835 74.37252001 -0.72771121 77.18075647 -4 80 C-20.25996038 94.00441032 -20.25996038 94.00441032 -24.2734375 96.30078125 C-26.32502542 97.97808225 -26.32502542 97.97808225 -26.46875 101.1953125 C-26.4790625 102.49210937 -26.489375 103.78890625 -26.5 105.125 C-27.23433678 127.64981464 -36.2329039 150.01354334 -52.7734375 165.6796875 C-55.80422093 167.94168684 -57.76089486 168.95805173 -61.5625 169.625 C-66.09806313 168.80035216 -67.96861119 167.46444435 -71 164 C-72.0613182 161.25073424 -72.33099137 158.92666056 -72 156 C-70.48010851 152.89413478 -68.64075058 150.65489518 -66.23046875 148.19140625 C-61.71676899 143.48184575 -58.53032279 138.7360736 -55.625 132.9375 C-55.29145508 132.2770166 -54.95791016 131.6165332 -54.61425781 130.93603516 C-52.41561895 126.37493285 -51.09120347 121.94348239 -50 117 C-51.30710938 117.68835938 -51.30710938 117.68835938 -52.640625 118.390625 C-53.84269214 119.01246587 -55.04590506 119.63209479 -56.25 120.25 C-56.88317139 120.57572998 -57.51634277 120.90145996 -58.16870117 121.23706055 C-62.15784427 123.23487449 -65.98541932 124.65675071 -70.3125 125.8125 C-76.17771695 127.62792429 -78.92325145 130.67449101 -82.73828125 135.359375 C-85.81932014 138.95658103 -89.35290771 141.7265731 -93.0546875 144.66015625 C-96.21603729 147.17162644 -99.30025411 149.75902718 -102.375 152.375 C-103.18831787 153.06493042 -103.18831787 153.06493042 -104.01806641 153.76879883 C-105.67946484 155.17831415 -107.33987208 156.58898858 -109 158 C-115.10888035 163.19219022 -121.21510641 168.38123581 -127.4375 173.4375 C-131.04138895 176.36664051 -134.58405143 179.35277526 -138.0925293 182.39453125 C-153.58681044 195.8069209 -167.27622693 207.4082638 -189 206 C-201.73933678 204.10436098 -211.96068666 198.08372763 -220 188 C-227.22840896 176.11259511 -229.91309549 164.29863979 -227.34765625 150.48828125 C-222.71899001 133.70191655 -209.91992137 123.85480698 -196.9140625 113.37890625 C-193.56017798 110.64094958 -190.2780711 107.82783535 -187 105 C-182.01083655 100.69999591 -176.95777887 96.49513814 -171.84375 92.34375 C-168.52312195 89.60696864 -165.2599082 86.80854984 -162 84 C-129.73060263 56.25787243 -129.73060263 56.25787243 -106 58 C-100.47125569 59.26909813 -95.54447122 61.06748908 -90.6875 64 C-87.88117166 65.39168169 -87.88117166 65.39168169 -84.6875 63.625 C-83.43296916 62.78677087 -82.20645786 61.9060547 -81 61 C-79.78957031 60.09121094 -79.78957031 60.09121094 -78.5546875 59.1640625 C-76.3473705 57.46878769 -74.16554877 55.74815275 -72 54 C-74.32370104 47.89694613 -80.45091977 45.71692671 -86 43 C-101.3819627 36.21633398 -119.90579762 35.15500661 -135.8828125 40.69140625 C-147.02842556 45.37032902 -155.47972246 51.56859691 -164.37597656 59.56152344 C-166.69280953 61.61365511 -169.09109622 63.55733566 -171.5 65.5 C-175.72792288 68.93207857 -179.87531796 72.44546839 -184 76 C-188.98940767 80.29972713 -194.04221156 84.50485409 -199.15625 88.65625 C-203.08669937 91.89563135 -206.93998229 95.22178509 -210.79541016 98.54980469 C-214.43650664 101.6850542 -218.12853647 104.74037556 -221.875 107.75 C-236.66958959 119.88026379 -245.67281126 133.8732732 -248.59375 152.859375 C-250.2654165 171.17172167 -245.67035994 187.10945275 -235 202 C-234.53980469 202.64582031 -234.07960937 203.29164063 -233.60546875 203.95703125 C-224.4602612 215.63232504 -208.58892768 224.07705855 -194 226 C-176.26210628 227.36873333 -158.66122139 225.61477406 -144.41796875 213.87109375 C-143.57878906 213.15050781 -142.73960937 212.42992187 -141.875 211.6875 C-138.02027859 208.50582519 -135.09646805 206.77834473 -130.046875 206.6171875 C-126.31205974 207.31568348 -124.5560782 209.25221594 -122 212 C-120.36976186 215.26047629 -120.5326465 217.37801035 -121 221 C-128.31729265 234.13908024 -147.89637206 241.9273599 -161.609375 246.09765625 C-186.0613703 251.83693462 -210.55511304 247.01993513 -231.91796875 234.140625 C-250.9013947 220.9556853 -263.99432116 201.52555477 -269 179 C-269.17362061 178.22462891 -269.34724121 177.44925781 -269.52612305 176.65039062 C-273.77142241 152.90645973 -267.76461402 130.30536067 -254.5625 110.625 C-248.55461702 102.52859787 -241.91980751 95.66798748 -234.01953125 89.4140625 C-230.60857585 86.68706323 -227.30302528 83.85577332 -224 81 C-219.01137225 76.69938913 -213.95775765 72.49512091 -208.84375 68.34375 C-205.52313406 65.60697862 -202.25956291 62.80893615 -199 60 C-193.98449961 55.67863022 -188.91439781 51.44002118 -183.765625 47.27734375 C-181.78775814 45.64867655 -179.84701319 44.00479799 -177.921875 42.31640625 C-156.32761131 23.43581622 -133.79144916 14.43760048 -104.76220703 15.79736328 C-87.56544342 17.0589254 -71.56184488 24.33764151 -58.41796875 35.3125 C-55.9447395 37.38153728 -55.9447395 37.38153728 -52 37 C-50.2762505 35.97282128 -50.2762505 35.97282128 -48.71484375 34.47265625 C-48.10761475 33.9324585 -47.50038574 33.39226074 -46.87475586 32.83569336 C-46.23546143 32.25053955 -45.59616699 31.66538574 -44.9375 31.0625 C-43.58440809 29.85556485 -42.2302356 28.64984006 -40.875 27.4453125 C-40.21242187 26.85266602 -39.54984375 26.26001953 -38.8671875 25.64941406 C-36.44491441 23.50965504 -33.95304116 21.46640373 -31.4375 19.4375 C-28.37887371 16.96583648 -25.35928264 14.46076137 -22.38671875 11.88671875 C-21.76289307 11.34668213 -21.13906738 10.80664551 -20.49633789 10.25024414 C-19.28036937 9.19418381 -18.06715054 8.13494608 -16.85717773 7.07202148 C-11.51684406 2.43397826 -7.46063507 -1.04710668 0 0 Z M-15.875 33.9375 C-20.02671633 37.48384067 -24.19576288 40.99859539 -28.4375 44.4375 C-32.68393529 47.89275084 -36.85271852 51.42725069 -41 55 C-46.9235762 60.09745845 -52.91343027 65.09739315 -59 70 C-60.1588719 70.95310344 -61.31772508 71.90622964 -62.4765625 72.859375 C-71.39443102 80.1193579 -79.89604365 86.42288727 -91.91796875 86.2890625 C-95.45610068 85.79783968 -98.077974 83.95972417 -101 82 C-106.93148657 78.04567562 -113.11041377 78.26273801 -120 79 C-127.00914589 80.91816557 -132.5652195 86.41161974 -138 91 C-135.37577855 97.69982795 -127.78611567 100.76348328 -121.55859375 103.52734375 C-112.68467695 107.01028038 -105.35179102 108.20140107 -95.875 108.25 C-94.89273438 108.270625 -93.91046875 108.29125 -92.8984375 108.3125 C-82.94393522 108.36489212 -74.0604299 106.0262181 -65.1875 101.5625 C-64.51372314 101.22468506 -63.83994629 100.88687012 -63.14575195 100.53881836 C-56.10241125 96.81533191 -50.41744049 91.78513944 -44.58007812 86.42675781 C-42.27036036 84.34115975 -39.8595894 82.39057209 -37.4375 80.4375 C-33.46339786 77.20817835 -29.53081353 73.93617288 -25.625 70.625 C-25.08311035 70.16561035 -24.5412207 69.7062207 -23.98291016 69.23291016 C-21.75969435 67.3463659 -19.53800264 65.45804404 -17.31787109 63.56787109 C-15.65034309 62.14831705 -13.98165764 60.73013736 -12.3125 59.3125 C-11.51090454 58.63030396 -11.51090454 58.63030396 -10.69311523 57.93432617 C-6.46603809 54.3530795 -2.13171017 50.92424896 2.26953125 47.55859375 C2.84058594 47.04425781 3.41164063 46.52992188 4 46 C4 45.34 4 44.68 4 44 C3.39671875 43.75507813 2.7934375 43.51015625 2.171875 43.2578125 C-2.9154555 40.87825469 -5.4819506 39.0212721 -7.5625 33.6875 C-8.07251271 32.13479463 -8.56274157 30.57474189 -9 29 C-11.37123651 29 -14.0683206 32.38245153 -15.875 33.9375 Z M-160.9375 110.4375 C-165.52187818 114.70068452 -170.24531903 118.71737306 -175.1171875 122.65234375 C-178.84029474 125.68430507 -182.50135308 128.78594238 -186.14599609 131.91162109 C-188.74937869 134.13565143 -191.36404226 136.27624924 -194.09375 138.34765625 C-200.2905956 143.07025229 -204.91599801 147.30016107 -207 155 C-207.89864631 161.7806949 -207.92050097 168.29333642 -204.328125 174.2890625 C-200.26892803 179.51826331 -195.36806033 183.0895819 -189 185 C-180.66491219 186.02605184 -173.92154457 184.53924749 -167.05029297 179.59790039 C-165.1903837 178.05195974 -163.4017847 176.45316199 -161.625 174.8125 C-160.31878126 173.64333144 -159.01148332 172.47536751 -157.703125 171.30859375 C-156.75663086 170.4575708 -156.75663086 170.4575708 -155.79101562 169.58935547 C-153.37581422 167.44609468 -150.88581462 165.40494223 -148.375 163.375 C-144.37260922 160.13270717 -140.4240869 156.83601943 -136.5 153.5 C-131.63997581 149.37087092 -126.73111007 145.30824686 -121.7890625 141.27734375 C-118.62366264 138.69271053 -115.4631296 136.10261297 -112.3125 133.5 C-111.29800781 132.6646875 -110.28351563 131.829375 -109.23828125 130.96875 C-108.49964844 130.3190625 -107.76101562 129.669375 -107 129 C-107 128.67 -107 128.34 -107 128 C-108.09957031 127.76925781 -109.19914062 127.53851563 -110.33203125 127.30078125 C-119.06522835 125.40286278 -127.07916431 123.27323774 -135 119 C-136.01964844 118.45085937 -137.03929687 117.90171875 -138.08984375 117.3359375 C-143.97828182 114.03142467 -148.9708318 110.48251948 -154 106 C-157.23504159 106 -158.6380866 108.2700472 -160.9375 110.4375 Z " fill="#F5F5F5" transform="translate(270,259)"/>
<path d="M0 0 C2.9640585 1.80767693 5.42197673 3.84395345 7 7 C7.12370115 11.57694247 6.87838473 14.99613174 3.8125 18.5 C0.65581916 20.18356312 -1.41534813 20.92684384 -5 21 C-8.87821689 19.70726104 -10.57664476 18.60089131 -12.9375 15.25 C-14.25603257 11.21684156 -14.2545729 9.05891233 -13 5 C-8.97691409 0.49797529 -6.01378712 -1.07389056 0 0 Z " fill="#EBEBEB" transform="translate(177,437)"/>
<path d="M0 0 C0.66 0.33 1.32 0.66 2 1 C-3.28 6.28 -8.56 11.56 -14 17 C-14.66 16.67 -15.32 16.34 -16 16 C-5.62642369 4.29384966 -5.62642369 4.29384966 0 0 Z " fill="#B8B8B8" transform="translate(34,350)"/>
<path d="M0 0 C0.66 0.33 1.32 0.66 2 1 C-2.95 5.95 -7.9 10.9 -13 16 C-13.66 15.67 -14.32 15.34 -15 15 C-10.28109462 9.59947495 -5.69641143 4.38185495 0 0 Z " fill="#BCBCBC" transform="translate(293,68)"/>
</svg>
