<?xml version="1.0" encoding="UTF-8"?>
<svg version="1.1" xmlns="http://www.w3.org/2000/svg" width="512" height="512">
<path d="M0 0 C1.85788919 0.92953314 3.71634897 1.85791915 5.57481384 2.78630066 C10.05568342 5.02473598 14.53529873 7.2656236 19.01098633 9.5144043 C26.21950791 13.13333666 33.45614273 16.68064049 40.75 20.125 C51.92221505 25.40586702 62.9558393 30.95775687 74 36.5 C90.12130905 44.60392834 90.12130905 44.60392834 106.375 52.4375 C124.27271722 60.86852392 141.89270489 69.89360882 159.56616211 78.78210449 C161.28832228 79.64387558 163.01375815 80.49911497 164.74145508 81.34973145 C165.63541992 81.79103394 166.52938477 82.23233643 167.45043945 82.68701172 C168.66507622 83.28314774 168.66507622 83.28314774 169.9042511 83.8913269 C177.22483051 87.76399 181.44461729 94.31941466 184 102 C186.85413256 111.31450017 185.48362033 121.48511273 181 130 C174.42251299 140.04942313 163.01771978 144.64682359 152.5546875 149.7109375 C150.94052948 150.49924706 150.94052948 150.49924706 149.29376221 151.30348206 C145.82272878 152.99788942 142.34885234 154.68638073 138.875 156.375 C134.07707215 158.71529461 129.28069668 161.0587595 124.484375 163.40234375 C123.30952545 163.97592117 122.1346759 164.5494986 120.92422485 165.14045715 C111.62867308 169.68217526 102.36663783 174.28726217 93.125 178.9375 C84.01167726 183.51957266 74.86064967 188.00251504 65.63720703 192.35913086 C55.01247532 197.41294249 44.51572663 202.72432192 34 208 C19.80116027 215.1218034 5.59981068 222.2158639 -8.78515625 228.95654297 C-10.97826646 229.9897609 -13.16180696 231.04108922 -15.34375 232.09765625 C-33.47305433 240.82641952 -51.29620603 244.02631695 -71 238 C-79.4005724 234.83527642 -87.41196111 230.90813237 -95.40539551 226.84417725 C-98.72497977 225.1571876 -102.05191153 223.48481595 -105.37890625 221.8125 C-106.04127289 221.47934784 -106.70363953 221.14619568 -107.38607788 220.802948 C-112.80507315 218.08361146 -118.26598619 215.46067011 -123.75 212.875 C-134.92253944 207.59486261 -145.95586529 202.04223009 -157 196.5 C-173.12128343 188.39601875 -173.12128343 188.39601875 -189.375 180.5625 C-202.64831301 174.31133218 -215.72474174 167.65674802 -228.83276367 161.06835938 C-239.56630047 155.67932673 -250.301697 150.3142105 -261.26757812 145.40820312 C-271.97670478 140.47299966 -279.73507564 133.71709395 -284.375 122.75 C-286.16180583 112.02916504 -285.67916695 101.92990549 -279.45703125 92.71484375 C-272.57961897 84.29512849 -262.4509584 80.08030828 -252.90234375 75.3359375 C-251.6235155 74.69712201 -250.34483726 74.05800616 -249.06629944 73.41860962 C-246.38714582 72.07981182 -243.706681 70.74369038 -241.02514648 69.40966797 C-237.6617342 67.73633351 -234.30089567 66.05791143 -230.94093895 64.37765121 C-217.73092905 57.77294501 -204.49381507 51.2382134 -191.15232849 44.90194702 C-181.96281602 40.52885047 -172.86751458 35.97425349 -163.77783203 31.39807129 C-137.69894032 18.27267374 -137.69894032 18.27267374 -124.49023438 12.07177734 C-118.66121561 9.31918515 -112.90188648 6.44483712 -107.15625 3.5234375 C-105.54949944 2.70926988 -103.94272842 1.89514265 -102.3359375 1.08105469 C-99.19978757 -0.50856322 -96.07083527 -2.11128968 -92.9453125 -3.72167969 C-58.66723796 -21.20903311 -33.61156383 -16.89639791 0 0 Z " fill="#FFFFFF" transform="translate(306,37)"/>
<path d="M0 0 C1.04655762 0.50845459 2.09311523 1.01690918 3.17138672 1.54077148 C15.94430043 7.77621852 28.63501488 14.18038156 41.33935547 20.55395508 C51.05711415 25.42610636 60.79507038 30.23404417 70.62939453 34.86743164 C81.6503658 40.09381932 92.52360092 45.62196467 103.42468262 51.09246826 C114.5723167 56.68490307 125.72896369 62.23732368 137.01098633 67.55493164 C142.52807393 70.16035478 147.97804961 72.87601089 153.41308594 75.6484375 C166.52909991 82.32792996 178.25266255 87.33476681 193.1875 87.4375 C193.91001953 87.458125 194.63253906 87.47875 195.37695312 87.5 C206.36165579 87.5762165 216.30364127 84.36573945 226 79.4375 C228.17838542 78.36197917 230.35677083 77.28645833 232.53515625 76.2109375 C233.79454373 75.58322872 235.05381493 74.95528663 236.31298828 74.32714844 C241.33863175 71.82625759 246.38639824 69.37108744 251.43359375 66.9140625 C270.80199965 57.47889749 290.13161367 47.9717206 309.38442993 38.30279541 C318.59802665 33.67675237 327.83893501 29.13178563 337.16748047 24.74072266 C343.94541046 21.52565949 350.65182198 18.17918138 357.3515625 14.8046875 C358.32123962 14.31689819 359.29091675 13.82910889 360.28997803 13.32653809 C365.20005763 10.85563593 370.10649186 8.37787883 375.0078125 5.88964844 C401.51130006 -7.50790329 401.51130006 -7.50790329 407.875 -6.5625 C416.37121952 -3.35401204 422.4546939 3.32753325 426.625 11.1875 C429.98508062 19.12950873 429.72423881 28.70878601 427.1875 36.875 C423.42779974 45.76391334 417.69086252 51.47864268 409.01953125 55.625 C407.58665668 56.32034257 406.15423794 57.01662489 404.72216797 57.71362305 C403.91994812 58.10117767 403.11772827 58.4887323 402.29119873 58.88803101 C397.04363283 61.44562325 391.83666624 64.08500119 386.62109375 66.70703125 C384.22610845 67.90729671 381.83096227 69.10723444 379.43554688 70.30664062 C375.75875115 72.1479608 372.08221396 73.98978786 368.40698242 75.83422852 C355.31688775 82.40290309 342.20323254 88.90822071 328.97276306 95.19099426 C318.4457271 100.2010628 308.03729034 105.4442186 297.625 110.6875 C285.0319107 117.02895886 272.40819372 123.28104171 259.67321777 129.33328247 C253.1970792 132.41698145 246.78780622 135.60568243 240.40649414 138.88012695 C230.06300752 144.1830781 219.94505495 149.34557877 208.625 152.1875 C207.86832031 152.38085938 207.11164063 152.57421875 206.33203125 152.7734375 C183.44158018 156.27471862 165.44215749 148.15689503 145.46575928 138.11236572 C142.89058099 136.81850065 140.31219078 135.53109185 137.73405457 134.24313354 C132.93196513 131.84409508 128.13113266 129.44259483 123.33422852 127.03320312 C115.80175773 123.25264617 108.24613938 119.53704469 100.625 115.9375 C89.87349458 110.85636362 79.25240761 105.52163084 68.625 100.1875 C53.06370971 92.36990865 53.06370971 92.36990865 37.375 84.8125 C19.43693997 76.35757327 1.77401938 67.31487553 -15.94116211 58.40539551 C-17.66332228 57.54362442 -19.38875815 56.68838503 -21.11645508 55.83776855 C-22.01041992 55.39646606 -22.90438477 54.95516357 -23.82543945 54.50048828 C-25.04007622 53.90435226 -25.04007622 53.90435226 -26.2792511 53.2961731 C-33.59983051 49.42351 -37.81961729 42.86808534 -40.375 35.1875 C-43.22578885 25.88391208 -41.87102888 15.68884073 -37.375 7.1875 C-33.26843161 1.10562023 -27.60264481 -4.16499982 -20.48168945 -6.40917969 C-13.58678016 -7.72919245 -5.96632107 -2.93922445 0 0 Z " fill="#FFFFFF" transform="translate(62.375,337.8125)"/>
<path d="M0 0 C1.85174222 0.90571426 3.69513907 1.82862754 5.53125 2.765625 C6.53027344 3.25933594 7.52929688 3.75304687 8.55859375 4.26171875 C11.72423473 5.83070685 14.87816953 7.42156765 18.03125 9.015625 C20.04114972 10.02186657 22.05155856 11.0270919 24.0625 12.03125 C26.92570574 13.46100683 29.78783648 14.8922797 32.64257812 16.33886719 C39.33020456 19.71652956 46.07855815 22.95293946 52.84375 26.171875 C65.62137564 32.25821576 78.26591927 38.59813084 90.90625 44.96337891 C102.42793973 50.76140313 113.98753506 56.45592588 125.63792419 61.99111938 C131.83110008 64.94139241 137.97994886 67.96669584 144.09765625 71.0703125 C145.28686172 71.67259674 145.28686172 71.67259674 146.50009155 72.28704834 C149.67045661 73.89451725 152.83957325 75.50425175 156.00317383 77.125 C174.66628184 86.83085124 174.66628184 86.83085124 195.03125 91.453125 C195.78760742 91.5260376 196.54396484 91.5989502 197.32324219 91.67407227 C214.57578691 93.05362151 229.76220131 86.49381262 244.83984375 78.7890625 C246.62747541 77.88910383 248.41510819 76.98914735 250.20279789 76.08930397 C252.67486056 74.84242189 255.14310171 73.5880747 257.61138916 72.33374023 C262.4773628 69.86293662 267.35041772 67.40609278 272.22328568 64.9489212 C273.42738957 64.34164341 274.63132553 63.73403253 275.83509445 63.126091 C284.75544814 58.62262358 293.72984715 54.25131063 302.75791931 49.96859741 C311.990428 45.5816097 321.12593595 41.00891331 330.25561523 36.41259766 C343.47333012 29.76014233 356.69289734 23.12715342 370.07714844 16.81494141 C379.12299632 12.53621698 388.05496932 8.03118703 396.98632812 3.51953125 C398.68692383 2.66294922 398.68692383 2.66294922 400.421875 1.7890625 C401.43282227 1.27778809 402.44376953 0.76651367 403.48535156 0.23974609 C407.9987696 -1.93039948 412.07204837 -2.84575404 417.03125 -1.984375 C426.09959464 1.80225273 431.29237409 7.92720727 435.40625 16.640625 C438.31761609 24.59183491 438.31761609 33.43941509 435.40625 41.390625 C429.30460909 54.31423943 419.17120529 59.1112472 406.80078125 65.24609375 C405.84846115 65.72202469 404.89614105 66.19795563 403.91496277 66.68830872 C401.90657836 67.69099996 399.89722989 68.69176231 397.88696289 69.69067383 C394.89438255 71.17796105 391.90495309 72.67142339 388.91601562 74.16601562 C378.15235188 79.53769341 367.34202408 84.79851905 356.47895813 89.96598816 C347.481618 94.25580799 338.56839917 98.70549105 329.6663208 103.18893433 C317.2274039 109.45161047 304.78607422 115.69296692 292.18115234 121.61621094 C285.56022207 124.75160633 279.0109929 128.02095694 272.46875 131.31640625 C271.50705902 131.80020248 270.54536804 132.28399872 269.55453491 132.78245544 C264.69837097 135.226333 259.8458116 137.67697051 254.99853516 140.13842773 C246.65852284 144.3545581 238.31337046 148.47690966 229.6796875 152.0625 C229.01909332 152.33837952 228.35849915 152.61425903 227.67788696 152.89849854 C219.22906006 156.30344947 211.46427523 157.37911544 202.40625 157.390625 C201.41496094 157.41511719 200.42367187 157.43960938 199.40234375 157.46484375 C184.0600511 157.5240804 171.41121277 151.15645165 158.03125 144.453125 C156.32730162 143.61035956 154.62286431 142.76858203 152.91796875 141.92773438 C147.61414408 139.30680059 142.32199715 136.66283394 137.03125 134.015625 C135.31645677 133.15891579 133.60161366 132.30230643 131.88671875 131.44580078 C118.34670591 124.68044723 118.34670591 124.68044723 112.5859375 121.77514648 C104.38267366 117.64456605 96.13820204 113.61642359 87.84375 109.671875 C75.18955389 103.65130912 62.67179336 97.37028041 50.15625 91.06787109 C36.68725194 84.28990892 23.14676644 77.68759563 9.53155518 71.20861816 C3.98856764 68.56384252 -1.52761902 65.86636517 -7.03125 63.140625 C-8.66030273 62.34785156 -8.66030273 62.34785156 -10.32226562 61.5390625 C-17.82417583 57.81804135 -23.92376843 54.54714515 -28.21875 47.078125 C-28.69828125 46.26472656 -29.1778125 45.45132813 -29.671875 44.61328125 C-33.68344193 36.57806437 -34.39127329 27.91586366 -32.28125 19.1640625 C-28.90816811 10.08485043 -23.91815365 4.1294464 -15.7265625 -0.953125 C-9.89547494 -3.13358834 -5.53213626 -2.45731983 0 0 Z " fill="#FFFFFF" transform="translate(53.96875,226.984375)"/>
</svg>
