<?xml version="1.0" encoding="UTF-8"?>
<svg version="1.1" xmlns="http://www.w3.org/2000/svg" width="512" height="512">
<path d="M0 0 C1.63569946 0.00845947 1.63569946 0.00845947 3.30444336 0.01708984 C33.45998562 0.4676053 59.17302089 13.79207182 80.31640625 34.87109375 C101.25760946 56.89932125 109.45024378 85.3423812 108.9921875 115.14453125 C108.07784078 144.96943485 93.58047592 169.7965445 72.89404297 190.45898438 C72.04729507 191.31244949 71.20054718 192.16591461 70.32814026 193.04524231 C68.03200831 195.35697554 65.73150287 197.66422633 63.4282012 199.96881294 C61.98165574 201.41679219 60.53654874 202.86619167 59.09192276 204.31608582 C54.02985102 209.39659019 48.96271227 214.47197543 43.890625 219.54248047 C39.1986085 224.23329731 34.51784991 228.93514143 29.8422631 233.64232969 C25.79734264 237.71358982 21.74455609 241.77690934 17.68580925 245.8343854 C15.27523171 248.24445848 12.86770492 250.65737683 10.46813583 253.07841492 C-8.73083456 272.41913968 -27.42009732 286.80511764 -54.25 293.3125 C-55.71759766 293.68181641 -55.71759766 293.68181641 -57.21484375 294.05859375 C-75.66964992 297.89782889 -96.68672338 296.01847835 -114.25 289.3125 C-113.98445313 290.10011719 -113.71890625 290.88773437 -113.4453125 291.69921875 C-104.7936159 318.38054587 -106.09744872 347.83512561 -118.25 373.3125 C-125.14429955 386.79289913 -134.59974027 397.97065077 -145.28295898 408.62011719 C-146.13627808 409.47854721 -146.98959717 410.33697723 -147.86877441 411.22142029 C-150.17704835 413.54108927 -152.48966578 415.85630179 -154.804919 418.16900158 C-156.74993291 420.11293401 -158.69193598 422.05986136 -160.63402611 424.00671411 C-165.21960371 428.60332091 -169.8104057 433.19466237 -174.40454102 437.78271484 C-179.11950215 442.49162858 -183.82518844 447.20966816 -188.52648109 451.93222499 C-192.58928002 456.01271235 -196.65794062 460.08729089 -200.73121506 464.15732121 C-203.15263304 466.57693923 -205.57185075 468.99865095 -207.98534966 471.42617035 C-210.67896661 474.13219792 -213.38205104 476.82841684 -216.08764648 479.52246094 C-216.86977005 480.31222824 -217.65189362 481.10199554 -218.4577179 481.91569519 C-223.6557175 487.06505499 -229.13685629 491.30032532 -235.25 495.3125 C-236.33925781 496.034375 -237.42851562 496.75625 -238.55078125 497.5 C-245.40717895 501.62628863 -252.28566892 504.6317777 -259.875 507.1875 C-260.72102783 507.47367187 -261.56705566 507.75984375 -262.4387207 508.0546875 C-273.00715093 511.43821187 -283.42947493 512.68566041 -294.5 512.625 C-296.13569946 512.61654053 -296.13569946 512.61654053 -297.80444336 512.60791016 C-326.64264435 512.17707541 -352.28332034 499.78970386 -372.9375 480.0625 C-395.02486837 457.1725383 -403.97682359 428.84694858 -403.4921875 397.4453125 C-402.57289081 367.63643471 -388.06806081 342.81605478 -367.39404297 322.16601562 C-366.54729507 321.31255051 -365.70054718 320.45908539 -364.82814026 319.57975769 C-362.53200831 317.26802446 -360.23150287 314.96077367 -357.9282012 312.65618706 C-356.48165574 311.20820781 -355.03654874 309.75880833 -353.59192276 308.30891418 C-348.52985102 303.22840981 -343.46271227 298.15302457 -338.390625 293.08251953 C-333.6986085 288.39170269 -329.01784991 283.68985857 -324.3422631 278.98267031 C-320.29734264 274.91141018 -316.24455609 270.84809066 -312.18580925 266.7906146 C-309.77523171 264.38054152 -307.36770492 261.96762317 -304.96813583 259.54658508 C-285.76916544 240.20586032 -267.07990268 225.81988236 -240.25 219.3125 C-238.78240234 218.94318359 -238.78240234 218.94318359 -237.28515625 218.56640625 C-218.83035008 214.72717111 -197.81327662 216.60652165 -180.25 223.3125 C-180.51554688 222.52488281 -180.78109375 221.73726562 -181.0546875 220.92578125 C-189.69981871 194.26470141 -188.42268905 164.76802734 -176.25 139.3125 C-169.54504222 126.30340688 -160.64109452 115.40589174 -150.31811523 105.07421875 C-149.46322006 104.21100006 -148.60832489 103.34778137 -147.7275238 102.45840454 C-145.40866365 100.1197533 -143.08541822 97.78559103 -140.75920367 95.45425797 C-139.29802882 93.98940851 -137.83815264 92.52327677 -136.37867928 91.05673218 C-131.26390556 85.91755594 -126.14351758 80.78404389 -121.01831055 75.65527344 C-116.27814062 70.91147433 -111.55125604 66.15471461 -106.83027118 61.39182949 C-102.74548584 57.27209648 -98.65088005 53.16229032 -94.5489307 49.05964756 C-92.11296525 46.62289765 -89.68094785 44.18253182 -87.25906181 41.73178101 C-62.78135066 17.008654 -35.92065951 -0.19682553 0 0 Z M-58.25 42.3125 C-58.97058594 42.91191406 -59.69117188 43.51132812 -60.43359375 44.12890625 C-64.36691413 47.45252479 -67.79869161 50.91226665 -71.0234375 54.9296875 C-72.25 56.3125 -72.25 56.3125 -74.25 57.3125 C-74.25 57.9725 -74.25 58.6325 -74.25 59.3125 C-74.91 59.3125 -75.57 59.3125 -76.25 59.3125 C-77.81648858 60.89987399 -77.81648858 60.89987399 -79.4375 62.9375 C-82.3600663 66.40037267 -85.40830902 69.28760908 -88.96484375 72.0859375 C-89.38894531 72.49070313 -89.81304687 72.89546875 -90.25 73.3125 C-90.25 73.9725 -90.25 74.6325 -90.25 75.3125 C-92.23 76.3025 -92.23 76.3025 -94.25 77.3125 C-94.25 77.9725 -94.25 78.6325 -94.25 79.3125 C-94.91 79.3125 -95.57 79.3125 -96.25 79.3125 C-96.25 79.9725 -96.25 80.6325 -96.25 81.3125 C-96.889375 81.580625 -97.52875 81.84875 -98.1875 82.125 C-100.58131686 83.19917752 -100.58131686 83.19917752 -101.25 86.3125 C-102.735 86.8075 -102.735 86.8075 -104.25 87.3125 C-105.93732277 89.29510426 -107.60366057 91.2957342 -109.25 93.3125 C-110.24 93.9725 -111.23 94.6325 -112.25 95.3125 C-112.25 95.9725 -112.25 96.6325 -112.25 97.3125 C-113.24 97.6425 -114.23 97.9725 -115.25 98.3125 C-115.25 98.9725 -115.25 99.6325 -115.25 100.3125 C-116.24 100.6425 -117.23 100.9725 -118.25 101.3125 C-118.25 101.9725 -118.25 102.6325 -118.25 103.3125 C-119.24 103.6425 -120.23 103.9725 -121.25 104.3125 C-122.63257459 105.71029556 -122.63257459 105.71029556 -123.9375 107.4375 C-126.84174438 110.98388887 -130.06638252 113.84280803 -133.61328125 116.734375 C-135.50957736 118.31883466 -135.50957736 118.31883466 -136.25 121.3125 C-136.84167969 121.60253906 -137.43335938 121.89257812 -138.04296875 122.19140625 C-149.85451151 128.19125186 -158.00422882 147.55597251 -162.25 159.3125 C-167.97509938 179.0718897 -167.66244781 198.98975983 -160.25 218.3125 C-158.62963986 216.93106696 -157.01069997 215.54794556 -155.39746094 214.15820312 C-153.93860509 212.90434339 -152.47282787 211.65850104 -151.00097656 210.41992188 C-139.98542469 201.68654394 -139.98542469 201.68654394 -134 189.58984375 C-133.75008605 185.83159882 -133.97835424 182.11062271 -134.22119141 178.35644531 C-134.44872605 162.21305536 -121.80765337 149.13864574 -111.40919113 138.41393661 C-106.41928638 133.30936329 -101.38124358 128.25285381 -96.33984375 123.19921875 C-95.14908328 122.00421721 -95.14908328 122.00421721 -93.93426704 120.78507423 C-89.7432815 116.57921393 -85.54952022 112.37614606 -81.35327148 108.17553711 C-77.04409988 103.86085909 -72.7443069 99.53695857 -68.44658566 95.21087933 C-65.11347452 91.85908564 -61.77361694 88.5140759 -58.43191719 85.17084694 C-56.8439405 83.5798623 -55.25844247 81.98639936 -53.67558098 80.39032555 C-37.1276211 63.71398306 -21.88963303 51.57351306 2.75 51.3125 C15.54011204 52.111882 26.55207017 56.65915918 36.75 64.3125 C37.98943359 65.23675781 37.98943359 65.23675781 39.25390625 66.1796875 C50.11026081 75.45600924 56.14870384 90.00993614 57.5 103.9375 C58.54959889 122.28604363 52.12499311 136.97672772 40.25 150.625 C32.36298241 159.07819748 32.36298241 159.07819748 27.74609375 159.4921875 C24.05223341 159.28810682 22.13582327 158.61363036 19.1875 156.3125 C17.49749052 152.78552369 17.07996641 150.67917821 17.6796875 146.83203125 C19.36008412 142.87635307 22.328198 140.36495933 25.4453125 137.47900391 C32.78826783 130.6403987 37.13946602 122.81539684 38.0859375 112.734375 C38.20874421 101.19054381 36.32289423 92.35614312 28.796875 83.3828125 C20.5441486 75.03558923 11.99108503 71.25084906 0.375 70.875 C-15.43662958 71.25447911 -24.83562887 79.58601959 -35.53613281 90.32397461 C-36.69648544 91.47666084 -36.69648544 91.47666084 -37.88027954 92.65263367 C-40.40970121 95.16827111 -42.93174366 97.69114952 -45.453125 100.21484375 C-47.22168542 101.9795124 -48.99046755 103.74395887 -50.75946045 105.50819397 C-54.45437689 109.19567318 -58.14542622 112.88697164 -61.83398438 116.58081055 C-65.61240815 120.36461308 -69.39699602 124.1421178 -73.1875 127.91381836 C-77.78237507 132.48619599 -82.36982082 137.06589151 -86.95149994 141.65149117 C-88.69221033 143.39168962 -90.43527292 145.1295386 -92.18076324 146.86494255 C-94.62158136 149.29337643 -97.05260574 151.73122417 -99.48144531 154.17163086 C-100.19738861 154.87993042 -100.91333191 155.58822998 -101.65097046 156.31799316 C-108.2278606 162.96404735 -112.43603804 169.07778457 -114.25 178.3125 C-113.06664062 178.26609375 -111.88328125 178.2196875 -110.6640625 178.171875 C-101.77652542 177.92740191 -94.18564261 177.76210176 -86.25 182.3125 C-85.1775 182.910625 -84.105 183.50875 -83 184.125 C-76.12598634 189.59296541 -71.09903795 196.63344275 -69.25 205.3125 C-69.17233916 206.75348431 -69.14203633 208.19758629 -69.15234375 209.640625 C-69.15717773 210.83945312 -69.15717773 210.83945312 -69.16210938 212.0625 C-69.17048828 212.8875 -69.17886719 213.7125 -69.1875 214.5625 C-69.19201172 215.40296875 -69.19652344 216.2434375 -69.20117188 217.109375 C-69.21292039 219.17711401 -69.23085478 221.24481624 -69.25 223.3125 C-59.51138252 221.17772999 -53.34482017 216.58135823 -46.5 209.5 C-43.9232173 206.86398092 -41.96698996 205.07495948 -38.25 204.3125 C-35.02542937 204.63495706 -32.32265853 205.28828049 -29.25 206.3125 C-27.54504159 210.80739036 -26.95481181 213.13174723 -28.125 217.8125 C-34.33678801 229.74781321 -48.78661088 237.83212842 -61.08496094 241.92285156 C-65.41284344 243.17960612 -68.6194462 243.20353068 -73.13720703 242.62524414 C-79.2740161 242.07992334 -83.42254924 242.93361556 -88.42285156 246.70654297 C-95.9502667 253.2932044 -102.66500042 260.80103944 -109.25 268.3125 C-106.61014551 270.95235449 -103.76314912 271.47042954 -100.25 272.375 C-99.57300049 272.5512793 -98.89600098 272.72755859 -98.19848633 272.90917969 C-92.86962205 274.24947171 -87.73292281 275.0991206 -82.25 275.3125 C-81.47785156 275.35246094 -80.70570313 275.39242187 -79.91015625 275.43359375 C-58.86795266 276.01336273 -36.65836198 268.85428092 -20.875 254.75 C-19.81152344 253.72712891 -19.81152344 253.72712891 -18.7265625 252.68359375 C-16.76492018 250.8054914 -14.77945784 249.04043381 -12.71826172 247.27685547 C-7.69890009 242.8947756 -2.99421825 238.2187095 1.71875 233.51171875 C2.63966431 232.59413284 3.56057861 231.67654694 4.50939941 230.7311554 C6.44064622 228.80584407 8.36986898 226.87853095 10.29785156 224.94995117 C12.77212908 222.47557099 15.25327911 220.00820348 17.73613739 217.54243755 C20.10981192 215.1824991 22.47633974 212.81544118 24.84375 210.44921875 C25.73735229 209.56280197 26.63095459 208.67638519 27.55163574 207.7631073 C28.36668579 206.94498062 29.18173584 206.12685394 30.02148438 205.28393555 C30.74348022 204.56336472 31.46547607 203.84279388 32.20935059 203.10038757 C33.96759525 201.4533383 33.96759525 201.4533383 33.75 199.3125 C34.41 199.3125 35.07 199.3125 35.75 199.3125 C36.92769266 197.89926881 38.10050833 196.48154337 39.2421875 195.0390625 C41.38294453 192.58772932 43.85020377 190.62747697 46.39453125 188.609375 C46.84183594 188.18140625 47.28914062 187.7534375 47.75 187.3125 C47.75 186.6525 47.75 185.9925 47.75 185.3125 C48.41 185.3125 49.07 185.3125 49.75 185.3125 C49.75 184.6525 49.75 183.9925 49.75 183.3125 C50.41 183.3125 51.07 183.3125 51.75 183.3125 C53.1581132 181.92338239 53.1581132 181.92338239 54.5625 180.125 C57.58358565 176.48364314 60.74963299 173.08108645 64.30078125 169.94140625 C77.29683676 157.96113439 84.65006229 140.38529125 87.75 123.3125 C87.88148438 122.60867187 88.01296875 121.90484375 88.1484375 121.1796875 C91.53904523 99.27819434 85.44609051 75.33360369 72.75 57.3125 C69.39083387 53.00808612 65.62564466 49.14988019 61.75 45.3125 C60.97011719 44.51070312 60.19023437 43.70890625 59.38671875 42.8828125 C43.70409455 27.64826327 21.88303153 20.50537323 0.3125 20.0625 C-21.85049052 20.51480593 -41.48822731 27.79329724 -58.25 42.3125 Z M-123.28051758 209.82543945 C-124.14493469 210.68284729 -125.00935181 211.54025513 -125.89996338 212.42364502 C-128.25229575 214.76145755 -130.59535935 217.10782672 -132.93404603 219.45924401 C-135.39164417 221.92702604 -137.85905195 224.38496967 -140.32487488 226.8445282 C-144.46167522 230.97406912 -148.59001055 235.1119317 -152.71362305 239.25463867 C-157.47205778 244.03485326 -162.24475023 248.80046824 -167.02507478 253.55878478 C-171.1405046 257.6560291 -175.24804632 261.76105896 -179.34916419 265.87262887 C-181.79363733 268.32331778 -184.24068442 270.77127232 -186.69489479 273.21221352 C-189.43029652 275.93385366 -192.14907539 278.67173729 -194.86645508 281.41137695 C-195.67531662 282.21214157 -196.48417816 283.01290619 -197.31755066 283.8379364 C-202.05013893 288.64252177 -205.71388662 292.78858435 -206.53515625 299.71875 C-205.89440324 305.74407656 -203.84365804 309.34780248 -199.25 313.3125 C-195.43836101 315.78491448 -191.99365238 315.38259413 -187.62890625 314.9921875 C-180.58452853 312.97950815 -175.54901664 306.90774528 -170.53833008 301.89135742 C-169.68395859 301.04370316 -168.8295871 300.19604889 -167.94932556 299.32270813 C-165.6191864 297.00825996 -163.29361611 294.68935052 -160.97067094 292.36768508 C-159.5167413 290.91518154 -158.06139489 289.46411327 -156.60553551 288.01354408 C-151.52013273 282.94661142 -146.43988927 277.87457179 -141.36450195 272.79760742 C-136.64295708 268.07486027 -131.91036165 263.36339189 -127.17246324 258.65705603 C-123.09552364 254.60630558 -119.02637094 250.54784268 -114.96314353 246.48333818 C-112.5403817 244.06006772 -110.11465273 241.63996766 -107.68103981 239.22759056 C-104.9689249 236.53507319 -102.26977918 233.8301751 -99.57348633 231.12182617 C-98.36950699 229.93470535 -98.36950699 229.93470535 -97.14120483 228.72360229 C-92.41550505 223.94403124 -88.78336556 219.8132286 -87.96484375 212.90625 C-88.60361579 206.89955151 -90.64340358 203.24823286 -95.25 199.3125 C-106.47939405 192.85559842 -115.76985134 202.23863672 -123.28051758 209.82543945 Z M-275.25 259.3125 C-276.11625 260.00085938 -276.9825 260.68921875 -277.875 261.3984375 C-280.53283606 263.54044353 -282.86682876 265.86974948 -285.25 268.3125 C-286.178125 269.199375 -287.10625 270.08625 -288.0625 271 C-290.47906662 273.02412149 -290.47906662 273.02412149 -290.25 275.3125 C-290.86875 275.56 -291.4875 275.8075 -292.125 276.0625 C-294.38746494 277.13393729 -294.38746494 277.13393729 -295.25 279.3125 C-296.50808796 281.82867591 -297.7800397 282.11735792 -300.25 283.3125 C-300.58 284.3025 -300.91 285.2925 -301.25 286.3125 C-302.56719929 287.01050304 -303.90337955 287.67309748 -305.25 288.3125 C-307.20195837 289.95098223 -307.20195837 289.95098223 -309 291.8125 C-309.61359375 292.4209375 -310.2271875 293.029375 -310.859375 293.65625 C-312.46434088 295.20734277 -312.46434088 295.20734277 -312.25 297.3125 C-314.23 298.3025 -314.23 298.3025 -316.25 299.3125 C-316.25 299.9725 -316.25 300.6325 -316.25 301.3125 C-316.91 301.3125 -317.57 301.3125 -318.25 301.3125 C-318.78625 301.993125 -319.3225 302.67375 -319.875 303.375 C-322.40912532 306.50931289 -325.16259872 308.92456969 -328.2109375 311.5390625 C-331.0512382 314.00936234 -333.68513592 316.55527111 -336.25 319.3125 C-336.25 319.9725 -336.25 320.6325 -336.25 321.3125 C-336.848125 321.580625 -337.44625 321.84875 -338.0625 322.125 C-340.24847854 323.31167406 -341.66332594 324.40849113 -343.25 326.3125 C-343.25 326.9725 -343.25 327.6325 -343.25 328.3125 C-344.2090625 328.7146875 -344.2090625 328.7146875 -345.1875 329.125 C-347.58131686 330.19917752 -347.58131686 330.19917752 -348.25 333.3125 C-349.09498047 333.72242188 -349.09498047 333.72242188 -349.95703125 334.140625 C-364.0727316 341.35478191 -374.20999695 362.2620735 -379.25 376.3125 C-381.37437871 383.20215173 -382.85963202 390.10843644 -383.25 397.3125 C-383.30285156 398.25222656 -383.35570312 399.19195312 -383.41015625 400.16015625 C-384.04153165 422.31319757 -376.99181977 445.15672018 -361.875 461.625 C-360.0304807 463.55532557 -358.14798984 465.43324913 -356.25 467.3125 C-355.47011719 468.11429688 -354.69023437 468.91609375 -353.88671875 469.7421875 C-338.21493209 484.96620882 -316.53077022 491.9846797 -295 492.625 C-256.6687503 491.88519301 -232.65549588 467.87296041 -207.203125 442.43359375 C-205.69633768 440.93003037 -204.18947998 439.42653753 -202.68255615 437.92311096 C-199.54783794 434.79433162 -196.41514291 431.6635428 -193.28369141 428.53149414 C-189.29597998 424.54368077 -185.30140717 420.56281716 -181.30507278 416.58364773 C-178.199312 413.4890639 -175.09816605 410.38988634 -171.99825287 407.28944588 C-170.52805134 405.82041368 -169.05625312 404.35297743 -167.58274078 402.88726616 C-145.50658804 380.91719355 -128.96995388 358.36986109 -128.0625 326.125 C-128.23848943 315.05722026 -130.29310688 304.62731361 -134.25 294.3125 C-135.87036014 295.69393304 -137.48930003 297.07705444 -139.10253906 298.46679688 C-140.56139491 299.72065661 -142.02717213 300.96649896 -143.49902344 302.20507812 C-154.51457531 310.93845606 -154.51457531 310.93845606 -160.5 323.03515625 C-160.74991395 326.79340118 -160.52164576 330.51437729 -160.27880859 334.26855469 C-160.11439914 345.9332664 -167.74612898 357.93886712 -175.41943359 366.09423828 C-176.19785897 366.92884929 -176.19785897 366.92884929 -176.99201012 367.78032112 C-184.18483503 375.44014619 -191.61896516 382.86625696 -199.0390625 390.3046875 C-200.21189852 391.48176458 -200.21189852 391.48176458 -201.40842819 392.682621 C-205.53458778 396.82363936 -209.66350972 400.96187846 -213.79492188 405.09765625 C-218.03568171 409.34392715 -222.26705706 413.59942428 -226.49637794 417.85708427 C-229.77887497 421.15826342 -233.06811777 424.45265873 -236.35920334 427.74527359 C-237.92206084 429.311138 -239.48244099 430.87947942 -241.04018021 432.45043564 C-257.50490605 449.04503114 -272.74637661 461.05292772 -297.25 461.3125 C-310.04011204 460.513118 -321.05207017 455.96584082 -331.25 448.3125 C-332.07628906 447.69632813 -332.90257812 447.08015625 -333.75390625 446.4453125 C-344.61026081 437.16899076 -350.64870384 422.61506386 -352 408.6875 C-352.93570723 392.32995135 -348.10245494 377.84036725 -337.55795288 365.30021667 C-329.80744075 356.61729345 -321.56144413 348.42096045 -313.3515625 340.17578125 C-312.1433742 338.96147965 -312.1433742 338.96147965 -310.91077805 337.72264671 C-306.65407597 333.44521052 -302.39419503 329.17096871 -298.13183594 324.89916992 C-293.75368247 320.50992376 -289.38734359 316.10911475 -285.02349281 311.7056551 C-281.64137234 308.2973082 -278.25031791 304.89795512 -274.85685349 301.50090599 C-273.24368794 299.88289739 -271.63387598 298.26153747 -270.02763748 296.63665199 C-260.19795029 286.69989253 -251.0986499 277.69073078 -237.875 272.4375 C-236.44027344 271.85355469 -236.44027344 271.85355469 -234.9765625 271.2578125 C-230.82240497 269.81754585 -228.0844905 269.18964698 -223.66796875 269.83984375 C-216.78080566 270.67582444 -211.75716144 270.19988345 -206.06396484 265.9140625 C-198.54019363 259.33160203 -191.83134868 251.81979601 -185.25 244.3125 C-187.88985449 241.67264551 -190.73685088 241.15457046 -194.25 240.25 C-194.92699951 240.0737207 -195.60399902 239.89744141 -196.30151367 239.71582031 C-201.63037795 238.37552829 -206.76707719 237.5258794 -212.25 237.3125 C-213.02214844 237.27253906 -213.79429687 237.23257813 -214.58984375 237.19140625 C-237.33016168 236.56484968 -258.1072717 244.67478305 -275.25 259.3125 Z M-242.51611328 297.90991211 C-243.02447283 298.38511512 -243.53283237 298.86031813 -244.05659676 299.34992123 C-251.71889652 306.56579486 -259.15941474 314.01571442 -266.6171875 321.44140625 C-267.4261359 322.24627913 -268.2350843 323.051152 -269.0685463 323.88041496 C-273.33833485 328.12950968 -277.60495925 332.38175318 -281.86914062 336.63647461 C-286.25171466 341.00792976 -290.6458597 345.36756361 -295.04260063 349.72476292 C-298.44659807 353.1025653 -301.84163144 356.4892717 -305.2343483 359.8784008 C-306.85039413 361.48959999 -308.4697947 363.09744212 -310.09270859 364.7017231 C-312.36290641 366.94743514 -314.61999586 369.20560023 -316.87451172 371.46704102 C-317.53539291 372.11511215 -318.19627411 372.76318329 -318.87718201 373.43089294 C-327.35982296 382.00823643 -332.49477082 391.3209567 -332.625 403.5625 C-332.43875679 414.67135971 -329.10620349 423.36633998 -321.25 431.3125 C-311.76297632 439.38589432 -303.36662673 441.95379904 -290.96875 441.65625 C-277.23839444 440.38705747 -268.29174766 431.66155284 -258.96386719 422.30102539 C-258.19029877 421.5325679 -257.41673035 420.76411041 -256.61972046 419.97236633 C-254.09029879 417.45672889 -251.56825634 414.93385048 -249.046875 412.41015625 C-247.27831458 410.6454876 -245.50953245 408.88104113 -243.74053955 407.11680603 C-240.04562311 403.42932682 -236.35457378 399.73802836 -232.66601562 396.04418945 C-228.88759185 392.26038692 -225.10300398 388.4828822 -221.3125 384.71118164 C-216.71762493 380.13880401 -212.13017918 375.55910849 -207.54850006 370.97350883 C-205.80778967 369.23331038 -204.06472708 367.4954614 -202.31923676 365.76005745 C-199.87841864 363.33162357 -197.44739426 360.89377583 -195.01855469 358.45336914 C-194.30261139 357.74506958 -193.58666809 357.03677002 -192.84902954 356.30700684 C-186.2721394 349.66095265 -182.06396196 343.54721543 -180.25 334.3125 C-181.43335938 334.35890625 -182.61671875 334.4053125 -183.8359375 334.453125 C-196.73086053 334.81063504 -206.4513735 333.43681242 -216.25 324.3125 C-226.03853228 313.81368873 -225.64571306 302.89864824 -225.25 289.3125 C-232.063338 289.3125 -237.75504021 293.45092584 -242.51611328 297.90991211 Z " fill="#F9F7F8" transform="translate(403.25,-0.3125)"/>
<path d="M0 0 C3.21093673 2.44310404 4.69865985 4.11481331 6 7.9375 C6 11.84455719 5.21495196 13.78474715 3 17 C-0.21525285 19.21495196 -2.15544281 20 -6.0625 20 C-9.88518669 18.69865985 -11.55689596 17.21093673 -14 14 C-15.35852611 9.60476848 -15.41371666 7.81211049 -13.3125 3.6875 C-9.08626368 -1.22407194 -6.35531304 -1.6724508 0 0 Z " fill="#F0EEEF" transform="translate(403,172)"/>
</svg>
