<?xml version="1.0" encoding="UTF-8"?>
<svg version="1.1" xmlns="http://www.w3.org/2000/svg" width="512" height="512">
<path d="M0 0 C94.38 0 188.76 0 286 0 C286 61.38 286 122.76 286 186 C191.62 186 97.24 186 0 186 C0 124.62 0 63.24 0 0 Z M83.5625 24.8125 C79.45221104 31.01868702 76.78172195 37.42729437 78 45 C79.85410077 52.00805947 82.95365652 57.81647147 89 62 C95.11111625 65.30005932 100.2163718 66.5902631 107.12475586 66.53344727 C107.98782852 66.54206284 108.85090118 66.55067841 109.74012756 66.55955505 C112.56534666 66.58207589 115.38956254 66.57550183 118.21484375 66.56640625 C120.19584952 66.57164805 122.17685279 66.57792657 124.15785217 66.58518982 C128.29928373 66.59556849 132.44037115 66.5910691 136.58178711 66.57641602 C141.86871669 66.55923382 147.15455883 66.58273016 152.44136715 66.61790562 C156.52941483 66.63994741 160.61720504 66.63842171 164.70529366 66.6301403 C166.65359248 66.62932447 168.60191091 66.63611697 170.55015373 66.65091133 C186.56944062 66.89243239 186.56944062 66.89243239 200.1136322 59.05519104 C205.30139107 53.74278257 207.61257707 48.43146022 208.4375 41.125 C208.10901661 33.54001979 204.48362554 26.12599779 199 21 C189.9728929 14.08026357 179.01978868 15.27258433 168.25 15.3359375 C166.22558298 15.33256385 164.20116795 15.32770667 162.17675781 15.32144165 C157.94706822 15.31409628 153.71790888 15.32470039 149.48828125 15.34814453 C144.08813258 15.37663062 138.6892267 15.3602141 133.28912354 15.33028221 C129.11269908 15.31214602 124.93656543 15.31799621 120.76013184 15.33092117 C118.76997731 15.33423773 116.7797957 15.33023028 114.78967285 15.31852341 C97.32484794 15.03770258 97.32484794 15.03770258 83.5625 24.8125 Z " fill="#FFFFFF" transform="translate(113,294)"/>
<path d="M0 0 C76.56 0 153.12 0 232 0 C232 49.83 232 99.66 232 151 C155.44 151 78.88 151 0 151 C0 101.17 0 51.34 0 0 Z M66.4375 18.1796875 C62.68533192 22.93107425 60.84436092 27.91895891 61 34 C62.16928987 41.10281397 65.72366596 46.21867384 71 51 C76.75147798 54.56591635 81.99869846 55.12220946 88.66699219 55.16113281 C89.31650848 55.16609772 89.96602478 55.17106262 90.63522339 55.17617798 C92.77245161 55.19071695 94.90960556 55.19758832 97.046875 55.203125 C97.78127052 55.20595238 98.51566605 55.20877975 99.27231598 55.21169281 C103.16006324 55.2266534 107.0477737 55.23590213 110.93554688 55.24023438 C114.93104154 55.24570904 118.92619372 55.26972455 122.92158127 55.29820633 C126.01187084 55.31692573 129.1020795 55.32204326 132.19242096 55.32357025 C133.66427733 55.32657724 135.13613294 55.33453892 136.60793304 55.34775543 C147.93537768 55.44220044 156.85324631 54.88511086 165.33984375 46.8203125 C169.46311442 42.29926748 171.15591188 37.09169969 171 31 C169.83145574 23.90171516 166.27938034 18.77390775 161 14 C155.3605588 10.57210437 150.79156176 9.8757839 144.26293945 9.83886719 C143.59406204 9.83390228 142.92518463 9.82893738 142.23603821 9.82382202 C140.02844196 9.80924761 137.82091766 9.80240499 135.61328125 9.796875 C134.07114156 9.79111802 132.52900187 9.78536036 130.98686218 9.77960205 C127.75303821 9.76910433 124.519239 9.76325418 121.28540039 9.75976562 C117.16096606 9.75429488 113.03686418 9.73029235 108.91253376 9.70179367 C105.72530697 9.68307681 102.53815866 9.67795682 99.35088158 9.67642975 C97.83157733 9.67342116 96.31227387 9.66545393 94.79302406 9.65224457 C83.82882547 9.56374806 74.23690879 9.54978611 66.4375 18.1796875 Z " fill="#FFFFFF" transform="translate(140,75)"/>
<path d="M0 0 C103.62 0 207.24 0 314 0 C314 12.21 314 24.42 314 37 C210.38 37 106.76 37 0 37 C0 24.79 0 12.58 0 0 Z " fill="#FFFFFF" transform="translate(99,241)"/>
<path d="M0 0 C84.48 0 168.96 0 256 0 C256 9.24 256 18.48 256 28 C171.52 28 87.04 28 0 28 C0 18.76 0 9.52 0 0 Z " fill="#FFFFFF" transform="translate(128,32)"/>
<path d="M0 0 C1.2758622 -0.01226624 1.2758622 -0.01226624 2.57749939 -0.02478027 C5.39955944 -0.04964522 8.22156917 -0.06615272 11.04370117 -0.08056641 C12.00649176 -0.08589008 12.96928234 -0.09121376 13.9612484 -0.09669876 C19.0568398 -0.12343461 24.15240665 -0.14280847 29.24804688 -0.15722656 C34.51425571 -0.17387925 39.77983933 -0.21866101 45.04581165 -0.26959801 C49.0924299 -0.30323454 53.13889906 -0.31480003 57.18564415 -0.32045364 C59.12694771 -0.32717563 61.06824115 -0.34242223 63.00940895 -0.36634445 C65.72684486 -0.39792333 68.44258543 -0.39804398 71.16015625 -0.390625 C72.36277603 -0.415233 72.36277603 -0.415233 73.58969116 -0.44033813 C77.68731246 -0.39455001 79.52340051 -0.01033716 82.75004578 2.6043396 C85.71285829 6.39330359 86.1516361 8.38017728 85.77416992 13.19287109 C84.56004159 15.86395343 83.59092076 17.61669509 81.18162537 19.31632996 C77.6620398 20.59779148 74.2026099 20.47924498 70.50488281 20.4675293 C69.6735231 20.47264023 68.84216339 20.47775116 67.98561096 20.48301697 C65.239276 20.4969094 62.49319208 20.49595649 59.74682617 20.49365234 C57.83637906 20.49753941 55.9259328 20.50187411 54.01548767 20.50663757 C50.0115987 20.51409899 46.0077979 20.51380902 42.00390625 20.50854492 C36.87466425 20.50274986 31.74578329 20.51968258 26.61660099 20.5428896 C22.67119743 20.55762584 18.72588084 20.55849879 14.78045464 20.55537987 C12.88943199 20.55589312 10.99840448 20.56113153 9.10740852 20.57119179 C6.46231794 20.58353698 3.817931 20.57677618 1.17285156 20.56518555 C0.00299713 20.57665115 0.00299713 20.57665115 -1.19049072 20.58834839 C-5.71543078 20.54455246 -8.61979232 19.98009768 -12.22583008 17.19287109 C-14.55650585 13.97431884 -14.69324145 11.08796583 -14.22583008 7.19287109 C-10.25504769 0.1778222 -7.61881545 0.04017701 0 0 Z " fill="#FFFFFF" transform="translate(220.225830078125,324.80712890625)"/>
<path d="M0 0 C0.65710968 -0.00335861 1.31421936 -0.00671722 1.99124146 -0.01017761 C4.16882201 -0.01969529 6.34632571 -0.02163121 8.52392578 -0.02270508 C10.03606193 -0.02591741 11.54819776 -0.02928146 13.06033325 -0.03279114 C16.23293783 -0.03878467 19.40551516 -0.04063084 22.578125 -0.04003906 C26.64250211 -0.0399375 30.7067043 -0.05358263 34.77103996 -0.07081127 C37.89544476 -0.08193367 41.01980732 -0.08395819 44.14422989 -0.08342934 C45.64253466 -0.08460936 47.14084052 -0.08903243 48.63912582 -0.0967617 C50.73610396 -0.10656528 52.83270318 -0.10368216 54.9296875 -0.09765625 C56.12278534 -0.09908127 57.31588318 -0.10050629 58.5451355 -0.10197449 C61.49405943 0.13714062 63.1611958 0.50474751 65.59423828 2.14526367 C67.11915826 5.19510363 66.82986376 7.78760057 66.59423828 11.14526367 C64.76308621 13.7611952 63.68455462 14.11515823 60.59423828 15.14526367 C58.4895307 15.24961135 56.38166965 15.29389292 54.27441406 15.30639648 C52.96940948 15.31600403 51.66440491 15.32561157 50.31985474 15.33551025 C48.89308853 15.34035813 47.46632029 15.34463698 46.03955078 15.34838867 C44.57608031 15.35414233 43.11260985 15.35990004 41.6491394 15.36566162 C38.58086802 15.37616333 35.51262277 15.38201147 32.44433594 15.38549805 C28.51788973 15.39098219 24.5917904 15.41501167 20.66545296 15.44347 C17.64223224 15.46211789 14.61909475 15.46730311 11.59582138 15.46883392 C10.14856952 15.47185595 8.70131897 15.47986936 7.25412369 15.4930191 C5.22710307 15.51012322 3.19993903 15.50634823 1.17285156 15.50170898 C0.02052032 15.50535461 -1.13181091 15.50900024 -2.31906128 15.51275635 C-6.05176984 15.06835201 -8.72866852 13.82235687 -11.40576172 11.14526367 C-11.87670973 4.78746551 -11.87670973 4.78746551 -10.03076172 2.27026367 C-6.59787542 -0.10634992 -4.15829438 0.01330297 0 0 Z " fill="#FFFFFF" transform="translate(228.40576171875,99.854736328125)"/>
</svg>
