<?xml version="1.0" encoding="UTF-8"?>
<svg version="1.1" xmlns="http://www.w3.org/2000/svg" width="225" height="225">
<path d="M0 0 C74.25 0 148.5 0 225 0 C225 74.25 225 148.5 225 225 C150.75 225 76.5 225 0 225 C0 150.75 0 76.5 0 0 Z " fill="#FAFAFA" transform="translate(0,0)"/>
<path d="M0 0 C0.67661682 -0.00817749 1.35323364 -0.01635498 2.050354 -0.02478027 C4.29283766 -0.04962378 6.53525812 -0.06614631 8.77783203 -0.08056641 C9.54328465 -0.08589008 10.30873726 -0.09121376 11.09738541 -0.09669876 C15.14792123 -0.12342419 19.19842628 -0.14280208 23.24902344 -0.15722656 C27.43475779 -0.17388499 31.61970638 -0.21867326 35.80514336 -0.26959801 C39.0221956 -0.30323363 42.23906033 -0.31479975 45.45627213 -0.32045364 C46.99928935 -0.32717506 48.54229384 -0.34242046 50.08514023 -0.36634445 C52.24491445 -0.3979273 54.40255599 -0.39804507 56.5625 -0.390625 C58.40544144 -0.40275528 58.40544144 -0.40275528 60.28561401 -0.41513062 C63.41064453 0.19287109 63.41064453 0.19287109 65.80552673 2.46160889 C67.37946653 5.13981872 67.91547317 6.43418272 67.94067383 9.4765625 C67.95716476 10.2873526 67.9736557 11.0981427 67.99064636 11.9335022 C67.98873795 12.79510956 67.98682953 13.65671692 67.98486328 14.54443359 C67.99902786 15.44028168 68.01319244 16.33612976 68.02778625 17.25912476 C68.0696115 20.11216317 68.08491253 22.96456956 68.09814453 25.81787109 C68.12721694 28.6780197 68.16176708 31.5380091 68.20063782 34.39804077 C68.22309297 36.17533161 68.23893198 37.95272094 68.2474823 39.73013306 C68.25803398 40.93686172 68.25803398 40.93686172 68.26879883 42.16796875 C68.27227829 42.87458649 68.27575775 43.58120422 68.27934265 44.30923462 C68.34777694 46.42008978 68.34777694 46.42008978 69.41064453 49.19287109 C74.26767357 51.44913051 78.86032355 51.47299155 84.09814453 51.46630859 C85.78304709 51.48659044 87.46794289 51.50744108 89.15283203 51.52880859 C91.78602862 51.55141536 94.41895683 51.56788953 97.05224609 51.57373047 C99.60969432 51.58327675 102.1659623 51.61706495 104.72314453 51.65380859 C105.50455811 51.64876312 106.28597168 51.64371765 107.09106445 51.63851929 C108.20251831 51.65841415 108.20251831 51.65841415 109.33642578 51.67871094 C110.30189331 51.68298599 110.30189331 51.68298599 111.28686523 51.68734741 C114.90248602 52.54797447 116.69526479 53.59968752 119.41064453 56.19287109 C120.31863945 59.8994755 120.19890757 63.55269226 120.1394043 67.35205078 C120.14509933 68.49070587 120.15079437 69.62936096 120.15666199 70.80252075 C120.16779296 74.57388935 120.13565889 78.34353097 120.10205078 82.11474609 C120.09847432 84.73545122 120.09711612 87.35616023 120.09788513 89.97686768 C120.09507581 95.47486861 120.0690437 100.97237277 120.02807617 106.47021484 C119.98099338 112.8118344 119.96507869 119.15290888 119.96728283 125.49469066 C119.96911992 131.60725543 119.95341472 137.71961523 119.92890739 143.83213043 C119.91937455 146.4268004 119.91345153 149.02148626 119.91122627 151.61617279 C119.90470067 155.24975996 119.87839077 158.88267195 119.84643555 162.51611328 C119.84847488 164.11862442 119.84847488 164.11862442 119.85055542 165.75350952 C119.76330292 172.55975416 119.23093644 178.73099619 114.76220703 184.21630859 C113.90755859 184.88533203 113.90755859 184.88533203 113.03564453 185.56787109 C112.18873047 186.26009766 112.18873047 186.26009766 111.32470703 186.96630859 C105.70523252 190.56735961 100.57745069 190.49484878 94.08764648 190.49926758 C92.53056725 190.51175285 92.53056725 190.51175285 90.94203186 190.52449036 C87.51095828 190.54858062 84.08007496 190.55736229 80.64892578 190.56396484 C78.25864099 190.57293333 75.86835677 190.58205522 73.47807312 190.59132385 C68.46543006 190.60781477 63.45285379 190.61551392 58.44018555 190.6184082 C52.03227079 190.62378576 45.62498826 190.66144046 39.21725178 190.70715237 C34.27827187 190.73697016 29.33944316 190.74413283 24.40038109 190.74513435 C22.03898415 190.74932879 19.67758645 190.76173168 17.31627846 190.7826519 C14.00392538 190.80965694 10.69302401 190.80471217 7.38061523 190.79223633 C6.41454346 190.80707062 5.44847168 190.82190491 4.453125 190.83718872 C-2.41627957 190.76390771 -7.90107348 189.14757453 -13.58935547 185.19287109 C-17.70814788 180.23812982 -18.71391235 175.04385497 -18.72979736 168.76702881 C-18.73276849 168.11195256 -18.73573961 167.45687632 -18.73880076 166.78194928 C-18.74748566 164.58264731 -18.74899584 162.3833998 -18.75048828 160.18408203 C-18.75511665 158.60880924 -18.76014134 157.03353757 -18.76553345 155.45826721 C-18.77865875 151.17505403 -18.78510281 146.89185652 -18.78954411 142.60862637 C-18.79247499 139.93225074 -18.79657986 137.25587939 -18.80104828 134.57950592 C-18.81472437 126.20471617 -18.82439013 117.82993621 -18.82825017 109.45513606 C-18.83272951 99.7898279 -18.85027118 90.12466126 -18.87925076 80.45939612 C-18.90087552 72.98752292 -18.9109549 65.5156895 -18.91229129 58.04378533 C-18.91333887 53.58174466 -18.9192365 49.11983699 -18.9371109 44.65782928 C-18.95360503 40.45860792 -18.95574061 36.25961936 -18.94697189 32.06037712 C-18.9462022 30.52170373 -18.95053533 28.98301776 -18.96043015 27.44437599 C-18.97317704 25.33819133 -18.96725885 23.23282777 -18.95684814 21.12664795 C-18.9583147 19.94972759 -18.95978127 18.77280724 -18.96129227 17.56022263 C-18.4392484 12.83386802 -17.06351552 8.84104113 -13.83544922 5.23193359 C-13.23861328 4.76529297 -12.64177734 4.29865234 -12.02685547 3.81787109 C-11.42744141 3.33576172 -10.82802734 2.85365234 -10.21044922 2.35693359 C-6.76774879 -0.11517419 -4.21058909 0.04413065 0 0 Z " fill="#020202" transform="translate(62.58935546875,17.80712890625)"/>
<path d="M0 0 C30.03 0 60.06 0 91 0 C91 74.25 91 148.5 91 225 C72.19 225 53.38 225 34 225 C34 224.67 34 224.34 34 224 C35.27875 223.79375 36.5575 223.5875 37.875 223.375 C47.23387864 221.25600861 54.57387445 215.81987805 60 208 C64.1324338 200.39150542 64.58922385 193.26160638 64.56518555 184.73852539 C64.5770137 183.44775589 64.58884186 182.15698639 64.60102844 180.82710266 C64.63184909 177.31457397 64.63735822 173.80245716 64.63609672 170.28980947 C64.63693227 167.34519252 64.64921077 164.40066263 64.66104633 161.45607275 C64.68833715 154.5036176 64.69377215 147.55137434 64.6862793 140.59887695 C64.67903763 133.45257873 64.71247481 126.30726681 64.76533669 119.16118246 C64.80924743 113.00029589 64.82582216 106.83972659 64.8213008 100.67868608 C64.81898982 97.01001774 64.82707406 93.34214774 64.86237144 89.67363167 C64.90054592 85.57871678 64.88174935 81.4858943 64.8581543 77.39086914 C64.87703705 76.19312866 64.8959198 74.99538818 64.91537476 73.76135254 C64.77269864 63.31148139 60.55181874 56.61562869 53.5 49.14453125 C52.34291301 48.0238777 51.17617255 46.91310566 50 45.8125 C48.76121433 44.61514745 47.52421182 43.41594708 46.2890625 42.21484375 C45.71188477 41.65651855 45.13470703 41.09819336 44.54003906 40.52294922 C42.7168518 38.7199939 41.02859752 36.83406504 39.375 34.875 C32.86612735 27.21265624 25.52647028 20.08079094 17.859375 13.5859375 C16.55423383 12.47272886 15.27478199 11.32903058 14.015625 10.1640625 C9.61177726 6.11866748 5.46663648 3.44046271 0 1 C0 0.67 0 0.34 0 0 Z " fill="#000000" transform="translate(134,0)"/>
<path d="M0 0 C18.15 0 36.3 0 55 0 C52.77285811 2.22714189 51.38629102 2.63745496 48.4375 3.625 C39.10263938 7.31583955 33.52992389 13.48524479 29.23799896 22.43806458 C26.89395983 29.18226734 27.16595899 36.00250213 27.22363281 43.05273438 C27.21548561 44.73945976 27.20479304 46.42617446 27.19177246 48.11286926 C27.16459925 52.66061024 27.17494905 57.2075275 27.19404697 61.75528145 C27.20933117 66.53426312 27.19512388 71.31317839 27.18572998 76.09216309 C27.17484109 84.11479235 27.18912851 92.13708926 27.21777344 100.15966797 C27.25042207 109.40986885 27.23984314 118.65927602 27.206815 127.90945768 C27.17950977 135.8784674 27.17578252 143.84723941 27.19144702 151.81628084 C27.20075894 156.56402866 27.20216577 161.31140449 27.18222809 166.05912781 C27.16478212 170.52471911 27.17712197 174.98929596 27.21159363 179.45477867 C27.21946725 181.08486441 27.21735213 182.71503684 27.20401764 184.34508705 C27.11562987 196.2560843 29.12251901 205.71246072 37.25 214.9375 C41.29291342 218.62924722 46.04446846 220.783707 51 223 C52.32 223.66 53.64 224.32 55 225 C36.85 225 18.7 225 0 225 C0 150.75 0 76.5 0 0 Z " fill="#020202" transform="translate(0,0)"/>
<path d="M0 0 C0.91114059 -0.00730133 1.82228119 -0.01460266 2.7610321 -0.02212524 C5.76715085 -0.03831318 8.77110528 -0.01114417 11.77709961 0.01806641 C13.86787413 0.01910384 15.95865062 0.01806753 18.04942322 0.01504517 C22.42842786 0.0152245 26.80669521 0.03605991 31.18554688 0.07226562 C36.80042695 0.11766924 42.41423124 0.11872252 48.02924442 0.10523033 C52.34526647 0.0985502 56.66104289 0.11181117 60.97701836 0.1314888 C63.04747673 0.13919011 65.11796243 0.14149033 67.18843269 0.13831711 C70.0805794 0.13757595 72.97134233 0.16280603 75.86328125 0.1953125 C76.72001434 0.19035767 77.57674744 0.18540283 78.45944214 0.18029785 C82.24384827 0.24824433 84.24495359 0.30457585 87.39451599 2.53286743 C89.167162 5.19559311 89.38875985 7.4783757 89.49584961 10.64697266 C88.46608788 14.08164378 86.64902672 15.52531505 83.86694336 17.74462891 C80.88693935 18.46763078 77.9882416 18.41853785 74.93334961 18.37573242 C73.59830887 18.38646538 73.59830887 18.38646538 72.23629761 18.39741516 C69.3001542 18.41429627 66.36553892 18.39490304 63.42944336 18.37353516 C61.38590366 18.37436391 59.34236403 18.37682352 57.29882812 18.38084412 C53.01826893 18.38370172 48.73823308 18.36900428 44.45776367 18.34155273 C38.97303572 18.3074703 33.48924357 18.31348867 28.00447083 18.33221531 C23.78536186 18.34278783 19.56647035 18.33384512 15.34738159 18.31883049 C13.32519171 18.31365009 11.30297911 18.31412875 9.28079224 18.32037544 C6.45354443 18.3258306 3.62763266 18.3054428 0.80053711 18.27807617 C-0.4511174 18.28786499 -0.4511174 18.28786499 -1.72805786 18.29785156 C-5.66231811 18.23315193 -7.688385 18.01583401 -11.12109375 15.92222595 C-13.96127964 12.84822273 -14.27639989 10.90158312 -14.13305664 6.74462891 C-10.27519734 0.41106955 -7.15132945 -0.12790996 0 0 Z " fill="#FBFBFB" transform="translate(75.133056640625,86.25537109375)"/>
<path d="M0 0 C0.89978073 -0.00730133 1.79956146 -0.01460266 2.72660828 -0.02212524 C5.69546449 -0.03831352 8.6621291 -0.011142 11.63085938 0.01806641 C13.69681802 0.01910393 15.76277866 0.01806728 17.82873535 0.01504517 C22.15646887 0.01522451 26.48345643 0.03605965 30.81103516 0.07226562 C36.35631866 0.11764121 41.90051243 0.11872765 47.44593048 0.10523033 C51.71138177 0.09854493 55.97658493 0.11182158 60.24198914 0.1314888 C62.28650107 0.13918311 64.33104063 0.14149323 66.37556458 0.13831711 C69.23398345 0.13757469 72.09100935 0.16284212 74.94921875 0.1953125 C75.79300583 0.19035767 76.63679291 0.18540283 77.50614929 0.18029785 C81.44462174 0.2516469 83.53940932 0.48736106 86.99963379 2.53286743 C89.35993792 5.17615567 89.56900782 7.14287056 89.63867188 10.64697266 C88.55784402 14.06111713 86.75636012 15.52396417 83.97460938 17.74462891 C80.99462677 18.46767746 78.09589357 18.41853766 75.04101562 18.37573242 C73.70597488 18.38646538 73.70597488 18.38646538 72.34396362 18.39741516 C69.40782022 18.41429627 66.47320493 18.39490304 63.53710938 18.37353516 C61.49356968 18.37436391 59.45003005 18.37682352 57.40649414 18.38084412 C53.12593494 18.38370172 48.8458991 18.36900428 44.56542969 18.34155273 C39.08070173 18.3074703 33.59690959 18.31348867 28.11213684 18.33221531 C23.89302787 18.34278783 19.67413636 18.33384512 15.45504761 18.31883049 C13.43285773 18.31365009 11.41064512 18.31412875 9.38845825 18.32037544 C6.56121044 18.3258306 3.73529867 18.3054428 0.90820312 18.27807617 C-0.34345139 18.28786499 -0.34345139 18.28786499 -1.62039185 18.29785156 C-5.55465209 18.23315193 -7.58071898 18.01583401 -11.01342773 15.92222595 C-13.85361363 12.84822273 -14.16873387 10.90158312 -14.02539062 6.74462891 C-10.18103576 0.45509004 -7.11600925 -0.12892567 0 0 Z " fill="#FCFCFC" transform="translate(75.025390625,155.25537109375)"/>
<path d="M0 0 C0.72377838 -0.00817749 1.44755676 -0.01635498 2.19326782 -0.02478027 C4.59327363 -0.04963304 6.99322029 -0.06614996 9.39331055 -0.08056641 C10.21267782 -0.08589008 11.0320451 -0.09121376 11.87624168 -0.09669876 C16.21322062 -0.12342997 20.55017077 -0.14280484 24.88720703 -0.15722656 C29.36652258 -0.17387376 33.84510227 -0.21865147 38.3241396 -0.26959801 C41.76855818 -0.30325691 45.21280181 -0.31480244 48.65736961 -0.32045364 C50.30840872 -0.32717004 51.95943616 -0.34240237 53.61031532 -0.36634445 C55.92311146 -0.39797194 58.23391931 -0.3980376 60.546875 -0.390625 C61.86210648 -0.39871185 63.17733795 -0.40679871 64.53242493 -0.41513062 C68.84901045 0.34889024 70.31871424 1.76283034 72.9675293 5.19287109 C73.62037467 9.25502007 73.48300487 11.3126012 71.39855957 14.87217712 C68.212873 17.91327608 65.69530622 17.89397252 61.50854492 17.82397461 C60.39076912 17.83470757 60.39076912 17.83470757 59.25041199 17.84565735 C56.79090787 17.8625454 54.33322641 17.8431434 51.8737793 17.82177734 C50.16271819 17.82260604 48.45165717 17.82506547 46.74060059 17.8290863 C43.156006 17.83194435 39.57203623 17.81724301 35.98754883 17.78979492 C31.39383334 17.75571163 26.8012351 17.76172999 22.20746613 17.7804575 C18.67464901 17.79102852 15.14209167 17.78208884 11.60929871 17.76707268 C9.91563183 17.76189112 8.22193782 17.76237236 6.52827454 17.76861763 C4.16042804 17.7740713 1.79417819 17.75369252 -0.57348633 17.72631836 C-1.27282791 17.73284424 -1.97216949 17.73937012 -2.69270325 17.74609375 C-6.00463126 17.68101967 -7.76438294 17.39569151 -10.43615723 15.37437439 C-12.7078483 12.26990798 -13.0324707 10.01752333 -13.0324707 6.19287109 C-9.31613674 0.29799653 -6.70241642 0.06565578 0 0 Z " fill="#F9F9F9" transform="translate(74.032470703125,120.80712890625)"/>
</svg>
